<?xml version="1.0" standalone="no"?>
<!DOCTYPE svg PUBLIC "-//W3C//DTD SVG 20010904//EN"
 "http://www.w3.org/TR/2001/REC-SVG-20010904/DTD/svg10.dtd">
<svg version="1.0" xmlns="http://www.w3.org/2000/svg"
 width="721.000000pt" height="829.000000pt" viewBox="0 0 721.000000 829.000000"
 preserveAspectRatio="xMidYMid meet">

<g transform="translate(0.000000,829.000000) scale(0.100000,-0.100000)"
fill="#000000" stroke="none">
<path d="M1618 8278 c7 -7 12 -26 12 -43 0 -17 6 -40 14 -50 12 -17 13 -14 10
29 -4 44 -21 76 -40 76 -5 0 -3 -5 4 -12z"/>
<path d="M3084 8271 c0 -11 6 -17 16 -14 11 3 16 -4 18 -24 1 -22 0 -25 -9
-13 -8 11 -9 9 -3 -10 4 -14 12 -28 18 -32 7 -5 6 -8 -3 -8 -11 0 -9 -4 5 -15
17 -12 20 -12 31 2 8 10 9 22 3 32 -5 10 -4 23 1 33 6 10 6 19 0 23 -5 3 -8
14 -6 25 3 17 -2 20 -33 20 -30 0 -38 -4 -38 -19z"/>
<path d="M2425 7779 c-55 -10 -147 -25 -205 -33 -240 -35 -446 -66 -503 -77
-33 -6 -78 -13 -99 -15 -51 -6 -164 -53 -220 -92 -25 -17 -67 -53 -94 -80 -27
-26 -82 -77 -123 -113 -41 -35 -85 -74 -99 -86 -13 -12 -33 -25 -43 -28 -11
-4 -19 -12 -19 -18 -1 -7 -19 -25 -41 -42 -21 -16 -53 -42 -70 -57 -17 -16
-36 -25 -42 -21 -6 3 -7 1 -3 -5 4 -7 1 -12 -8 -12 -9 0 -16 -6 -16 -14 0 -9
-7 -12 -20 -9 -11 3 -20 9 -20 14 0 5 -4 9 -10 9 -15 0 0 -28 17 -32 12 -3 12
-6 -4 -24 -10 -11 -24 -19 -32 -16 -9 3 -11 -1 -7 -14 3 -11 1 -26 -4 -34 -9
-13 -10 -13 -11 0 -1 8 -1 22 0 30 2 12 0 13 -7 1 -8 -11 -11 -11 -16 0 -3 8
-3 1 0 -16 13 -59 11 -70 -14 -68 -14 2 -22 -3 -22 -12 0 -8 6 -12 14 -9 11 4
13 0 9 -15 -3 -11 -9 -18 -14 -15 -8 5 -13 -9 -10 -28 0 -5 -5 -8 -12 -8 -23
0 -67 -25 -63 -35 2 -5 20 -9 40 -7 38 3 50 -12 16 -21 -13 -3 -18 -10 -14
-21 3 -9 2 -16 -4 -16 -6 0 -13 6 -15 13 -3 6 -6 2 -6 -10 -1 -13 5 -23 13
-23 7 0 16 -9 19 -20 4 -16 0 -20 -20 -20 -22 0 -24 -2 -13 -16 15 -17 23 -67
10 -59 -4 3 -11 -3 -14 -12 -6 -14 -9 -15 -15 -4 -7 11 -12 11 -30 0 -11 -8
-21 -17 -21 -21 0 -4 -14 -15 -31 -24 -17 -8 -28 -11 -25 -5 4 6 3 11 -3 11
-5 0 -13 -5 -16 -10 -7 -12 42 -33 57 -24 26 16 38 -55 13 -76 -9 -7 -12 -16
-8 -19 4 -3 14 -16 21 -28 9 -18 9 -23 0 -23 -6 0 -4 -6 7 -13 15 -11 17 -22
11 -56 -4 -25 -2 -50 5 -63 8 -15 8 -23 1 -26 -5 -1 -8 -12 -5 -22 3 -11 10
-17 17 -13 6 3 2 -3 -8 -15 -11 -12 -16 -25 -13 -29 4 -3 2 -13 -5 -20 -7 -9
-8 -17 -2 -21 5 -4 7 -20 3 -37 -7 -35 -14 -22 -24 44 -3 27 -2 47 5 51 6 4 8
14 5 23 -8 19 -60 16 -60 -4 -1 -8 -6 -13 -13 -11 -7 1 -11 -1 -11 -5 1 -5 1
-17 0 -27 -1 -25 -11 -15 -17 18 -3 20 0 26 13 26 10 0 14 4 8 8 -5 4 -11 14
-12 22 -2 12 9 15 50 15 46 0 52 2 49 20 -2 11 -5 25 -5 30 -1 6 -6 13 -12 17
-6 5 -5 8 2 8 7 0 10 7 6 16 -6 15 -9 37 -12 77 -1 17 -2 17 -17 3 -8 -9 -20
-16 -25 -16 -5 0 -9 -5 -9 -11 0 -5 5 -7 10 -4 15 9 29 -36 19 -62 -8 -22 -5
-27 16 -23 6 1 1 -7 -10 -17 -24 -22 -65 -27 -65 -9 0 9 -9 12 -25 8 -14 -2
-25 -11 -25 -18 0 -17 17 -18 23 -1 2 6 8 9 12 5 4 -4 3 -21 -3 -37 -8 -22 -8
-40 0 -62 9 -27 8 -32 -13 -47 -13 -9 -28 -16 -33 -14 -5 2 -6 -4 -2 -13 3 -9
6 -19 6 -21 0 -2 5 -4 10 -4 6 0 10 7 8 16 -2 10 3 19 10 21 6 3 12 -1 13 -9
0 -7 4 -4 8 6 4 11 15 20 24 22 10 1 15 -2 12 -6 -3 -5 -1 -11 4 -14 5 -4 11
4 13 16 3 19 4 19 16 6 10 -13 10 -19 -3 -32 -9 -8 -21 -13 -29 -10 -7 3 -19
-2 -26 -12 -13 -14 -11 -16 20 -12 32 3 35 1 35 -23 -1 -18 4 -25 13 -22 9 4
11 15 7 37 l-6 31 20 -30 c13 -19 17 -32 9 -36 -6 -4 -7 -12 -4 -18 4 -6 2
-11 -3 -11 -6 0 -11 5 -11 12 0 6 -7 3 -15 -8 -13 -16 -16 -17 -25 -4 -9 13
-11 13 -19 1 -8 -12 -11 -8 -17 15 l-8 29 -7 -33 c-4 -22 -2 -43 7 -60 8 -15
14 -21 14 -13 0 8 6 11 15 7 10 -3 15 1 15 12 0 15 2 15 10 2 8 -12 10 -12 10
-1 0 8 3 12 6 8 3 -3 7 -32 9 -64 4 -52 3 -56 -10 -39 -8 11 -15 31 -15 44 0
17 -5 23 -17 20 -19 -4 -22 -32 -8 -98 5 -26 4 -31 -4 -20 -10 13 -11 13 -10
0 0 -24 25 -64 33 -52 3 5 15 8 26 5 16 -4 20 0 20 22 0 23 -3 25 -14 16 -22
-19 -32 7 -11 27 10 10 15 11 11 5 -4 -7 -2 -13 3 -13 6 0 12 15 12 33 1 23 3
26 6 10 4 -23 23 -33 23 -13 0 6 4 10 8 10 5 0 7 -19 6 -42 -2 -24 -3 -50 -3
-59 -1 -11 -10 -15 -31 -13 -16 1 -30 -2 -30 -8 0 -5 -4 -7 -9 -4 -5 3 -19 -3
-32 -13 -13 -10 -30 -16 -38 -13 -8 2 -11 0 -7 -6 3 -5 0 -12 -8 -15 -15 -6
-31 43 -17 53 9 7 8 30 -1 30 -5 0 -13 0 -19 0 -7 0 -9 -8 -4 -22 3 -13 8 -39
9 -58 4 -46 5 -47 16 -30 7 11 10 11 10 2 0 -7 5 -10 10 -7 6 4 8 10 5 15 -3
4 1 10 9 13 8 3 18 -5 25 -19 10 -22 9 -24 -19 -25 -42 -2 -47 -3 -56 -11 -4
-5 2 -8 14 -8 11 0 22 -3 25 -7 2 -5 2 -2 1 5 -6 22 14 12 20 -10 10 -40 8
-52 -8 -39 -12 10 -19 8 -37 -10 -20 -20 -21 -22 -4 -32 14 -7 21 -6 30 7 12
15 13 15 19 0 10 -25 7 -34 -9 -34 -19 0 -19 -16 0 -24 8 -3 15 0 15 6 0 6 3
8 6 5 4 -4 2 -12 -4 -20 -7 -8 -7 -18 -2 -27 16 -24 11 -40 -11 -40 -13 0 -18
4 -13 12 4 7 3 8 -4 4 -7 -4 -12 -1 -12 9 0 9 5 13 10 10 6 -3 10 -1 10 4 0 6
-7 11 -16 11 -11 0 -15 -8 -14 -27 3 -42 1 -50 -10 -33 -11 18 -23 8 -14 -14
7 -19 34 -22 35 -3 1 6 4 1 8 -13 9 -31 -7 -59 -30 -55 -14 3 -16 -1 -9 -23 4
-15 6 -43 4 -62 -2 -27 -1 -30 6 -15 7 17 9 17 9 3 1 -10 6 -18 11 -18 10 0 4
43 -8 65 -4 5 -7 18 -7 27 -1 15 1 15 14 5 10 -8 13 -9 8 0 -4 6 -3 14 3 18 5
3 10 -1 10 -9 0 -18 28 -10 48 13 12 14 13 14 9 -4 -3 -11 -8 -29 -13 -39 -5
-14 -4 -17 4 -12 8 5 12 0 13 -13 5 -71 4 -87 -6 -93 -6 -5 -3 -8 8 -8 16 0
25 -38 18 -80 -2 -8 -3 -35 -3 -59 0 -33 -3 -40 -10 -27 -5 9 -8 24 -7 34 3
31 -1 55 -8 48 -12 -12 -13 -40 -1 -76 14 -43 13 -45 -17 -45 -35 0 -26 -19
10 -21 17 -1 32 -3 35 -4 3 -1 9 -2 14 -1 5 1 6 -8 2 -21 -3 -13 -6 -26 -6
-30 0 -5 -4 -8 -10 -8 -5 0 -7 6 -4 14 3 7 -2 16 -10 19 -18 7 -19 -10 -6 -53
7 -23 8 -24 15 -6 8 19 9 19 16 0 13 -34 10 -81 -6 -88 -8 -3 -15 -1 -15 4 0
6 4 10 8 10 4 0 8 9 8 21 0 16 -3 17 -11 7 -5 -7 -17 -13 -25 -13 -8 0 -14 -6
-12 -13 1 -8 -2 -11 -8 -7 -6 4 -9 14 -6 22 3 8 1 11 -4 8 -16 -10 -12 -55 5
-55 8 0 15 -6 15 -12 0 -9 4 -8 10 2 13 20 13 4 0 -21 -12 -22 -30 -25 -30 -5
0 8 -4 17 -9 20 -5 4 -7 -4 -4 -16 10 -45 13 -50 26 -41 18 13 71 17 63 4 -4
-6 1 -11 11 -12 14 0 14 -2 -5 -9 -25 -10 -27 -22 -10 -49 9 -15 8 -22 -6 -37
-15 -14 -19 -15 -27 -3 -12 19 -11 39 1 39 11 0 14 43 4 53 -10 9 -34 -4 -34
-19 0 -25 -19 -15 -26 14 -3 15 -10 40 -16 55 -9 23 -8 31 3 38 11 7 10 9 -4
9 -10 0 -15 5 -12 10 3 6 -1 10 -9 10 -11 0 -13 -7 -9 -27 4 -16 6 -40 6 -55
0 -15 4 -25 8 -22 5 3 9 0 9 -5 0 -6 -6 -11 -12 -12 -7 0 -2 -5 11 -10 18 -7
21 -12 12 -23 -6 -7 -8 -15 -5 -18 2 -3 -7 -6 -20 -6 -14 1 -23 4 -21 9 8 12
-6 89 -15 84 -4 -3 -4 -21 0 -40 5 -23 4 -40 -5 -52 -12 -15 -14 -16 -18 -3
-12 37 -14 60 -6 60 5 0 9 4 9 10 0 5 -7 7 -15 4 -11 -4 -13 -16 -9 -42 9 -66
14 -82 28 -82 9 0 12 7 9 19 -3 10 0 22 6 25 6 4 11 4 11 -1 0 -4 13 -8 29 -8
16 0 29 2 29 5 -1 19 4 30 14 30 6 0 9 -3 5 -6 -3 -4 0 -19 9 -35 14 -27 13
-29 -6 -29 -11 0 -20 -4 -20 -10 0 -5 7 -10 15 -10 11 0 13 -10 10 -42 -3 -24
-2 -38 1 -31 3 7 13 9 21 6 13 -5 15 -2 8 13 -19 46 -17 59 7 60 21 1 24 -3
25 -32 1 -20 -3 -31 -9 -28 -6 4 -6 -1 1 -13 6 -11 7 -24 3 -28 -4 -5 -1 -5 5
-1 17 9 17 -6 1 -23 -11 -11 -10 -13 2 -9 9 3 14 16 13 32 -1 14 2 26 8 26 5
0 9 -6 9 -14 0 -8 3 -23 7 -33 3 -10 3 -15 -2 -11 -4 4 -14 1 -22 -7 -16 -16
-38 -20 -28 -6 3 5 1 12 -4 15 -5 3 -7 15 -4 26 6 21 -11 27 -35 11 -16 -9 -7
-57 15 -83 13 -14 12 -17 -3 -26 -13 -7 -15 -16 -10 -38 4 -16 7 -37 7 -46 0
-9 8 -39 18 -65 15 -41 16 -51 4 -61 -10 -10 -13 -9 -14 5 -1 10 -1 24 0 30 1
8 -5 10 -13 7 -11 -4 -13 -11 -7 -23 6 -10 5 -23 0 -34 -9 -15 -6 -16 25 -11
23 3 36 1 36 -6 0 -6 -4 -8 -10 -5 -5 3 -12 -6 -16 -20 -3 -14 -10 -25 -15
-25 -5 0 -9 -4 -9 -8 0 -5 10 -8 22 -8 15 1 23 -6 26 -19 2 -16 1 -17 -7 -5
-7 9 -11 10 -11 3 0 -6 4 -14 9 -17 15 -9 0 -46 -18 -46 -12 0 -13 -2 -3 -9
11 -7 10 -10 -3 -15 -9 -3 -21 -4 -25 -1 -10 6 -24 -50 -16 -64 3 -5 -1 -14
-9 -21 -8 -7 -15 -18 -15 -24 0 -6 5 -4 10 4 9 13 11 13 20 0 14 -21 12 -30
-5 -30 -8 0 -15 -4 -15 -9 0 -5 10 -7 23 -5 16 3 15 1 -5 -7 -16 -6 -28 -16
-28 -22 0 -7 -8 -3 -16 8 -16 19 -16 19 -10 -5 7 -24 6 -24 -8 -6 -9 11 -16
28 -16 38 0 21 -6 22 -49 7 -24 -9 -29 -14 -19 -20 21 -14 36 -10 40 9 3 13 8
9 20 -16 l17 -32 -33 -14 c-33 -14 -59 -39 -35 -34 7 2 40 18 73 36 33 18 68
31 78 29 12 -4 18 0 18 11 0 13 2 14 9 4 7 -11 10 -10 15 3 8 23 8 25 -6 25
-7 0 -21 11 -30 25 -17 23 -17 24 2 22 11 -1 20 -8 20 -18 0 -10 7 -16 18 -15
9 0 16 -5 15 -11 -2 -7 2 -13 7 -13 15 0 12 16 -5 30 -13 11 -13 15 -3 21 10
7 9 9 -4 9 -23 0 -23 16 -1 24 15 6 15 8 3 16 -9 5 -19 5 -27 -2 -10 -8 -13
-7 -13 5 0 8 7 20 15 27 10 9 15 9 15 1 0 -6 6 -11 13 -11 7 0 14 -14 15 -31
1 -17 7 -39 12 -48 5 -10 5 -23 0 -31 -5 -8 -5 -19 0 -25 7 -8 5 -12 -5 -12
-8 0 -15 5 -15 11 0 8 -2 8 -8 0 -4 -6 -17 -16 -29 -23 -13 -6 -23 -19 -23
-28 0 -14 2 -14 20 2 17 16 20 16 20 2 0 -8 3 -24 6 -34 6 -16 5 -16 -10 2
-16 20 -16 20 -31 1 -15 -20 -15 -20 -16 0 0 10 -3 13 -6 7 -7 -18 -23 -16
-23 2 0 8 5 15 10 15 6 0 10 4 10 9 0 6 -14 5 -33 -2 -23 -8 -27 -12 -14 -15
9 -2 15 -7 12 -12 -5 -8 23 -70 31 -70 3 0 2 5 -1 10 -3 6 -4 10 -1 10 3 0 10
-10 17 -21 6 -12 7 -19 2 -16 -5 3 -15 -3 -21 -14 -11 -17 -10 -20 5 -17 10 2
21 8 25 13 4 6 8 -10 9 -35 3 -64 3 -66 16 -82 9 -10 9 -18 2 -25 -6 -6 -8
-16 -5 -22 11 -17 34 -13 39 7 3 9 5 -3 6 -28 0 -31 -2 -40 -8 -31 -8 12 -12
12 -25 2 -20 -17 -20 -35 -1 -55 19 -18 19 -23 0 -23 -8 0 -11 5 -8 10 4 6 0
8 -10 4 -10 -3 -17 -2 -17 2 0 5 6 12 13 14 8 4 6 6 -4 6 -17 1 -19 37 -4 62
4 6 1 15 -6 20 -12 8 -12 11 1 19 13 9 13 10 0 11 -8 1 -21 1 -27 0 -19 -3
-15 13 6 26 13 8 18 20 16 34 -5 27 -15 38 -15 17 0 -8 -12 -20 -26 -26 -14
-7 -23 -16 -20 -21 3 -5 -1 -15 -10 -22 -19 -16 -34 2 -34 41 0 14 -4 30 -8
37 -4 7 -8 -11 -7 -40 0 -29 4 -55 9 -59 6 -4 5 -13 -3 -22 -17 -20 -5 -62 13
-44 6 7 12 24 13 37 2 25 18 41 42 41 9 0 11 -7 8 -22 -6 -21 -5 -22 7 -5 13
16 14 16 18 -7 3 -16 1 -23 -5 -19 -6 4 -7 -4 -3 -22 17 -66 18 -85 7 -85 -17
0 -13 -37 5 -44 14 -5 15 -4 5 8 -13 16 2 25 56 33 25 3 33 1 33 -11 0 -8 -4
-18 -10 -21 -5 -3 -10 1 -10 10 0 9 -4 14 -9 11 -6 -4 -5 -21 1 -43 9 -32 7
-39 -10 -54 -16 -12 -20 -26 -18 -56 2 -23 6 -45 10 -51 3 -6 2 -13 -4 -17 -6
-4 -8 -10 -5 -15 3 -5 0 -12 -6 -16 -8 -5 -10 3 -7 25 2 17 2 31 -1 31 -13 0
-4 92 10 101 11 7 9 9 -9 9 -22 0 -23 -3 -19 -65 2 -36 0 -68 -5 -71 -4 -3 -8
17 -8 44 0 27 -3 52 -7 56 -4 3 -8 15 -10 26 -2 15 3 20 22 20 14 0 25 5 25
10 0 6 -7 10 -15 10 -8 0 -15 5 -15 10 0 7 -6 7 -18 1 -19 -10 -22 -47 -8 -82
4 -10 3 -20 -3 -24 -15 -9 -14 -25 2 -25 10 0 12 -16 11 -62 -1 -34 1 -56 5
-49 5 7 11 12 15 12 3 -1 18 2 32 5 13 4 28 4 31 0 9 -8 -28 -47 -38 -40 -5 3
-9 0 -9 -5 0 -19 -48 -12 -53 7 -4 13 -5 11 -6 -5 -1 -18 4 -23 22 -23 20 0
25 -7 34 -44 5 -23 6 -53 2 -64 -7 -20 -6 -20 11 -10 16 10 22 10 32 -1 7 -8
8 -11 2 -8 -7 4 -14 -3 -16 -18 -5 -26 7 -35 48 -35 24 0 25 2 18 45 -5 35 -3
45 8 45 9 0 13 -12 13 -40 0 -22 4 -40 9 -40 12 0 -11 -24 -24 -26 -6 -1 -14
-2 -20 -3 -5 0 -10 -7 -10 -14 0 -8 -7 -14 -15 -14 -9 0 -15 10 -15 24 0 13
-5 22 -12 20 -8 -1 -12 7 -11 21 3 24 -21 32 -30 10 -3 -7 -6 -4 -6 7 -1 12
-7 27 -13 33 -10 10 -10 15 2 22 8 5 11 10 6 10 -5 0 -2 8 5 17 12 15 12 16
-4 10 -10 -4 -21 -7 -23 -7 -2 0 -4 -8 -5 -17 0 -11 -3 -13 -6 -5 -8 20 -22
14 -16 -8 3 -12 -1 -22 -11 -26 -9 -3 -16 -14 -16 -23 1 -12 7 -9 25 12 21 23
26 25 31 13 3 -9 4 -23 0 -31 -3 -8 -1 -15 5 -15 6 0 8 -4 4 -9 -3 -5 -1 -12
5 -16 20 -12 9 -25 -16 -19 -25 6 -26 6 -19 -27 8 -38 24 -72 25 -51 0 6 5 12
10 12 16 0 12 -40 -5 -46 -8 -4 -15 -15 -15 -26 0 -15 -5 -19 -20 -15 -13 3
-20 0 -20 -10 0 -8 5 -11 10 -8 6 4 18 1 27 -7 14 -11 16 -11 11 4 -11 29 5
30 18 1 13 -27 13 -27 10 14 -2 23 1 40 6 37 15 -10 -4 50 -20 64 -10 7 -11
12 -4 12 7 0 12 7 12 17 0 9 3 13 6 10 4 -3 16 -2 28 4 20 10 20 10 2 -5 -18
-14 -15 -21 7 -17 12 2 8 -34 -5 -48 -11 -11 -10 -13 5 -7 10 3 23 6 29 6 6 0
8 11 6 25 -4 20 -3 23 8 14 23 -19 16 -48 -16 -64 -16 -9 -30 -22 -30 -29 0
-8 -6 -17 -12 -19 -7 -3 -2 -4 12 -3 14 1 39 9 57 19 37 20 52 22 35 5 -7 -7
-12 -21 -13 -33 0 -20 0 -20 -9 0 -8 18 -9 19 -9 1 -1 -12 -6 -16 -17 -12 -8
3 -12 2 -9 -3 3 -5 -4 -12 -14 -16 -11 -3 -23 -14 -26 -25 -3 -10 -12 -21 -20
-24 -16 -6 -21 -36 -6 -36 5 0 12 -14 16 -31 6 -29 18 -32 21 -6 0 7 2 20 2
30 1 9 9 17 18 17 8 0 13 4 9 10 -3 5 -12 7 -20 3 -16 -6 -19 5 -7 24 9 14 52
6 52 -9 0 -6 7 -5 15 2 8 7 15 19 15 26 0 8 7 14 15 14 22 0 19 -9 -10 -32
-14 -11 -25 -26 -25 -34 0 -8 -4 -13 -9 -10 -5 4 -7 -3 -4 -14 4 -13 -1 -27
-13 -36 -18 -15 -18 -15 6 -10 21 4 25 1 26 -19 2 -26 -10 -34 -20 -12 -3 6
-5 -2 -3 -20 2 -20 -1 -30 -7 -27 -6 3 -4 -1 6 -8 9 -8 22 -34 29 -58 14 -51
16 -57 18 -67 1 -5 6 -1 12 7 8 12 9 10 7 -10 -2 -14 -9 -24 -16 -23 -6 2 -12
-4 -12 -13 0 -8 -5 -12 -11 -8 -6 3 -8 17 -4 31 8 33 -4 71 -16 52 -6 -9 -9 0
-9 29 l0 42 -25 -16 c-15 -10 -25 -12 -25 -5 0 6 7 11 15 11 8 0 15 5 15 11 0
6 -9 8 -22 4 -14 -4 -18 -3 -11 2 6 5 10 21 9 36 -2 15 1 27 5 27 5 0 9 -4 9
-10 0 -5 5 -10 10 -10 6 0 10 9 10 19 0 21 -26 36 -35 20 -4 -5 -10 -7 -15 -4
-4 3 -13 -2 -20 -10 -9 -10 -9 -15 -1 -15 6 0 11 -10 11 -22 0 -13 0 -30 1
-38 1 -8 -1 -22 -3 -30 -3 -8 -3 -12 -1 -9 2 3 15 4 28 1 14 -2 22 -8 19 -14
-3 -5 0 -15 6 -23 10 -12 10 -15 1 -15 -8 0 -7 -6 3 -16 18 -17 21 -28 6 -19
-5 3 -10 2 -10 -4 0 -5 4 -12 9 -15 4 -3 11 -20 15 -38 5 -26 9 -30 16 -18 5
8 10 11 11 5 0 -5 3 -22 5 -37 3 -20 -1 -30 -15 -37 -32 -18 -50 -40 -46 -59
2 -9 4 -21 5 -27 6 -25 -1 -46 -12 -40 -7 4 -5 0 4 -8 10 -8 18 -26 18 -41 0
-14 5 -26 11 -26 6 0 8 -7 5 -16 -3 -8 -2 -12 4 -9 13 8 13 -5 0 -25 -12 -19
-22 -8 -30 37 l-8 38 -1 -37 c0 -20 3 -39 8 -42 5 -4 8 -17 6 -31 -1 -14 2
-25 8 -25 6 0 8 -19 4 -46 -4 -40 -3 -43 9 -25 8 10 12 25 10 33 -2 7 -7 25
-10 40 -6 26 -4 28 23 28 17 0 31 -6 35 -16 9 -23 8 -25 -11 -22 -26 4 -28
-28 -3 -35 12 -3 20 -11 19 -19 -1 -7 -1 -36 0 -64 1 -39 5 -51 17 -51 11 0
14 6 9 21 -8 27 -8 31 -7 95 1 30 5 52 8 49 7 -7 15 -69 16 -115 0 -21 6 -33
14 -33 15 0 19 -26 5 -34 -4 -3 -6 -17 -4 -31 3 -13 9 -22 14 -19 5 2 6 -13 3
-35 -3 -21 -1 -42 4 -45 6 -4 9 8 7 29 -2 19 1 37 6 40 5 4 9 21 10 38 l1 32
11 -27 c6 -16 16 -28 21 -28 6 0 5 -4 -2 -8 -11 -8 -17 -37 -13 -69 2 -17 31
-4 31 13 0 8 7 14 15 14 8 0 13 -9 12 -23 -3 -32 25 -116 40 -121 8 -3 15 5
19 19 8 32 16 31 31 -1 7 -15 10 -24 7 -21 -8 8 -34 -18 -34 -34 0 -8 4 -9 13
0 16 12 37 -4 37 -28 0 -13 2 -13 9 -2 5 7 7 23 5 35 -3 13 -2 15 3 6 3 -8 13
-21 22 -28 9 -8 10 -11 3 -7 -9 5 -11 0 -7 -18 5 -18 2 -26 -12 -31 -20 -8
-27 -6 -29 9 -5 28 -17 54 -25 50 -4 -3 -5 -13 -2 -21 3 -9 6 -25 7 -37 1 -12
7 -21 14 -20 6 2 9 -4 6 -12 -4 -8 -1 -15 5 -15 6 0 11 6 11 14 0 19 25 27 39
13 8 -8 9 -5 6 11 -2 12 0 24 6 27 5 4 9 -4 10 -17 1 -23 1 -23 9 2 6 21 8 17
15 -27 4 -29 11 -53 16 -53 5 0 9 -8 10 -17 0 -10 3 -13 5 -6 3 7 0 21 -6 32
-8 16 -8 19 3 15 12 -4 13 4 6 43 -4 26 -10 56 -14 66 -6 13 -3 16 9 11 9 -3
14 -9 12 -13 -8 -12 23 -157 48 -226 14 -38 24 -76 21 -83 -2 -6 2 -12 10 -12
17 0 12 42 -12 99 -7 19 -10 44 -7 55 7 20 7 20 15 -3 5 -12 6 -27 3 -32 -3
-5 0 -8 8 -7 8 2 13 -7 13 -22 1 -18 6 -24 18 -22 18 3 19 0 19 -66 0 -25 4
-40 10 -36 5 3 8 0 7 -7 -1 -8 10 -39 24 -69 15 -30 27 -49 27 -42 0 7 -7 26
-15 42 -9 17 -15 33 -15 37 -1 26 -14 84 -20 88 -5 3 -6 14 -3 25 3 11 1 26
-5 33 -6 6 -14 28 -19 47 -7 24 -15 35 -27 34 -14 -2 -15 1 -4 13 11 13 14 12
30 -7 10 -12 18 -28 18 -35 0 -7 9 -32 19 -55 11 -24 17 -49 14 -57 -4 -9 0
-11 13 -6 13 5 16 3 11 -10 -4 -10 3 -33 15 -54 17 -30 19 -35 5 -24 -9 7 -17
10 -17 6 0 -12 42 -77 46 -72 3 2 0 25 -6 51 -6 26 -8 52 -5 57 4 5 1 9 -5 9
-8 0 -8 6 0 20 6 11 15 18 20 15 6 -4 7 1 3 11 -4 12 -3 15 5 10 14 -9 16 -36
2 -36 -11 0 -2 -60 12 -75 6 -6 9 3 8 25 -3 51 -1 60 11 60 6 0 9 -9 6 -20 -3
-11 -1 -20 3 -20 17 0 20 -38 5 -66 -8 -16 -15 -23 -15 -15 0 8 -3 12 -6 8 -3
-3 -3 -15 1 -28 5 -15 10 -18 15 -9 5 8 20 -9 44 -48 38 -64 72 -101 60 -66
-4 10 -15 30 -24 44 -24 35 -29 64 -15 83 14 19 55 12 55 -9 0 -17 -12 -18
-28 -2 -17 17 -16 -13 1 -31 9 -11 9 -12 0 -7 -9 5 -11 2 -7 -8 3 -9 10 -14
14 -11 9 6 22 -46 25 -95 3 -69 6 -78 15 -49 7 24 0 96 -15 158 -5 21 -4 22
10 8 8 -9 15 -24 15 -35 0 -11 7 -39 16 -63 9 -24 18 -60 21 -79 3 -19 12 -42
19 -51 8 -9 19 -33 25 -53 9 -33 29 -51 29 -26 0 6 -4 10 -9 10 -5 0 -7 8 -5
18 3 9 -4 26 -14 38 -23 24 -35 94 -15 87 12 -5 18 -25 14 -46 -1 -5 3 -6 8
-2 6 3 10 23 10 43 0 80 10 116 24 80 3 -8 9 -3 14 11 7 17 12 21 17 12 4 -6
2 -19 -6 -28 -11 -15 -11 -16 4 -10 22 8 23 0 3 -19 -18 -18 -20 -44 -4 -44 8
0 8 -4 0 -14 -7 -8 -8 -17 -3 -20 5 -3 12 -19 16 -36 3 -17 17 -47 32 -68 21
-29 25 -32 19 -12 -4 14 -7 35 -7 47 0 13 -5 20 -13 17 -12 -5 -19 17 -29 89
-5 39 7 41 23 4 7 -18 17 -41 22 -52 8 -17 8 -17 4 5 -3 14 -2 19 1 13 8 -17
34 -16 34 1 0 8 -7 16 -15 20 -8 3 -15 14 -15 25 0 15 -5 19 -17 15 -14 -5
-15 -4 -4 4 8 6 11 17 8 26 -4 9 -3 16 2 16 11 0 32 -50 26 -61 -4 -5 1 -9 9
-9 9 0 16 -8 16 -17 0 -10 3 -29 6 -43 3 -14 2 -21 -3 -15 -14 18 -36 17 -29
0 3 -9 6 -20 6 -25 0 -11 33 -7 42 5 4 5 16 -11 27 -35 18 -41 20 -42 20 -17
1 15 -6 39 -15 53 -12 18 -14 28 -6 36 8 8 16 1 28 -26 12 -23 20 -32 25 -24
10 16 23 -35 17 -67 -3 -13 -1 -22 3 -19 5 3 9 19 9 36 0 17 3 28 8 24 7 -8 8
-13 11 -41 0 -8 6 -15 12 -15 6 0 8 9 4 21 -5 15 -4 19 4 15 6 -4 11 -17 12
-29 0 -12 5 -31 10 -42 6 -14 7 -6 3 25 -4 27 -14 50 -25 58 -20 14 -25 32 -9
32 14 0 62 -79 55 -90 -4 -6 -1 -10 4 -10 6 0 11 5 11 10 0 6 6 10 13 9 26 -3
38 1 31 12 -4 8 -9 7 -15 -2 -7 -12 -9 -12 -9 0 0 7 -6 11 -13 8 -9 -3 -11 6
-9 34 3 25 9 39 18 39 8 0 14 -7 14 -15 0 -8 -5 -15 -10 -15 -6 0 -5 -6 2 -14
9 -10 15 -11 20 -3 4 7 11 2 17 -13 l10 -25 1 30 c2 27 3 26 12 -12 5 -24 12
-42 16 -41 17 3 42 -16 42 -32 0 -11 5 -22 10 -25 12 -8 13 1 1 42 -6 21 -6
35 0 39 6 3 8 12 5 19 -3 8 -1 15 4 17 5 2 6 19 1 41 -5 21 -5 39 0 43 5 3 9
-1 10 -8 0 -7 3 -22 6 -33 14 -59 15 -78 2 -86 -9 -6 1 -8 29 -5 26 2 52 12
66 25 l23 22 13 -31 c14 -35 31 -41 23 -7 l-6 22 23 -23 22 -23 24 22 c13 12
24 17 24 11 0 -20 79 -5 115 22 19 14 38 26 44 26 6 0 11 7 11 15 0 8 -7 15
-16 15 -8 0 -12 5 -9 10 3 6 21 10 39 10 18 0 36 3 39 7 4 3 22 7 40 9 19 1
49 5 68 9 43 10 116 16 199 15 41 0 60 3 51 9 -11 7 -9 10 8 16 11 3 25 3 31
0 5 -3 10 -1 10 5 0 7 6 8 19 0 14 -7 22 -7 27 1 3 6 17 9 30 6 14 -2 27 0 30
5 3 4 10 6 15 3 5 -3 24 -2 43 4 24 6 36 6 38 -1 3 -7 12 -7 27 1 15 8 61 12
134 10 132 -3 393 15 457 31 25 7 50 13 55 14 45 12 210 79 288 117 111 54
147 77 192 124 37 38 157 135 168 135 3 0 22 17 44 38 21 20 57 53 78 72 54
48 145 163 182 230 69 122 75 162 78 500 1 168 8 382 14 475 13 183 13 187 31
555 6 135 14 251 16 259 3 8 7 73 9 145 3 72 7 165 9 206 3 41 6 108 7 148 1
39 5 72 8 72 3 0 6 44 7 98 0 93 10 327 19 442 4 54 11 180 20 370 8 159 15
291 20 370 3 41 7 125 10 185 3 61 12 232 20 380 8 149 17 324 20 390 3 66 8
152 10 190 3 39 7 122 10 185 3 63 8 151 10 195 3 44 7 125 10 180 11 216 32
605 40 735 16 278 17 336 4 347 -9 6 -98 13 -224 17 -115 4 -255 9 -310 11
-55 2 -181 7 -280 10 -249 8 -647 23 -915 35 -124 6 -299 12 -390 15 -178 4
-431 13 -545 19 -41 2 -112 -4 -170 -15z m-1737 -1044 c-3 -3 -9 2 -12 12 -6
14 -5 15 5 6 7 -7 10 -15 7 -18z m12 -131 c0 -8 -4 -12 -10 -9 -5 3 -10 10
-10 16 0 5 5 9 10 9 6 0 10 -7 10 -16z m-45 -61 c-4 -52 -6 -53 -15 -13 -7 30
-1 48 17 50 1 0 0 -17 -2 -37z m-33 -8 c-2 -11 -4 -31 -5 -45 -1 -14 -7 -31
-15 -39 -11 -11 -12 -9 -7 11 4 16 1 29 -9 37 -9 8 -16 23 -16 35 1 18 3 16
15 -9 l15 -30 -3 33 c-3 26 0 32 12 30 10 -2 15 -12 13 -23z m13 -114 c-3 -6
-11 -8 -17 -5 -6 4 -5 9 3 15 16 10 23 4 14 -10z m9 -49 c-3 -17 -12 -33 -20
-36 -10 -4 -12 2 -7 27 5 28 22 51 30 43 2 -2 0 -17 -3 -34z m20 -57 c-4 -8
-7 -15 -9 -15 -2 0 -5 7 -9 15 -3 9 0 15 9 15 9 0 12 -6 9 -15z m-34 -5 c0 -5
-4 -10 -10 -10 -5 0 -10 5 -10 10 0 6 5 10 10 10 6 0 10 -4 10 -10z m-3 -42
c-3 -8 -6 -5 -6 6 -1 11 2 17 5 13 3 -3 4 -12 1 -19z m18 -28 c3 -5 1 -10 -4
-10 -6 0 -11 5 -11 10 0 6 2 10 4 10 3 0 8 -4 11 -10z m32 -26 c-3 -3 -12 -4
-19 -1 -8 3 -5 6 6 6 11 1 17 -2 13 -5z m-42 -24 c-3 -5 -13 -6 -21 -3 -12 4
-13 8 -3 14 15 9 32 2 24 -11z m55 -12 c0 -19 -2 -20 -10 -8 -13 19 -13 30 0
30 6 0 10 -10 10 -22z m-133 -14 c-3 -3 -12 -4 -19 -1 -8 3 -5 6 6 6 11 1 17
-2 13 -5z m90 -16 c-3 -8 -6 -5 -6 6 -1 11 2 17 5 13 3 -3 4 -12 1 -19z m-17
-39 c0 -6 -4 -7 -10 -4 -5 3 -10 11 -10 16 0 6 5 7 10 4 6 -3 10 -11 10 -16z
m-85 1 c3 -5 1 -10 -4 -10 -6 0 -11 5 -11 10 0 6 2 10 4 10 3 0 8 -4 11 -10z
m145 -44 c0 -23 -16 -27 -17 -5 -1 10 2 19 8 19 5 0 9 -6 9 -14z m-36 -18 c-3
-4 -12 -8 -20 -8 -8 0 -13 4 -10 8 3 5 12 9 20 9 8 0 13 -4 10 -9z m-38 -45
c-7 -17 -8 -17 -17 0 -12 21 -2 44 13 29 6 -6 8 -19 4 -29z m30 -39 c2 -11 -1
-12 -10 -5 -7 6 -17 7 -22 3 -4 -4 -2 1 5 11 15 19 24 16 27 -9z m-156 -34 c0
-5 -5 -10 -11 -10 -5 0 -7 5 -4 10 3 6 8 10 11 10 2 0 4 -4 4 -10z m166 -27
c-11 -11 -19 6 -11 24 8 17 8 17 12 0 3 -10 2 -21 -1 -24z m-70 -3 c21 0 17
-18 -6 -30 -18 -10 -20 -8 -19 22 0 18 3 27 6 21 2 -7 11 -13 19 -13z m38 4
c4 -10 1 -14 -6 -12 -15 5 -23 28 -10 28 5 0 13 -7 16 -16z m24 -41 c-1 -5 4
-19 11 -31 7 -13 10 -26 7 -30 -3 -3 -6 0 -6 6 0 7 -7 12 -15 12 -9 0 -12 6
-9 15 4 8 1 15 -6 15 -6 0 -8 5 -5 10 7 12 26 14 23 3z m-51 -25 c-3 -8 -6 -5
-6 6 -1 11 2 17 5 13 3 -3 4 -12 1 -19z m-90 -10 c-3 -8 -6 -5 -6 6 -1 11 2
17 5 13 3 -3 4 -12 1 -19z m143 -33 c0 -8 -2 -15 -4 -15 -2 0 -6 7 -10 15 -3
8 -1 15 4 15 6 0 10 -7 10 -15z m30 -15 c0 -5 -2 -10 -4 -10 -3 0 -8 5 -11 10
-3 6 -1 10 4 10 6 0 11 -4 11 -10z m-89 -124 c24 14 79 16 80 2 0 -7 2 -25 4
-40 2 -16 -1 -28 -6 -28 -5 0 -9 6 -10 13 0 6 -4 3 -8 -8 -7 -18 -8 -17 -13 7
-3 15 -2 27 1 26 21 -2 30 4 25 17 -7 16 -34 21 -34 6 0 -5 -7 -11 -14 -14
-11 -4 -13 -1 -9 11 5 12 -1 10 -20 -7 l-27 -24 0 29 c0 20 3 25 9 15 5 -8 14
-10 22 -5z m-68 -30 c-3 -13 0 -33 6 -45 7 -12 8 -21 2 -21 -5 0 -17 -3 -27
-7 -12 -4 -15 -3 -10 5 4 7 2 12 -5 12 -7 0 -5 6 5 13 15 11 16 17 7 35 -15
28 -14 32 8 32 14 0 17 -6 14 -24z m3762 -814 c47 -447 84 -820 81 -828 -10
-27 -25 -14 -31 29 -23 174 -173 1621 -169 1629 22 36 36 -64 119 -830z
m-3735 796 c0 -19 -2 -20 -10 -8 -13 19 -13 30 0 30 6 0 10 -10 10 -22z m65
-8 c-3 -5 -1 -19 5 -30 6 -11 8 -26 3 -33 -5 -8 -9 -4 -14 13 -11 39 -10 72 1
65 6 -4 8 -10 5 -15z m-28 -24 c-3 -7 0 -19 6 -25 13 -13 1 -13 -28 -1 -11 5
-14 9 -7 9 6 1 12 8 12 16 0 8 5 15 11 15 6 0 9 -6 6 -14z m103 -46 c-7 -4 -8
-18 -4 -36 10 -42 -2 -26 -14 19 -6 21 -6 35 -1 32 5 -4 9 4 10 17 l0 23 10
-24 c7 -17 6 -27 -1 -31z m-171 -7 c-13 -17 -13 -17 7 0 24 20 58 23 52 5 -3
-7 -14 -14 -26 -16 -12 -2 -22 -8 -22 -13 0 -6 -5 -7 -10 -4 -6 3 -5 -6 2 -20
7 -15 14 -22 16 -16 2 6 10 11 17 11 7 0 15 7 17 15 2 11 7 12 18 4 11 -8 12
-12 2 -16 -6 -2 -9 -10 -6 -15 4 -6 2 -8 -4 -4 -6 3 -18 -4 -26 -16 -9 -12
-16 -18 -16 -13 0 6 -4 3 -10 -5 -7 -12 -10 -11 -16 5 -4 11 -12 34 -19 50
-13 33 -2 65 24 65 11 0 11 -3 0 -17z m119 -27 c-2 -19 -5 -22 -15 -14 -10 8
-10 14 -2 24 16 20 19 18 17 -10z m9 -52 c-3 -3 -12 -4 -19 -1 -8 3 -5 6 6 6
11 1 17 -2 13 -5z m-20 -49 c-4 -8 -11 -15 -17 -15 -7 0 -7 6 0 21 13 23 26
19 17 -6z m55 -54 c-9 -26 -23 17 -15 46 l7 28 6 -30 c4 -16 4 -36 2 -44z
m-112 43 c0 -9 5 -12 12 -8 8 5 9 2 5 -10 -4 -10 -7 -22 -7 -28 0 -6 -7 -8
-15 -4 -8 3 -15 1 -15 -5 0 -6 -5 -7 -11 -4 -6 4 -7 14 -4 24 4 9 8 23 10 31
2 8 4 16 4 18 3 10 21 -1 21 -14z m97 -73 c10 -31 12 -46 4 -54 -8 -8 -11 -3
-11 19 -1 27 -20 64 -34 64 -3 0 -7 -12 -7 -27 -2 -25 -2 -25 -6 -5 -5 24 13
55 30 49 5 -1 16 -22 24 -46z m-187 29 c0 -7 7 -7 21 0 19 10 20 9 17 -16 -3
-25 -31 -55 -41 -44 -12 13 -18 70 -8 70 6 0 11 -5 11 -10z m114 -57 c-6 -22
-4 -24 15 -18 24 7 28 -7 7 -24 -10 -9 -17 -6 -30 13 -18 29 -21 46 -5 46 5 0
7 5 3 12 -4 7 -3 8 4 4 7 -4 9 -18 6 -33z m-42 -40 c-9 -7 -21 -13 -26 -13 -6
0 -3 7 7 14 9 7 17 22 18 32 0 18 1 18 9 -1 5 -14 3 -24 -8 -32z m24 -52 c-9
-12 -12 -11 -14 3 -2 9 -1 25 3 34 6 15 8 15 15 -3 4 -12 3 -26 -4 -34z m91 7
c-3 -7 -5 -2 -5 12 0 14 2 19 5 13 2 -7 2 -19 0 -25z m-115 0 c2 -15 9 -22 19
-20 15 2 17 -8 15 -80 -3 -107 0 -118 33 -118 20 0 22 -3 11 -9 -8 -6 -17 -8
-21 -6 -3 3 -4 -7 -1 -20 3 -18 0 -25 -10 -25 -11 0 -14 8 -11 28 4 21 2 24
-6 12 -9 -12 -11 -8 -11 20 1 69 -11 184 -19 190 -13 8 -24 50 -12 50 5 0 11
-10 13 -22z m83 -6 c-12 -12 -33 -10 -28 3 2 8 11 11 19 8 8 -3 12 -8 9 -11z
m40 -42 c-10 -11 -20 -18 -23 -15 -7 6 18 35 31 35 5 0 2 -9 -8 -20z m-46 -69
c2 -26 -13 -1 -16 27 -2 23 -1 24 7 7 5 -11 9 -26 9 -34z m44 30 c9 6 17 8 17
5 0 -3 -9 -10 -20 -16 -16 -8 -21 -6 -30 12 -10 20 -9 21 2 6 10 -12 19 -13
31 -7z m4 -71 c1 -11 -2 -18 -8 -15 -11 7 -12 35 -1 35 4 0 8 -9 9 -20z m-62
-29 c3 -5 1 -12 -5 -16 -5 -3 -10 1 -10 9 0 18 6 21 15 7z m72 -72 c2 -16 -1
-19 -9 -11 -5 5 -7 15 -4 21 10 15 12 14 13 -10z m-61 -62 c9 3 14 -1 14 -12
0 -9 -4 -13 -10 -10 -6 4 -7 -1 -3 -11 4 -12 2 -15 -8 -12 -8 2 -15 18 -16 34
-1 16 0 24 3 17 3 -7 12 -9 20 -6z m-34 -102 c8 -7 9 -5 5 7 -7 20 8 34 18 18
7 -12 -23 -65 -32 -57 -3 3 -7 23 -8 44 -2 21 -1 29 2 18 3 -11 10 -24 15 -30z
m62 20 c-4 -8 -8 -15 -10 -15 -2 0 -4 7 -4 15 0 8 4 15 10 15 5 0 7 -7 4 -15z
m-34 -85 c13 -25 13 -25 -8 -6 -12 10 -19 23 -16 28 7 11 7 11 24 -22z m75 0
c-3 -5 -12 -10 -18 -10 -7 0 -6 4 3 10 19 12 23 12 15 0z m-89 -97 c4 -20 1
-33 -5 -33 -6 0 -12 11 -12 25 -3 47 -4 50 -12 56 -4 3 -4 14 0 24 6 17 8 15
16 -10 4 -17 11 -45 13 -62z m-54 55 c6 -17 -1 -38 -13 -38 -5 0 -8 11 -7 25
3 27 13 33 20 13z m138 2 c0 -5 -5 -10 -11 -10 -5 0 -7 5 -4 10 3 6 8 10 11
10 2 0 4 -4 4 -10z m-34 -85 c-11 -8 -25 -15 -30 -15 -6 1 0 7 14 15 32 19 40
18 16 0z m-66 -39 c0 -3 -4 -8 -10 -11 -5 -3 -10 -1 -10 4 0 6 5 11 10 11 6 0
10 -2 10 -4z m85 -6 c3 -5 -1 -10 -10 -10 -9 0 -13 5 -10 10 3 6 8 10 10 10 2
0 7 -4 10 -10z m-35 -9 c0 -5 -7 -12 -16 -15 -14 -5 -15 -4 -4 9 14 17 20 19
20 6z m-20 -38 c0 -5 -11 -9 -25 -9 -14 -1 -22 2 -19 7 6 11 44 12 44 2z m14
-39 c10 -26 7 -34 -14 -34 -13 0 -20 7 -20 18 0 33 23 44 34 16z m26 -103 c0
-10 -3 -11 -14 -2 -7 6 -13 23 -13 38 l0 26 13 -24 c7 -13 13 -30 14 -38z m24
23 c3 -8 2 -12 -4 -9 -6 3 -10 10 -10 16 0 14 7 11 14 -7z m-77 -41 c-3 -10
-5 -2 -5 17 0 19 2 27 5 18 2 -10 2 -26 0 -35z m33 -28 c0 -8 -7 -15 -15 -15
-13 0 -14 3 -3 15 16 18 18 18 18 0z m-93 -27 c-3 -8 -6 -5 -6 6 -1 11 2 17 5
13 3 -3 4 -12 1 -19z m56 -21 c-3 -4 -11 -3 -19 4 -11 9 -12 15 -2 26 10 13
13 12 19 -4 3 -10 4 -22 2 -26z m87 3 c0 -5 -8 -10 -17 -10 -15 0 -16 2 -3 10
19 12 20 12 20 0z m-142 -71 c-7 -4 -18 -3 -25 3 -11 9 -10 14 4 28 17 16 18
16 26 -3 5 -13 3 -23 -5 -28z m42 36 c-7 -9 -15 -13 -19 -10 -3 3 1 10 9 15
21 14 24 12 10 -5z m65 5 c3 -5 1 -10 -4 -10 -6 0 -11 5 -11 10 0 6 2 10 4 10
3 0 8 -4 11 -10z m18 -40 c-29 -43 -39 -45 -29 -5 4 14 13 25 21 25 8 0 15 5
15 10 0 6 4 10 9 10 6 0 -2 -18 -16 -40z m-44 -7 c-1 -23 -3 -29 -6 -16 -5 24
-33 21 -33 -4 0 -8 4 -11 10 -8 6 3 7 -1 4 -9 -8 -22 -21 -20 -35 5 -12 22 0
39 29 39 6 0 12 7 12 15 0 8 5 15 10 15 6 0 9 -17 9 -37z m-76 -50 c-4 -10 -9
-11 -19 -2 -11 9 -12 15 -3 26 14 17 31 -1 22 -24z m128 -8 c2 2 5 -7 5 -20 1
-17 -2 -22 -13 -18 -8 3 -12 12 -9 19 3 8 0 13 -6 11 -6 -1 -13 4 -15 11 -4
11 -1 12 15 3 10 -6 21 -9 23 -6z m-62 -57 c1 -5 -4 -8 -10 -8 -5 0 -8 4 -4 9
3 5 1 12 -5 16 -6 4 -7 11 -3 18 6 10 20 -13 22 -35z m-39 18 c0 -9 -30 -14
-35 -6 -4 6 3 10 14 10 12 0 21 -2 21 -4z m10 -22 c0 -3 -7 -12 -15 -20 -13
-14 -15 -13 -15 5 0 12 6 21 15 21 8 0 15 -3 15 -6z m70 -29 c0 -9 -10 -15
-26 -15 -14 0 -23 4 -19 10 4 6 11 8 16 5 5 -4 9 -1 9 4 0 6 5 11 10 11 6 0
10 -7 10 -15z m-70 -75 c0 -35 -4 -50 -13 -50 -9 0 -12 12 -10 40 2 34 0 38
-14 33 -15 -6 -16 -5 -3 10 28 30 40 20 40 -33z m60 18 c0 -5 -4 -8 -10 -8 -5
0 -10 10 -10 23 0 18 2 19 10 7 5 -8 10 -18 10 -22z m50 7 c0 -14 -4 -25 -9
-25 -4 0 -6 11 -3 25 2 14 6 25 8 25 2 0 4 -11 4 -25z m-83 -17 c-3 -8 -6 -5
-6 6 -1 11 2 17 5 13 3 -3 4 -12 1 -19z m24 -40 c0 -7 3 -26 5 -43 7 -39 -1
-30 -14 18 -6 22 -7 37 -1 37 5 0 9 -6 10 -12z m69 -42 c0 -7 -6 -13 -14 -13
-8 0 -11 8 -8 19 5 19 22 15 22 -6z m-90 -18 c0 -5 -4 -8 -10 -8 -5 0 -10 10
-10 23 0 18 2 19 10 7 5 -8 10 -18 10 -22z m4 -80 c-10 -31 -22 -7 -16 32 5
32 5 33 14 11 4 -13 6 -33 2 -43z m41 33 c2 -11 6 -25 9 -30 3 -5 0 -14 -7
-20 -11 -9 -14 -2 -16 36 -1 47 6 55 14 14z m-160 -41 c3 -5 1 -10 -4 -10 -6
0 -11 5 -11 10 0 6 2 10 4 10 3 0 8 -4 11 -10z m122 -55 c-2 -14 -6 -25 -10
-25 -4 0 -7 2 -7 5 0 3 0 14 0 25 0 11 5 20 10 20 6 0 9 -11 7 -25z m34 -85
c5 0 9 -4 9 -8 0 -5 -6 -9 -14 -9 -8 0 -14 5 -13 11 1 6 -8 10 -20 9 -13 -2
-23 2 -23 7 0 6 7 10 15 10 8 0 15 8 16 18 0 11 4 7 11 -10 5 -16 14 -28 19
-28z m-82 -13 c-10 -18 -12 -19 -21 -4 -11 21 -2 38 17 31 12 -5 12 -10 4 -27z
m57 -22 c10 -26 -1 -35 -13 -10 -6 14 -7 25 -2 25 5 0 12 -7 15 -15z m-46 -5
c0 -5 -5 -10 -11 -10 -5 0 -7 5 -4 10 3 6 8 10 11 10 2 0 4 -4 4 -10z m-58
-30 c6 0 8 -9 5 -20 -3 -11 -2 -20 1 -20 4 0 8 -12 9 -27 4 -54 10 -83 16 -90
8 -8 9 -43 1 -43 -14 0 -34 29 -24 35 6 4 8 11 5 16 -9 13 -15 48 -17 96 -2
33 -5 40 -15 31 -15 -12 -18 8 -6 39 7 17 8 17 11 1 2 -10 8 -18 14 -18z m86
-17 c24 5 25 4 8 -8 -9 -7 -17 -24 -16 -37 1 -13 2 -39 1 -58 -1 -26 -4 -31
-11 -20 -5 8 -6 34 -3 57 5 38 4 43 -14 43 -12 0 -23 8 -26 20 -3 11 -1 18 3
15 5 -3 12 0 17 7 5 10 9 8 11 -5 3 -15 10 -18 30 -14z m67 17 c3 -5 1 -10 -4
-10 -6 0 -11 5 -11 10 0 6 2 10 4 10 3 0 8 -4 11 -10z m-48 -82 c-3 -7 -5 -2
-5 12 0 14 2 19 5 13 2 -7 2 -19 0 -25z m53 -28 c0 -5 -4 -10 -10 -10 -5 0
-10 5 -10 10 0 6 5 10 10 10 6 0 10 -4 10 -10z m-34 -25 c1 -8 -2 -15 -7 -15
-5 0 -9 10 -9 22 0 23 12 17 16 -7z m-7 -82 c1 -16 -3 -21 -13 -17 -9 3 -12
12 -9 21 4 11 2 14 -5 9 -8 -5 -12 0 -12 13 0 10 6 21 13 24 14 5 25 -17 26
-50z m47 27 c8 0 14 -5 14 -10 0 -7 -6 -7 -20 0 -11 6 -20 16 -19 23 0 9 2 9
6 0 2 -7 11 -13 19 -13z m-86 -55 c0 -5 -5 -3 -10 5 -5 8 -10 20 -10 25 0 6 5
3 10 -5 5 -8 10 -19 10 -25z m50 -55 c0 -21 -4 -41 -9 -44 -10 -7 -22 59 -14
80 9 25 23 4 23 -36z m40 26 c0 -3 -4 -8 -10 -11 -5 -3 -10 -1 -10 4 0 6 5 11
10 11 6 0 10 -2 10 -4z m-94 -29 c-17 -12 -17 -15 -2 -29 18 -18 22 -33 6 -23
-5 3 -10 -2 -10 -12 0 -16 -1 -16 -17 1 -13 13 -14 20 -6 23 7 2 9 11 6 20 -3
8 0 19 8 24 22 14 35 10 15 -4z m78 -111 c-3 -8 0 -25 6 -38 11 -22 10 -22 -4
-4 -17 21 -20 38 -9 49 10 11 13 8 7 -7z m-87 -31 c1 -25 -3 -38 -16 -45 -20
-10 -21 -55 -2 -104 12 -31 6 -66 -11 -66 -6 0 -8 13 -6 29 2 17 1 28 -4 25
-7 -4 -13 35 -9 59 1 4 -3 17 -9 28 -9 15 -7 21 7 26 32 12 41 27 32 50 -5 14
-4 23 4 27 7 2 12 5 12 5 0 1 1 -15 2 -34z m46 11 c3 3 3 -3 0 -15 -6 -24 -18
-20 -26 9 -4 16 -2 19 7 11 7 -6 15 -8 19 -5z m-3 -72 c0 -8 -4 -14 -9 -14 -6
0 -9 9 -8 19 1 22 17 18 17 -5z m-47 -19 c-7 -21 -13 -19 -13 6 0 11 4 18 10
14 5 -3 7 -12 3 -20z m45 -25 c-7 -11 -18 -22 -25 -24 -14 -6 -29 12 -19 21 3
4 6 0 6 -8 0 -8 6 -4 16 9 19 27 39 29 22 2z m32 -19 c0 -6 -4 -13 -10 -16 -5
-3 -10 1 -10 9 0 9 5 16 10 16 6 0 10 -4 10 -9z m-36 -36 c-4 -8 -10 -12 -15
-9 -14 8 -10 24 6 24 9 0 12 -6 9 -15z m-137 -37 c-3 -8 -6 -5 -6 6 -1 11 2
17 5 13 3 -3 4 -12 1 -19z m123 -8 c0 -5 -4 -10 -10 -10 -5 0 -10 5 -10 10 0
6 5 10 10 10 6 0 10 -4 10 -10z m-31 -71 c-5 -3 0 -16 11 -29 24 -28 25 -36 4
-44 -26 -10 -38 -7 -27 7 13 15 9 46 -8 61 -9 8 -10 6 -5 -9 6 -16 5 -17 -5
-8 -9 9 -9 19 1 43 l13 32 13 -23 c7 -14 9 -26 3 -30z m41 19 c0 -4 -6 -5 -14
-2 -8 3 -12 12 -9 21 5 12 7 12 14 1 5 -7 9 -16 9 -20z m34 -43 c-4 -15 -1
-24 8 -27 9 -2 12 -13 8 -33 -5 -29 -6 -27 -23 24 -16 52 -15 77 4 66 5 -4 6
-17 3 -30z m-122 -3 c5 -22 -17 -67 -26 -53 -12 18 -3 79 10 74 7 -2 14 -12
16 -21z m88 18 c0 -5 -5 -10 -11 -10 -5 0 -7 5 -4 10 3 6 8 10 11 10 2 0 4 -4
4 -10z m80 -14 c0 -2 -7 -7 -16 -10 -8 -3 -12 -2 -9 4 6 10 25 14 25 6z m-146
-71 c8 -33 -3 -82 -15 -64 -4 8 -3 16 3 20 8 5 8 16 0 38 -6 17 -7 31 -3 31 5
0 12 -11 15 -25z m153 -27 c-3 -8 -6 -5 -6 6 -1 11 2 17 5 13 3 -3 4 -12 1
-19z m-207 -69 c0 -5 -4 -9 -10 -9 -5 0 -10 7 -10 16 0 8 5 12 10 9 6 -3 10
-10 10 -16z m180 -5 c0 -8 -9 -14 -20 -14 -18 0 -19 3 -10 20 12 22 30 18 30
-6z m-57 -43 c-4 -17 -8 -19 -14 -9 -12 18 -11 31 1 23 6 -3 10 -1 10 6 0 7 2
10 5 8 2 -3 2 -15 -2 -28z m37 9 c0 -5 -4 -10 -10 -10 -5 0 -10 5 -10 10 0 6
5 10 10 10 6 0 10 -4 10 -10z m-62 -46 l-4 -29 -12 28 c-13 31 -7 56 10 39 5
-5 8 -22 6 -38z m62 7 c0 -5 -7 -12 -16 -15 -14 -5 -15 -4 -4 9 14 17 20 19
20 6z m30 -42 c0 -5 -4 -9 -10 -9 -5 0 -10 7 -10 16 0 8 5 12 10 9 6 -3 10
-10 10 -16z m-42 -44 c-2 -1 -14 -6 -28 -9 l-25 -7 23 20 c12 10 23 25 23 33
1 7 4 2 6 -10 3 -13 3 -25 1 -27z m46 -20 c-4 -8 -10 -12 -15 -9 -11 6 -2 24
11 24 5 0 7 -7 4 -15z m-1 -40 c-3 -9 -8 -14 -10 -11 -3 3 -2 9 2 15 9 16 15
13 8 -4z m-133 -5 c0 -5 -4 -10 -10 -10 -5 0 -10 5 -10 10 0 6 5 10 10 10 6 0
10 -4 10 -10z m150 -53 c0 -18 -2 -19 -10 -7 -13 20 -13 43 0 35 6 -3 10 -16
10 -28z m-77 -35 c-3 -15 -6 -32 -6 -39 0 -9 -4 -10 -12 -3 -14 12 -17 63 -4
54 5 -3 9 2 9 11 0 9 5 13 10 10 6 -3 7 -18 3 -33z m30 8 c-7 -28 -13 -25 -13
6 0 14 4 23 9 20 5 -3 7 -15 4 -26z m46 -77 c0 -25 -1 -26 -9 -8 -12 27 -12
35 0 35 6 0 10 -12 9 -27z m-76 0 c-7 -2 -13 -11 -13 -19 0 -8 -7 -14 -15 -14
-12 0 -12 3 2 20 10 11 22 20 28 19 5 0 4 -3 -2 -6z m10 -55 c-2 -5 -10 -8
-18 -8 -7 0 -16 -8 -18 -17 -3 -12 -5 -8 -6 8 -1 22 3 27 23 25 13 0 22 -4 19
-8z m47 -33 c0 -8 -6 -14 -12 -12 -7 1 -14 -8 -16 -21 -3 -17 2 -25 17 -29 15
-4 18 -9 12 -21 -5 -8 -7 -24 -4 -36 2 -12 -8 6 -21 39 -29 70 -32 89 -11 82
8 -4 17 -2 20 3 9 14 15 12 15 -5z m-50 -210 c0 -33 -4 -55 -11 -55 -6 0 -8
11 -4 28 3 16 1 41 -4 55 -9 22 -8 27 4 27 11 0 15 -13 15 -55z m70 6 c0 -5 3
-18 6 -28 6 -16 5 -16 -9 2 -19 23 -21 35 -7 35 6 0 10 -4 10 -9z m-60 -81 c0
-5 -4 -10 -9 -10 -13 0 -6 -119 8 -133 8 -8 11 -8 11 1 0 7 6 11 13 10 7 -2
11 6 10 22 l-3 25 10 -24 c13 -30 6 -53 -14 -45 -8 3 -17 0 -22 -7 -5 -9 -10
-8 -16 7 -5 12 -6 7 -2 -16 3 -19 6 -45 5 -57 0 -11 6 -24 14 -27 19 -7 19
-26 0 -26 -17 0 -30 43 -19 62 6 10 4 10 -9 -1 -17 -14 -21 -6 -20 37 1 6 -4
12 -11 12 -6 0 -3 7 8 15 13 10 17 21 12 40 -10 39 4 125 20 125 8 0 14 -4 14
-10z m-68 -27 c14 -36 17 -64 6 -57 -5 3 -6 -7 -2 -21 5 -21 4 -27 -7 -23 -10
3 -15 25 -17 66 -3 67 2 77 20 35z m98 -29 c-6 -6 -7 -14 -3 -17 3 -4 1 -7 -5
-7 -14 0 -14 5 -5 38 4 17 8 20 14 11 4 -7 4 -18 -1 -25z m25 -174 c-3 -5 -10
-10 -16 -10 -5 0 -9 5 -9 10 0 6 7 10 16 10 8 0 12 -4 9 -10z m15 -55 c0 -8
-4 -15 -10 -15 -5 0 -7 7 -4 15 4 8 8 15 10 15 2 0 4 -7 4 -15z m-36 -31 c3
-8 2 -12 -4 -9 -6 3 -10 10 -10 16 0 14 7 11 14 -7z m40 -49 c-4 -8 -10 -15
-15 -15 -4 0 -6 7 -3 15 4 8 10 15 15 15 4 0 6 -7 3 -15z m126 -257 c0 -5 -4
-8 -10 -8 -5 0 -10 10 -10 23 0 18 2 19 10 7 5 -8 10 -18 10 -22z m13 -35 c-3
-7 -9 -13 -14 -13 -5 0 -9 6 -9 13 0 8 6 14 14 14 8 0 12 -6 9 -14z m82 -53
c3 -5 1 -10 -4 -10 -6 0 -11 5 -11 10 0 6 2 10 4 10 3 0 8 -4 11 -10z m59 -62
c14 -9 1 -22 -13 -13 -6 3 -11 16 -10 28 0 15 2 17 6 7 3 -8 11 -18 17 -22z
m133 -90 c-3 -8 -6 -5 -6 6 -1 11 2 17 5 13 3 -3 4 -12 1 -19z m103 -118 c0
-5 -4 -10 -10 -10 -5 0 -10 5 -10 10 0 6 5 10 10 10 6 0 10 -4 10 -10z m80
-16 c0 -8 -4 -14 -10 -14 -5 0 -10 9 -10 21 0 11 5 17 10 14 6 -3 10 -13 10
-21z m-46 -46 c19 -37 19 -38 6 -38 -5 0 -10 7 -10 15 0 8 -4 15 -9 15 -5 0
-11 9 -14 20 -8 31 10 24 27 -12z m101 12 c3 -5 -1 -10 -10 -10 -9 0 -13 5
-10 10 3 6 8 10 10 10 2 0 7 -4 10 -10z m-55 -4 c0 -3 -4 -8 -10 -11 -5 -3
-10 -1 -10 4 0 6 5 11 10 11 6 0 10 -2 10 -4z m110 -72 c0 -8 -4 -12 -10 -9
-5 3 -10 10 -10 16 0 5 5 9 10 9 6 0 10 -7 10 -16z m87 -35 c13 -24 16 -36 8
-29 -17 14 -46 70 -37 70 4 0 17 -19 29 -41z m-113 -1 c-3 -4 2 -5 10 -2 9 3
16 2 16 -3 0 -5 -9 -9 -20 -10 -15 -1 -20 4 -20 25 0 20 3 23 9 12 6 -8 7 -18
5 -22z m33 -50 c-3 -8 -6 -5 -6 6 -1 11 2 17 5 13 3 -3 4 -12 1 -19z m76 -45
c-5 -21 -18 -10 -19 17 -1 42 10 58 16 25 4 -16 5 -36 3 -42z m-96 35 c-3 -8
-6 -5 -6 6 -1 11 2 17 5 13 3 -3 4 -12 1 -19z m55 0 c-7 -7 -12 -8 -12 -2 0
14 12 26 19 19 2 -3 -1 -11 -7 -17z m73 -8 c3 -5 1 -10 -4 -10 -6 0 -11 5 -11
10 0 6 2 10 4 10 3 0 8 -4 11 -10z m-148 -20 c1 -11 -2 -18 -8 -15 -11 7 -12
35 -1 35 4 0 8 -9 9 -20z m262 -7 c0 -25 -1 -26 -9 -8 -12 27 -12 35 0 35 6 0
10 -12 9 -27z m-95 -70 c4 -13 5 -23 1 -23 -3 0 -10 10 -15 23 -8 21 -9 21 -9
-6 -1 -37 -16 -27 -19 13 -5 60 23 55 42 -7z m35 -20 c-1 -31 -4 -65 -8 -75
-6 -16 -9 -15 -34 11 l-27 30 22 7 c31 9 38 22 31 56 -3 17 -1 28 5 28 7 0 11
-22 11 -57z m124 27 c3 -11 1 -20 -4 -20 -5 0 -9 9 -9 20 0 11 2 20 4 20 2 0
6 -9 9 -20z m-13 -34 c0 -3 -4 -8 -10 -11 -5 -3 -10 -1 -10 4 0 6 5 11 10 11
6 0 10 -2 10 -4z m118 -71 c7 -15 8 -26 1 -30 -5 -4 -7 -11 -4 -16 3 -5 -1 -6
-10 -2 -11 4 -13 8 -5 13 7 5 8 14 1 33 -13 34 2 36 17 2z m66 -61 c3 -8 2
-12 -4 -9 -6 3 -10 10 -10 16 0 14 7 11 14 -7z m61 -4 c-3 -5 -11 -10 -16 -10
-6 0 -7 5 -4 10 3 6 11 10 16 10 6 0 7 -4 4 -10z m29 -60 l7 -25 -14 24 c-8
13 -16 19 -18 13 -2 -6 -10 -4 -19 6 -13 14 -12 15 3 9 10 -4 17 -2 17 5 0 19
17 -4 24 -32z m-73 3 c-12 -20 -14 -14 -5 12 4 9 9 14 11 11 3 -2 0 -13 -6
-23z m296 -65 c-3 -8 -6 -5 -6 6 -1 11 2 17 5 13 3 -3 4 -12 1 -19z"/>
<path d="M990 7292 c0 -5 7 -9 15 -9 8 0 12 4 9 9 -3 4 -9 8 -15 8 -5 0 -9 -4
-9 -8z"/>
<path d="M868 7173 c6 -2 18 -2 25 0 6 3 1 5 -13 5 -14 0 -19 -2 -12 -5z"/>
<path d="M537 6918 c6 -11 41 -10 48 2 3 5 -7 8 -24 7 -16 -1 -27 -5 -24 -9z"/>
<path d="M643 6910 c3 -10 1 -21 -4 -24 -5 -2 -4 -3 3 -2 17 3 23 46 8 46 -7
0 -10 -8 -7 -20z"/>
<path d="M500 6840 c0 -5 7 -10 16 -10 8 0 12 5 9 10 -3 6 -10 10 -16 10 -5 0
-9 -4 -9 -10z"/>
<path d="M371 6784 c0 -11 3 -14 6 -6 3 7 2 16 -1 19 -3 4 -6 -2 -5 -13z"/>
<path d="M587 6773 c10 -3 10 -7 0 -18 -7 -7 -15 -11 -18 -9 -4 2 -9 -2 -12
-9 -4 -10 2 -13 19 -9 14 2 22 7 19 10 -3 3 2 14 12 24 15 17 15 18 -8 17 -13
0 -19 -3 -12 -6z"/>
<path d="M483 6735 c0 -8 4 -12 9 -9 5 3 6 10 3 15 -9 13 -12 11 -12 -6z"/>
<path d="M510 6739 c0 -5 5 -7 10 -4 6 3 10 8 10 11 0 2 -4 4 -10 4 -5 0 -10
-5 -10 -11z"/>
<path d="M425 6730 c-3 -6 1 -7 9 -4 18 7 21 14 7 14 -6 0 -13 -4 -16 -10z"/>
<path d="M610 6716 c0 -15 -19 -21 -45 -16 -6 1 -5 -3 1 -10 14 -14 64 -2 64
15 0 8 -4 17 -10 20 -5 3 -10 -1 -10 -9z"/>
<path d="M335 6700 c-3 -5 -1 -10 4 -10 6 0 11 5 11 10 0 6 -2 10 -4 10 -3 0
-8 -4 -11 -10z"/>
<path d="M528 6683 c7 -3 16 -2 19 1 4 3 -2 6 -13 5 -11 0 -14 -3 -6 -6z"/>
<path d="M497 6664 c-5 -5 -28 -11 -49 -13 -5 -1 -8 -8 -8 -16 0 -19 9 -19 34
0 14 10 22 12 27 4 4 -7 8 -5 12 5 6 15 -5 30 -16 20z"/>
<path d="M530 6663 c0 -21 12 -43 21 -37 5 2 18 0 30 -7 13 -6 19 -7 15 -1 -3
6 3 13 14 17 11 3 20 11 20 16 0 6 -4 8 -9 5 -5 -4 -12 0 -14 6 -3 7 -6 4 -7
-7 -1 -19 -1 -19 -11 -2 -6 9 -15 15 -20 12 -5 -4 -7 -11 -4 -16 11 -16 -7 -9
-21 9 -7 9 -14 12 -14 5z"/>
<path d="M410 6629 c0 -5 5 -7 10 -4 6 3 10 8 10 11 0 2 -4 4 -10 4 -5 0 -10
-5 -10 -11z"/>
<path d="M390 6606 c0 -8 4 -17 9 -20 5 -4 7 3 4 14 -6 23 -13 26 -13 6z"/>
<path d="M245 6600 c-3 -5 -1 -10 4 -10 6 0 11 5 11 10 0 6 -2 10 -4 10 -3 0
-8 -4 -11 -10z"/>
<path d="M365 6570 c-3 -6 1 -7 9 -4 18 7 21 14 7 14 -6 0 -13 -4 -16 -10z"/>
<path d="M396 6555 c-3 -9 0 -15 9 -15 16 0 20 16 6 24 -5 3 -11 -1 -15 -9z"/>
<path d="M454 6529 c-3 -6 -2 -15 3 -20 5 -5 9 -1 9 11 0 23 -2 24 -12 9z"/>
<path d="M417 6523 c-11 -10 -8 -43 3 -43 6 0 10 11 10 25 0 26 -2 29 -13 18z"/>
<path d="M366 6485 c-19 -14 -14 -35 9 -35 8 0 17 5 21 12 5 8 2 9 -9 5 -10
-3 -17 -2 -17 2 0 5 6 11 13 14 6 2 10 7 7 10 -3 3 -13 -1 -24 -8z"/>
<path d="M460 6480 c0 -5 5 -10 11 -10 5 0 7 5 4 10 -3 6 -8 10 -11 10 -2 0
-4 -4 -4 -10z"/>
<path d="M515 6468 c-16 -16 -17 -18 -2 -13 10 4 17 2 17 -4 0 -19 17 -12 23
9 3 11 1 18 -3 15 -5 -3 -10 -1 -12 3 -1 5 -12 0 -23 -10z"/>
<path d="M421 6435 c0 -23 -6 -46 -13 -53 -9 -9 -9 -15 0 -24 9 -9 12 -9 12 0
0 7 6 12 14 12 13 0 15 22 3 50 -3 8 -8 24 -10 35 -3 11 -5 2 -6 -20z"/>
<path d="M469 6459 c0 -2 -2 -13 -4 -23 -2 -10 3 -25 11 -33 12 -12 13 -10 7
19 -5 30 -12 47 -14 37z"/>
<path d="M515 6419 c-4 -6 -5 -12 -2 -15 2 -3 7 2 10 11 7 17 1 20 -8 4z"/>
<path d="M140 6410 c-9 -6 -10 -10 -3 -10 6 0 15 5 18 10 8 12 4 12 -15 0z"/>
<path d="M390 6409 c0 -5 5 -7 10 -4 6 3 10 8 10 11 0 2 -4 4 -10 4 -5 0 -10
-5 -10 -11z"/>
<path d="M268 6373 c7 -3 16 -2 19 1 4 3 -2 6 -13 5 -11 0 -14 -3 -6 -6z"/>
<path d="M458 6315 c-6 -48 -6 -49 22 -40 18 6 19 8 6 18 -8 7 -16 23 -18 37
-3 19 -5 16 -10 -15z"/>
<path d="M490 6329 c0 -15 18 -19 23 -6 3 8 -1 14 -9 14 -8 0 -14 -4 -14 -8z"/>
<path d="M333 6274 c1 -17 8 -31 15 -31 15 0 15 -1 -3 33 l-15 29 3 -31z"/>
<path d="M422 6281 c-11 -7 -11 -9 2 -14 10 -4 16 -1 16 8 0 17 -1 17 -18 6z"/>
<path d="M269 6270 c-6 -33 -4 -50 8 -50 8 0 12 4 8 9 -3 5 5 17 17 25 12 9
17 16 11 16 -7 0 -15 -5 -19 -11 -4 -8 -9 -7 -15 2 -5 8 -9 12 -10 9z"/>
<path d="M391 6244 c0 -11 3 -14 6 -6 3 7 2 16 -1 19 -3 4 -6 -2 -5 -13z"/>
<path d="M387 6194 c6 -15 23 -19 23 -5 0 5 -7 11 -14 14 -10 4 -13 1 -9 -9z"/>
<path d="M362 6163 c0 -33 1 -35 10 -17 6 14 7 28 1 39 -8 13 -10 8 -11 -22z"/>
<path d="M310 6145 c0 -19 4 -23 17 -18 11 4 13 8 5 11 -10 3 -10 7 -1 18 9
11 8 14 -5 14 -10 0 -16 -9 -16 -25z"/>
<path d="M156 6148 c3 -5 10 -6 15 -3 13 9 11 12 -6 12 -8 0 -12 -4 -9 -9z"/>
<path d="M400 6153 c0 -5 5 -15 10 -23 8 -12 10 -11 10 8 0 12 -4 22 -10 22
-5 0 -10 -3 -10 -7z"/>
<path d="M325 6089 c-4 -6 -5 -12 -2 -15 2 -3 7 2 10 11 7 17 1 20 -8 4z"/>
<path d="M200 6060 c0 -5 5 -10 11 -10 5 0 7 5 4 10 -3 6 -8 10 -11 10 -2 0
-4 -4 -4 -10z"/>
<path d="M357 6063 c-4 -3 -7 -11 -7 -17 0 -6 5 -5 12 2 6 6 9 14 7 17 -3 3
-9 2 -12 -2z"/>
<path d="M266 6043 c-6 -14 -5 -15 5 -6 7 7 10 15 7 18 -3 3 -9 -2 -12 -12z"/>
<path d="M378 6023 c7 -3 16 -2 19 1 4 3 -2 6 -13 5 -11 0 -14 -3 -6 -6z"/>
<path d="M490 6006 c0 -8 4 -17 9 -20 5 -4 7 3 4 14 -6 23 -13 26 -13 6z"/>
<path d="M381 5993 c0 -12 2 -14 6 -4 5 11 7 11 15 0 8 -12 9 -12 6 0 -6 22
-28 25 -27 4z"/>
<path d="M310 5999 c0 -4 7 -20 15 -35 8 -16 15 -22 15 -13 0 14 -29 61 -30
48z"/>
<path d="M280 5960 c-12 -7 -10 -9 8 -7 12 0 22 5 22 9 0 11 -12 10 -30 -2z"/>
<path d="M394 5957 c26 -11 27 -14 12 -26 -23 -19 -20 -34 6 -25 19 6 21 4 12
-7 -17 -20 2 -67 19 -50 9 9 9 14 -2 20 -8 5 -11 16 -8 25 4 9 4 30 0 46 -5
26 -10 30 -37 30 l-31 -1 29 -12z"/>
<path d="M221 5944 c0 -11 3 -14 6 -6 3 7 2 16 -1 19 -3 4 -6 -2 -5 -13z"/>
<path d="M91 5914 c0 -11 3 -14 6 -6 3 7 2 16 -1 19 -3 4 -6 -2 -5 -13z"/>
<path d="M65 5910 c-3 -5 -1 -10 4 -10 6 0 11 5 11 10 0 6 -2 10 -4 10 -3 0
-8 -4 -11 -10z"/>
<path d="M348 5860 c6 -43 20 -47 19 -5 -1 19 -6 35 -12 35 -7 0 -10 -12 -7
-30z"/>
<path d="M309 5853 c-13 -15 -12 -15 9 -4 23 12 28 21 13 21 -5 0 -15 -7 -22
-17z"/>
<path d="M215 5830 c-3 -5 -1 -10 4 -10 6 0 11 5 11 10 0 6 -2 10 -4 10 -3 0
-8 -4 -11 -10z"/>
<path d="M423 5820 c-13 -5 -23 -12 -23 -15 0 -4 5 -3 11 0 6 4 10 1 8 -6 -3
-26 1 -40 11 -34 5 3 6 13 3 22 -5 12 -2 15 10 10 12 -5 17 -1 17 13 0 22 -4
23 -37 10z"/>
<path d="M383 5771 c1 -14 9 -26 17 -28 12 -4 12 -3 2 5 -8 5 -13 12 -12 16 1
4 -1 12 -4 19 -3 6 -4 1 -3 -12z"/>
<path d="M570 5765 c0 -8 2 -15 4 -15 2 0 6 7 10 15 3 8 1 15 -4 15 -6 0 -10
-7 -10 -15z"/>
<path d="M290 5755 c0 -8 5 -15 10 -15 6 0 10 7 10 15 0 8 -4 15 -10 15 -5 0
-10 -7 -10 -15z"/>
<path d="M355 5753 c4 -10 12 -30 17 -45 5 -16 14 -25 19 -22 5 3 0 23 -11 45
-20 39 -39 55 -25 22z"/>
<path d="M452 5746 c1 -10 8 -17 13 -17 15 1 12 24 -3 29 -9 3 -13 -2 -10 -12z"/>
<path d="M318 5723 c7 -3 16 -2 19 1 4 3 -2 6 -13 5 -11 0 -14 -3 -6 -6z"/>
<path d="M130 5709 c0 -5 5 -7 10 -4 6 3 10 8 10 11 0 2 -4 4 -10 4 -5 0 -10
-5 -10 -11z"/>
<path d="M340 5690 c0 -11 4 -20 9 -20 5 0 7 9 4 20 -3 11 -7 20 -9 20 -2 0
-4 -9 -4 -20z"/>
<path d="M213 5675 c-8 -9 -9 -16 -3 -20 6 -3 13 1 16 10 9 21 2 26 -13 10z"/>
<path d="M161 5654 c0 -11 3 -14 6 -6 3 7 2 16 -1 19 -3 4 -6 -2 -5 -13z"/>
<path d="M318 5633 c-20 -5 -24 -28 -7 -39 7 -4 10 -1 7 7 -3 8 4 19 16 26 21
12 16 14 -16 6z"/>
<path d="M375 5630 c-3 -5 1 -10 10 -10 9 0 13 5 10 10 -3 6 -8 10 -10 10 -2
0 -7 -4 -10 -10z"/>
<path d="M345 5593 c3 -15 18 -39 32 -53 20 -19 25 -21 20 -7 -4 10 -7 23 -7
28 0 4 -7 6 -15 3 -11 -5 -15 1 -15 25 0 17 -5 31 -11 31 -7 0 -9 -10 -4 -27z"/>
<path d="M420 5554 c0 -8 5 -12 10 -9 6 3 10 10 10 16 0 5 -4 9 -10 9 -5 0
-10 -7 -10 -16z"/>
<path d="M310 5521 c-12 -24 -13 -34 -1 -27 9 6 22 46 15 46 -2 0 -8 -9 -14
-19z"/>
<path d="M146 5515 c-3 -8 -1 -15 4 -15 6 0 10 7 10 15 0 8 -2 15 -4 15 -2 0
-6 -7 -10 -15z"/>
<path d="M232 5505 c0 -31 13 -71 20 -60 3 6 0 26 -8 45 -7 21 -12 27 -12 15z"/>
<path d="M357 5513 c-7 -11 10 -40 18 -31 4 4 3 14 -3 24 -5 9 -12 12 -15 7z"/>
<path d="M374 5455 c-6 -13 -19 -20 -36 -20 -16 0 -28 -3 -28 -7 0 -5 0 -17 0
-29 0 -11 4 -18 10 -14 5 3 7 12 3 20 -4 11 3 15 26 15 32 0 47 17 38 42 -3 9
-8 6 -13 -7z"/>
<path d="M175 5409 c-10 -15 3 -25 16 -12 7 7 7 13 1 17 -6 3 -14 1 -17 -5z"/>
<path d="M387 5396 c-3 -8 -2 -18 3 -21 13 -8 24 15 12 27 -6 6 -11 4 -15 -6z"/>
<path d="M253 5383 c-21 -8 -15 -22 7 -16 11 3 20 9 20 14 0 10 -8 10 -27 2z"/>
<path d="M360 5373 c0 -13 5 -23 10 -23 13 0 13 11 0 30 -8 12 -10 11 -10 -7z"/>
<path d="M181 5364 c0 -11 3 -14 6 -6 3 7 2 16 -1 19 -3 4 -6 -2 -5 -13z"/>
<path d="M331 5354 c0 -11 3 -14 6 -6 3 7 2 16 -1 19 -3 4 -6 -2 -5 -13z"/>
<path d="M360 5315 c-7 -8 -19 -15 -26 -15 -21 0 -17 -17 6 -23 20 -5 60 25
60 45 0 14 -27 9 -40 -7z"/>
<path d="M230 5285 c0 -5 4 -16 9 -24 10 -15 31 -7 30 12 0 8 -2 8 -6 -1 -4
-10 -8 -9 -19 5 -7 10 -13 14 -14 8z"/>
<path d="M171 5244 c0 -11 3 -14 6 -6 3 7 2 16 -1 19 -3 4 -6 -2 -5 -13z"/>
<path d="M369 5250 c-3 -8 -3 -25 0 -37 5 -17 10 -20 21 -13 11 7 12 12 4 18
-7 4 -13 16 -16 27 -3 15 -5 16 -9 5z"/>
<path d="M469 5223 c-4 -26 -4 -39 2 -48 3 -5 9 -18 13 -29 5 -14 2 -17 -9
-12 -9 3 -13 2 -10 -4 3 -6 2 -10 -3 -10 -6 0 -8 -10 -4 -22 3 -14 2 -19 -6
-14 -7 4 -12 19 -12 34 -1 22 -2 24 -10 11 -6 -10 -8 -31 -6 -48 2 -17 -1 -31
-5 -31 -5 0 -9 14 -9 31 0 17 -4 28 -10 24 -14 -9 -12 -44 3 -60 16 -15 43 -3
33 14 -5 7 1 11 13 11 13 0 21 7 21 17 0 15 2 14 16 -3 10 -12 14 -14 11 -4
-2 8 0 25 4 38 5 13 5 22 -1 22 -15 0 -12 50 3 51 6 0 2 4 -11 10 -13 5 -20
13 -17 19 3 5 4 10 1 10 -3 0 -7 -3 -7 -7z"/>
<path d="M270 5173 c0 -14 3 -23 7 -19 10 10 11 46 1 46 -4 0 -8 -12 -8 -27z"/>
<path d="M335 5150 c12 -41 27 -60 20 -25 -4 17 -11 35 -17 40 -7 7 -8 2 -3
-15z"/>
<path d="M382 5151 c-11 -7 -11 -9 2 -14 10 -4 16 -1 16 8 0 17 -1 17 -18 6z"/>
<path d="M220 5129 c0 -5 5 -7 10 -4 6 3 10 8 10 11 0 2 -4 4 -10 4 -5 0 -10
-5 -10 -11z"/>
<path d="M300 5115 c0 -15 18 -40 24 -34 3 3 -1 14 -9 25 -8 10 -14 15 -15 9z"/>
<path d="M230 5092 c0 -12 4 -22 9 -22 10 0 9 26 -2 36 -4 4 -7 -2 -7 -14z"/>
<path d="M518 5070 c-1 -5 -15 -11 -30 -12 -26 -2 -27 -5 -22 -42 2 -21 7 -43
10 -48 3 -4 2 -17 -1 -29 -5 -15 -10 -17 -20 -9 -9 7 -18 6 -32 -7 -17 -16
-18 -23 -9 -60 7 -24 15 -39 21 -35 13 9 19 46 7 38 -5 -3 -14 5 -20 18 -9 20
-8 25 6 31 9 3 18 1 20 -4 2 -7 10 -8 21 -1 10 5 21 6 25 3 3 -3 6 5 6 20 0
14 -4 28 -9 32 -17 10 -7 47 16 58 14 6 23 19 23 34 0 24 -6 30 -12 13z"/>
<path d="M352 5058 c-11 -14 -5 -68 8 -68 4 0 7 18 7 40 0 44 0 45 -15 28z"/>
<path d="M91 5024 c0 -11 3 -14 6 -6 3 7 2 16 -1 19 -3 4 -6 -2 -5 -13z"/>
<path d="M262 5004 c1 -38 1 -39 10 -11 7 19 7 32 0 39 -7 7 -10 -3 -10 -28z"/>
<path d="M382 5010 c0 -14 2 -19 5 -12 2 6 2 18 0 25 -3 6 -5 1 -5 -13z"/>
<path d="M160 5008 c0 -7 5 -20 10 -28 8 -12 10 -9 10 13 0 15 -4 27 -10 27
-5 0 -10 -6 -10 -12z"/>
<path d="M424 5004 c3 -9 6 -23 6 -32 0 -12 3 -13 11 -5 13 13 3 53 -13 53 -5
0 -7 -7 -4 -16z"/>
<path d="M310 4995 c0 -8 2 -15 4 -15 2 0 6 7 10 15 3 8 1 15 -4 15 -6 0 -10
-7 -10 -15z"/>
<path d="M390 4975 c-7 -8 -16 -12 -21 -9 -5 3 -9 -1 -9 -9 0 -22 37 -9 43 14
6 23 3 24 -13 4z"/>
<path d="M255 4940 c-16 -17 -16 -21 -2 -35 10 -9 18 -11 22 -5 3 5 2 10 -4
10 -7 0 -7 8 -1 25 11 30 9 31 -15 5z"/>
<path d="M307 4944 c-8 -9 1 -24 14 -24 6 0 8 4 5 9 -4 5 0 12 6 14 9 4 8 6
-3 6 -9 1 -19 -2 -22 -5z"/>
<path d="M140 4921 c0 -6 5 -13 10 -16 6 -3 10 1 10 9 0 9 -4 16 -10 16 -5 0
-10 -4 -10 -9z"/>
<path d="M350 4897 c0 -9 5 -19 10 -22 6 -3 10 -15 10 -26 0 -10 10 -40 22
-65 18 -38 19 -47 7 -55 -11 -7 -9 -9 8 -9 15 0 21 5 17 14 -7 19 35 43 46 27
3 -7 14 -9 22 -6 12 5 14 14 8 42 -9 39 -30 59 -42 40 -11 -17 -10 -29 1 -23
5 4 8 -1 7 -9 -3 -20 -16 -32 -16 -14 -1 10 -3 9 -11 -3 -13 -23 -42 -11 -35
15 2 11 -2 30 -10 42 -8 13 -12 30 -8 41 4 10 4 16 -1 12 -4 -4 -14 -3 -22 3
-10 9 -13 8 -13 -4z"/>
<path d="M320 4879 c0 -5 5 -7 10 -4 6 3 10 8 10 11 0 2 -4 4 -10 4 -5 0 -10
-5 -10 -11z"/>
<path d="M324 4855 c-10 -8 -14 -14 -9 -15 15 0 40 18 34 24 -3 3 -14 -1 -25
-9z"/>
<path d="M211 4844 c0 -11 3 -14 6 -6 3 7 2 16 -1 19 -3 4 -6 -2 -5 -13z"/>
<path d="M270 4835 c0 -8 5 -15 10 -15 6 0 10 7 10 15 0 8 -4 15 -10 15 -5 0
-10 -7 -10 -15z"/>
<path d="M270 4796 c0 -9 5 -16 10 -16 6 0 10 4 10 9 0 6 -4 13 -10 16 -5 3
-10 -1 -10 -9z"/>
<path d="M336 4801 c-4 -7 -5 -15 -2 -18 9 -9 19 4 14 18 -4 11 -6 11 -12 0z"/>
<path d="M115 4759 c-4 -6 -5 -12 -2 -15 2 -3 7 2 10 11 7 17 1 20 -8 4z"/>
<path d="M290 4751 c0 -6 11 -22 25 -37 14 -15 25 -22 25 -17 0 6 -7 16 -15
23 -8 7 -15 19 -15 26 0 8 -4 14 -10 14 -5 0 -10 -4 -10 -9z"/>
<path d="M210 4745 c0 -15 18 -40 24 -34 3 3 -1 14 -9 25 -8 10 -14 15 -15 9z"/>
<path d="M261 4706 c-1 -33 1 -37 14 -26 16 14 20 25 6 15 -5 -3 -12 7 -14 22
-3 22 -4 20 -6 -11z"/>
<path d="M351 4704 c0 -11 3 -14 6 -6 3 7 2 16 -1 19 -3 4 -6 -2 -5 -13z"/>
<path d="M341 4668 c-1 -10 -5 -18 -11 -18 -5 0 -10 -4 -10 -8 0 -4 9 -8 19
-8 24 0 46 32 29 42 -7 4 -8 3 -4 -4 4 -7 3 -12 -3 -12 -5 0 -12 6 -14 13 -3
7 -6 5 -6 -5z"/>
<path d="M111 4614 c0 -11 3 -14 6 -6 3 7 2 16 -1 19 -3 4 -6 -2 -5 -13z"/>
<path d="M285 4617 c-4 -11 -3 -23 4 -30 15 -15 19 -7 11 23 -6 22 -8 23 -15
7z"/>
<path d="M224 4599 c-2 -4 0 -9 6 -11 5 -1 12 -21 15 -42 2 -22 9 -44 16 -50
8 -8 8 0 3 29 -5 22 -8 49 -9 61 0 20 -21 29 -31 13z"/>
<path d="M284 4502 c4 -6 1 -22 -5 -34 -11 -21 -11 -22 4 -9 20 16 22 37 5 47
-7 4 -8 3 -4 -4z"/>
<path d="M316 4501 c-4 -7 -5 -15 -2 -18 9 -9 19 4 14 18 -4 11 -6 11 -12 0z"/>
<path d="M80 4491 c0 -6 4 -13 10 -16 6 -3 7 1 4 9 -7 18 -14 21 -14 7z"/>
<path d="M407 4487 c3 -4 -4 -16 -16 -26 -11 -10 -18 -21 -15 -24 3 -3 17 6
31 21 l24 26 -4 -24 c-12 -64 -28 -86 -41 -57 -3 6 -5 3 -3 -7 1 -15 10 -20
32 -20 24 0 29 4 27 19 -3 17 -2 17 15 4 16 -13 17 -12 5 2 -7 9 -12 21 -10
25 1 5 -1 23 -4 39 -5 22 -12 31 -27 31 -11 0 -17 -4 -14 -9z"/>
<path d="M325 4440 c-3 -5 -1 -10 4 -10 6 0 11 -11 11 -24 0 -29 18 -44 26
-22 7 18 -31 71 -41 56z"/>
<path d="M283 4418 c-2 -16 1 -18 10 -9 7 7 8 14 1 21 -6 6 -10 2 -11 -12z"/>
<path d="M140 4420 c0 -5 5 -10 11 -10 5 0 7 5 4 10 -3 6 -8 10 -11 10 -2 0
-4 -4 -4 -10z"/>
<path d="M295 4392 c-29 -6 -43 -22 -19 -22 20 0 52 16 44 23 -3 2 -14 1 -25
-1z"/>
<path d="M210 4375 c0 -5 5 -17 10 -25 5 -8 10 -10 10 -5 0 6 -5 17 -10 25 -5
8 -10 11 -10 5z"/>
<path d="M355 4340 c-3 -11 -17 -23 -30 -26 -26 -6 -66 -44 -47 -44 7 0 15 0
20 0 4 0 7 5 7 11 0 16 45 32 46 16 0 -7 2 -20 4 -29 4 -21 -11 -24 -19 -5 -3
6 -3 -1 1 -17 4 -18 1 -31 -8 -37 -10 -6 -8 -9 9 -9 23 0 44 -34 35 -57 -3 -7
0 -13 6 -13 15 0 14 14 -3 55 -15 35 -15 35 10 35 14 0 23 4 20 9 -3 4 -18 6
-33 3 l-27 -5 23 29 c19 24 20 30 7 32 -12 3 -15 12 -11 38 5 38 0 45 -10 14z"/>
<path d="M417 4345 c-16 -11 -17 -17 -7 -35 9 -17 9 -24 0 -30 -8 -5 -7 -9 4
-13 18 -7 20 -77 2 -74 -6 1 -9 -5 -7 -13 2 -8 4 -23 5 -32 1 -24 16 -11 17
15 0 12 5 31 10 42 9 19 9 18 5 -2 -2 -13 0 -23 6 -23 5 0 6 -4 3 -10 -3 -6 1
-7 9 -4 21 8 20 36 -2 60 -11 12 -17 34 -16 60 1 60 -7 76 -29 59z"/>
<path d="M120 4330 c-8 -5 -12 -12 -9 -15 4 -3 12 1 19 10 14 17 11 19 -10 5z"/>
<path d="M166 4331 c-4 -5 3 -7 14 -4 23 6 26 13 6 13 -8 0 -17 -4 -20 -9z"/>
<path d="M160 4290 c-13 -8 -12 -10 3 -10 9 0 17 5 17 10 0 12 -1 12 -20 0z"/>
<path d="M281 4206 c-10 -12 -8 -13 8 -9 12 3 18 9 15 14 -7 12 -10 11 -23 -5z"/>
<path d="M292 4170 c-7 -12 -17 -18 -22 -15 -6 3 -7 -1 -3 -10 5 -13 7 -14 14
-3 7 10 9 10 9 -2 1 -8 6 -4 11 9 13 33 7 46 -9 21z"/>
<path d="M470 4142 c-8 -9 -15 -21 -15 -26 0 -5 -6 -11 -14 -14 -8 -3 -11 0
-7 7 4 6 1 11 -6 11 -18 0 -40 -48 -24 -53 6 -2 17 3 25 10 7 8 20 12 28 9 8
-3 11 -1 8 4 -3 6 0 13 9 16 18 7 26 27 18 41 -5 7 -12 5 -22 -5z"/>
<path d="M290 4109 c0 -5 5 -7 10 -4 6 3 10 8 10 11 0 2 -4 4 -10 4 -5 0 -10
-5 -10 -11z"/>
<path d="M350 4108 c0 -9 -8 -19 -17 -21 -11 -3 -7 -5 10 -6 29 -1 33 5 17 29
-8 13 -10 13 -10 -2z"/>
<path d="M210 4096 c0 -9 5 -16 10 -16 6 0 10 4 10 9 0 6 -4 13 -10 16 -5 3
-10 -1 -10 -9z"/>
<path d="M145 4070 c-3 -5 -1 -10 4 -10 6 0 11 5 11 10 0 6 -2 10 -4 10 -3 0
-8 -4 -11 -10z"/>
<path d="M35 4060 c3 -5 8 -10 11 -10 2 0 4 5 4 10 0 6 -5 10 -11 10 -5 0 -7
-4 -4 -10z"/>
<path d="M295 4051 c-3 -5 -1 -12 4 -15 5 -3 11 1 15 9 6 16 -9 21 -19 6z"/>
<path d="M453 4000 c3 -41 1 -49 -12 -47 -9 1 -18 -2 -19 -8 -2 -5 -8 -15 -12
-20 -5 -6 -5 -17 -1 -24 7 -10 10 -8 16 8 4 12 18 27 32 32 31 12 43 4 20 -14
-20 -15 -12 -67 10 -67 10 0 13 6 8 18 -11 29 -11 34 4 40 10 3 12 0 8 -11 -3
-9 -2 -19 3 -22 16 -10 12 28 -5 52 -9 12 -14 26 -13 30 2 11 -29 83 -37 83
-3 0 -4 -22 -2 -50z"/>
<path d="M405 4005 c0 -21 5 -35 13 -35 13 0 15 13 6 48 -9 33 -19 27 -19 -13z"/>
<path d="M151 4014 c0 -11 3 -14 6 -6 3 7 2 16 -1 19 -3 4 -6 -2 -5 -13z"/>
<path d="M175 3980 c-3 -5 -2 -10 4 -10 5 0 13 5 16 10 3 6 2 10 -4 10 -5 0
-13 -4 -16 -10z"/>
<path d="M367 3977 c-3 -7 -3 -25 0 -40 3 -16 1 -27 -6 -27 -6 0 -12 6 -13 13
0 6 -2 17 -3 22 -2 6 -4 17 -5 25 -1 11 -4 10 -9 -4 -5 -12 -1 -33 10 -55 20
-42 18 -50 -15 -44 -13 3 -27 0 -31 -7 -6 -9 4 -10 39 -6 40 6 46 4 47 -11 0
-11 3 -13 6 -5 2 6 10 9 16 5 8 -4 8 -2 -1 9 -6 8 -14 41 -16 73 -5 60 -10 75
-19 52z"/>
<path d="M120 3946 c0 -8 4 -17 9 -20 5 -4 7 3 4 14 -6 23 -13 26 -13 6z"/>
<path d="M186 3917 c3 -10 9 -15 12 -12 3 3 0 11 -7 18 -10 9 -11 8 -5 -6z"/>
<path d="M433 3898 c3 -9 0 -19 -8 -22 -8 -3 -12 -12 -9 -21 8 -19 24 -20 24
-1 0 8 6 16 13 19 8 3 7 10 -7 23 -16 16 -18 16 -13 2z"/>
<path d="M295 3890 c-3 -5 -1 -10 4 -10 6 0 11 5 11 10 0 6 -2 10 -4 10 -3 0
-8 -4 -11 -10z"/>
<path d="M266 3861 c-4 -7 -5 -15 -2 -18 9 -9 19 4 14 18 -4 11 -6 11 -12 0z"/>
<path d="M51 3824 c0 -11 3 -14 6 -6 3 7 2 16 -1 19 -3 4 -6 -2 -5 -13z"/>
<path d="M231 3814 c0 -11 3 -14 6 -6 3 7 2 16 -1 19 -3 4 -6 -2 -5 -13z"/>
<path d="M431 3821 c-13 -8 -19 -67 -7 -78 4 -4 9 3 13 15 3 12 9 19 14 16 5
-3 9 6 9 20 0 28 -10 38 -29 27z"/>
<path d="M292 3790 c0 -14 2 -19 5 -12 2 6 2 18 0 25 -3 6 -5 1 -5 -13z"/>
<path d="M377 3793 c-4 -7 -3 -14 2 -18 6 -3 8 -12 5 -19 -3 -8 -1 -17 5 -21
13 -7 13 20 2 49 -5 13 -10 16 -14 9z"/>
<path d="M90 3690 c0 -5 5 -10 11 -10 5 0 7 5 4 10 -3 6 -8 10 -11 10 -2 0 -4
-4 -4 -10z"/>
<path d="M180 3644 c0 -8 5 -12 10 -9 6 4 8 11 5 16 -9 14 -15 11 -15 -7z"/>
<path d="M138 3633 c7 -3 16 -2 19 1 4 3 -2 6 -13 5 -11 0 -14 -3 -6 -6z"/>
<path d="M248 3623 c-10 -2 -18 -9 -18 -14 0 -6 5 -7 11 -4 6 4 23 11 37 15
19 6 21 8 7 8 -11 0 -28 -2 -37 -5z"/>
<path d="M396 3612 c-3 -5 1 -15 10 -22 8 -7 13 -19 10 -27 -3 -7 1 -13 10
-13 13 0 12 4 -2 33 -21 40 -21 40 -28 29z"/>
<path d="M360 3565 c-7 -8 -9 -19 -5 -25 3 -5 -1 -13 -9 -16 -18 -7 -22 -44
-5 -44 5 0 8 4 5 9 -3 5 1 14 9 21 8 7 15 19 15 26 0 7 6 11 13 8 8 -3 14 2
14 10 0 21 -23 28 -37 11z"/>
<path d="M250 3555 c0 -8 2 -15 4 -15 2 0 6 7 10 15 3 8 1 15 -4 15 -6 0 -10
-7 -10 -15z"/>
<path d="M166 3535 c-3 -8 -1 -15 4 -15 6 0 10 7 10 15 0 8 -2 15 -4 15 -2 0
-6 -7 -10 -15z"/>
<path d="M420 3529 c0 -6 -7 -9 -15 -6 -19 8 -31 -11 -16 -26 8 -8 11 -8 11 1
0 7 5 12 11 12 6 0 17 7 25 15 14 13 14 15 0 15 -9 0 -16 -5 -16 -11z"/>
<path d="M260 3490 c0 -5 7 -7 15 -4 8 4 15 8 15 10 0 2 -7 4 -15 4 -8 0 -15
-4 -15 -10z"/>
<path d="M360 3486 c0 -9 5 -16 10 -16 6 0 10 4 10 9 0 6 -4 13 -10 16 -5 3
-10 -1 -10 -9z"/>
<path d="M421 3468 c-1 -29 2 -36 14 -32 10 4 12 11 6 22 -4 10 -11 24 -14 32
-3 8 -6 -2 -6 -22z"/>
<path d="M470 3470 c0 -5 5 -10 10 -10 6 0 10 5 10 10 0 6 -4 10 -10 10 -5 0
-10 -4 -10 -10z"/>
<path d="M401 3444 c0 -11 3 -14 6 -6 3 7 2 16 -1 19 -3 4 -6 -2 -5 -13z"/>
<path d="M344 3429 c0 -10 4 -19 8 -19 4 0 8 6 8 14 0 8 -4 17 -8 20 -4 2 -8
-4 -8 -15z"/>
<path d="M100 3410 c0 -6 7 -10 15 -10 8 0 15 2 15 4 0 2 -7 6 -15 10 -8 3
-15 1 -15 -4z"/>
<path d="M350 3391 c0 -6 5 -13 10 -16 6 -3 10 1 10 9 0 9 -4 16 -10 16 -5 0
-10 -4 -10 -9z"/>
<path d="M315 3320 c-3 -5 -1 -10 4 -10 6 0 11 5 11 10 0 6 -2 10 -4 10 -3 0
-8 -4 -11 -10z"/>
<path d="M227 3313 c-4 -3 -7 -11 -7 -17 0 -6 5 -5 12 2 6 6 9 14 7 17 -3 3
-9 2 -12 -2z"/>
<path d="M420 3311 c0 -6 5 -13 10 -16 6 -3 10 1 10 9 0 9 -4 16 -10 16 -5 0
-10 -4 -10 -9z"/>
<path d="M440 3269 c0 -9 -18 -33 -41 -54 -33 -30 -40 -41 -35 -61 5 -20 9
-22 20 -12 10 10 11 17 3 26 -8 10 -7 16 4 23 21 13 36 11 43 -6 3 -9 0 -15
-9 -15 -8 0 -15 -4 -15 -10 0 -10 35 -8 46 3 3 3 -1 13 -10 23 -10 10 -13 20
-8 28 16 20 20 43 11 57 -7 12 -9 11 -9 -2z"/>
<path d="M317 3262 c-9 -2 -15 -8 -11 -13 3 -5 10 -7 15 -4 5 4 9 -3 9 -14 0
-12 5 -21 10 -21 6 0 8 11 4 28 -8 32 -5 29 -27 24z"/>
<path d="M395 3261 c-3 -5 -1 -12 5 -16 5 -3 10 1 10 9 0 18 -6 21 -15 7z"/>
<path d="M111 3214 c0 -11 3 -14 6 -6 3 7 2 16 -1 19 -3 4 -6 -2 -5 -13z"/>
<path d="M61 3193 c-1 -12 4 -25 9 -28 12 -7 12 2 0 30 -8 19 -9 19 -9 -2z"/>
<path d="M156 3183 c-6 -14 -5 -15 5 -6 7 7 10 15 7 18 -3 3 -9 -2 -12 -12z"/>
<path d="M246 3154 c-4 -9 -4 -19 -2 -21 8 -8 26 8 26 23 0 19 -16 18 -24 -2z"/>
<path d="M324 3116 c3 -28 6 -61 6 -73 0 -13 4 -23 8 -23 10 0 8 75 -2 108 -5
13 -3 22 3 22 6 0 11 4 11 8 0 5 -7 9 -16 9 -14 0 -15 -8 -10 -51z"/>
<path d="M530 3135 c0 -14 4 -25 9 -25 4 0 6 11 3 25 -2 14 -6 25 -8 25 -2 0
-4 -11 -4 -25z"/>
<path d="M170 3119 c0 -5 5 -7 10 -4 6 3 10 8 10 11 0 2 -4 4 -10 4 -5 0 -10
-5 -10 -11z"/>
<path d="M260 3094 c0 -41 16 -63 22 -31 3 13 -1 33 -9 43 -12 16 -13 15 -13
-12z"/>
<path d="M410 3105 c0 -9 -6 -12 -15 -9 -11 5 -13 2 -9 -10 7 -18 13 -19 30
-8 13 8 15 42 2 42 -4 0 -8 -7 -8 -15z"/>
<path d="M185 3100 c-3 -5 -1 -10 4 -10 6 0 11 5 11 10 0 6 -2 10 -4 10 -3 0
-8 -4 -11 -10z"/>
<path d="M367 3065 c-4 -8 -2 -17 3 -20 6 -4 10 3 10 14 0 25 -6 27 -13 6z"/>
<path d="M185 3050 c3 -5 8 -10 11 -10 2 0 4 5 4 10 0 6 -5 10 -11 10 -5 0 -7
-4 -4 -10z"/>
<path d="M398 3016 c-3 -31 -2 -33 14 -25 15 8 16 14 7 32 -7 12 -13 23 -14
25 -2 2 -5 -13 -7 -32z"/>
<path d="M60 3025 c0 -8 5 -15 10 -15 6 0 10 7 10 15 0 8 -4 15 -10 15 -5 0
-10 -7 -10 -15z"/>
<path d="M220 3015 c0 -8 4 -15 10 -15 5 0 7 7 4 15 -4 8 -8 15 -10 15 -2 0
-4 -7 -4 -15z"/>
<path d="M352 2985 c1 -14 9 -25 17 -25 11 0 12 3 4 11 -6 6 -9 18 -6 25 3 8
0 14 -6 14 -6 0 -10 -11 -9 -25z"/>
<path d="M290 2990 c0 -5 5 -10 11 -10 5 0 7 5 4 10 -3 6 -8 10 -11 10 -2 0
-4 -4 -4 -10z"/>
<path d="M433 2973 c-15 -5 -18 -33 -4 -33 8 0 25 30 19 35 -2 1 -9 0 -15 -2z"/>
<path d="M105 2960 c-3 -5 -1 -10 4 -10 6 0 11 5 11 10 0 6 -2 10 -4 10 -3 0
-8 -4 -11 -10z"/>
<path d="M305 2940 c-3 -5 -1 -10 4 -10 6 0 11 5 11 10 0 6 -2 10 -4 10 -3 0
-8 -4 -11 -10z"/>
<path d="M360 2933 c0 -10 5 -25 10 -33 7 -11 10 -7 10 18 0 17 -4 32 -10 32
-5 0 -10 -8 -10 -17z"/>
<path d="M226 2924 c-5 -12 -2 -15 10 -10 8 3 18 6 20 6 3 0 2 5 -1 10 -9 15
-22 12 -29 -6z"/>
<path d="M433 2923 c-7 -3 -13 -16 -13 -29 0 -15 -6 -24 -15 -24 -8 0 -15 -7
-15 -15 0 -17 2 -18 24 -9 9 3 16 16 16 28 0 12 5 27 12 34 14 14 9 21 -9 15z"/>
<path d="M240 2891 c0 -5 5 -13 10 -16 6 -3 10 -2 10 4 0 5 -4 13 -10 16 -5 3
-10 2 -10 -4z"/>
<path d="M364 2849 c-3 -6 -2 -15 3 -20 5 -5 9 -1 9 11 0 23 -2 24 -12 9z"/>
<path d="M240 2825 c0 -8 4 -15 10 -15 5 0 7 7 4 15 -4 8 -8 15 -10 15 -2 0
-4 -7 -4 -15z"/>
<path d="M332 2815 c0 -16 2 -22 5 -12 2 9 2 23 0 30 -3 6 -5 -1 -5 -18z"/>
<path d="M415 2820 c4 -14 2 -20 -8 -20 -10 0 -14 -9 -13 -25 1 -30 16 -34 16
-5 0 11 5 20 10 20 6 0 10 11 10 25 0 14 -5 25 -11 25 -6 0 -8 -9 -4 -20z"/>
<path d="M451 2824 c0 -11 3 -14 6 -6 3 7 2 16 -1 19 -3 4 -6 -2 -5 -13z"/>
<path d="M66 2813 c-6 -14 -5 -15 5 -6 7 7 10 15 7 18 -3 3 -9 -2 -12 -12z"/>
<path d="M280 2798 c0 -9 5 -20 10 -23 13 -8 13 5 0 25 -8 13 -10 13 -10 -2z"/>
<path d="M330 2739 c0 -18 2 -19 15 -9 8 7 15 16 15 21 0 5 -7 9 -15 9 -9 0
-15 -9 -15 -21z"/>
<path d="M280 2697 c0 -15 4 -27 9 -27 17 0 19 15 5 35 -13 18 -14 18 -14 -8z"/>
<path d="M338 2683 c5 -21 7 -23 10 -9 2 10 0 22 -6 28 -6 6 -7 0 -4 -19z"/>
<path d="M431 2694 c0 -11 3 -14 6 -6 3 7 2 16 -1 19 -3 4 -6 -2 -5 -13z"/>
<path d="M250 2690 c0 -5 5 -10 11 -10 5 0 7 5 4 10 -3 6 -8 10 -11 10 -2 0
-4 -4 -4 -10z"/>
<path d="M11 2664 c0 -11 3 -14 6 -6 3 7 2 16 -1 19 -3 4 -6 -2 -5 -13z"/>
<path d="M73 2665 c0 -8 4 -12 9 -9 5 3 6 10 3 15 -9 13 -12 11 -12 -6z"/>
<path d="M308 2625 c2 -14 6 -25 8 -25 2 0 4 11 4 25 0 14 -4 25 -9 25 -4 0
-6 -11 -3 -25z"/>
<path d="M340 2639 c0 -5 5 -7 10 -4 6 3 10 8 10 11 0 2 -4 4 -10 4 -5 0 -10
-5 -10 -11z"/>
<path d="M147 2633 c-3 -5 -1 -17 4 -28 7 -17 8 -17 8 8 1 27 -4 34 -12 20z"/>
<path d="M395 2630 c4 -6 11 -8 16 -5 14 9 11 15 -7 15 -8 0 -12 -5 -9 -10z"/>
<path d="M400 2601 c-14 -27 -13 -30 10 -24 11 3 20 14 20 24 0 25 -16 24 -30
0z"/>
<path d="M300 2575 c0 -8 2 -15 4 -15 2 0 6 7 10 15 3 8 1 15 -4 15 -6 0 -10
-7 -10 -15z"/>
<path d="M356 2564 c-8 -22 -8 -54 2 -54 4 0 14 5 22 10 13 8 12 10 -3 10 -14
0 -16 5 -11 25 7 28 0 34 -10 9z"/>
<path d="M190 2539 c0 -5 5 -7 10 -4 6 3 10 8 10 11 0 2 -4 4 -10 4 -5 0 -10
-5 -10 -11z"/>
<path d="M286 2485 c-6 -17 5 -26 21 -17 8 5 7 11 -2 19 -10 10 -14 9 -19 -2z"/>
<path d="M373 2488 c2 -7 10 -31 18 -53 8 -22 20 -46 27 -53 6 -7 12 -28 12
-45 2 -113 17 -164 41 -140 8 8 7 20 -5 45 -10 18 -20 63 -23 100 -3 37 -9 65
-13 63 -7 -5 -20 17 -25 40 -6 30 -19 55 -27 55 -6 0 -8 -6 -5 -12z"/>
<path d="M525 2460 c-3 -5 -1 -10 4 -10 6 0 11 5 11 10 0 6 -2 10 -4 10 -3 0
-8 -4 -11 -10z"/>
<path d="M500 2453 c0 -6 -9 -13 -20 -16 -11 -3 -20 -1 -20 4 0 5 -5 9 -10 9
-7 0 -7 -6 -1 -19 6 -10 8 -21 5 -23 -3 -3 2 -8 10 -11 9 -4 18 -2 21 3 4 6 1
10 -4 10 -6 0 -11 5 -11 10 0 6 6 10 14 10 17 0 31 18 22 27 -3 4 -6 2 -6 -4z"/>
<path d="M104 2419 c-3 -6 -2 -15 3 -20 5 -5 9 -1 10 11 2 22 -2 25 -13 9z"/>
<path d="M323 2381 c-10 -16 -9 -18 7 -14 11 3 16 11 13 19 -7 18 -6 18 -20
-5z"/>
<path d="M360 2379 c0 -5 5 -7 10 -4 6 3 10 8 10 11 0 2 -4 4 -10 4 -5 0 -10
-5 -10 -11z"/>
<path d="M394 2362 c-13 -9 -37 -52 -29 -52 11 0 35 28 35 42 0 10 3 9 10 -2
6 -9 10 -10 10 -3 0 16 -13 23 -26 15z"/>
<path d="M461 2354 c0 -11 3 -14 6 -6 3 7 2 16 -1 19 -3 4 -6 -2 -5 -13z"/>
<path d="M270 2348 c0 -9 5 -20 10 -23 13 -8 13 5 0 25 -8 13 -10 13 -10 -2z"/>
<path d="M310 2340 c0 -5 10 -10 23 -10 18 0 19 2 7 10 -19 13 -30 13 -30 0z"/>
<path d="M381 2284 c0 -11 3 -14 6 -6 3 7 2 16 -1 19 -3 4 -6 -2 -5 -13z"/>
<path d="M310 2266 c-9 -11 -9 -19 0 -33 11 -17 11 -17 6 1 -4 10 -1 25 5 32
6 8 9 14 6 14 -2 0 -10 -7 -17 -14z"/>
<path d="M380 2250 c0 -5 5 -10 11 -10 5 0 7 5 4 10 -3 6 -8 10 -11 10 -2 0
-4 -4 -4 -10z"/>
<path d="M201 2224 c0 -11 3 -14 6 -6 3 7 2 16 -1 19 -3 4 -6 -2 -5 -13z"/>
<path d="M390 2221 c0 -6 5 -13 10 -16 6 -3 10 1 10 9 0 9 -4 16 -10 16 -5 0
-10 -4 -10 -9z"/>
<path d="M360 2159 c0 -16 4 -28 9 -25 8 5 3 56 -5 56 -2 0 -4 -14 -4 -31z"/>
<path d="M445 2170 c-3 -5 0 -19 8 -30 13 -19 14 -19 15 10 1 29 -11 40 -23
20z"/>
<path d="M420 2155 c0 -8 4 -15 10 -15 5 0 7 7 4 15 -4 8 -8 15 -10 15 -2 0
-4 -7 -4 -15z"/>
<path d="M390 2151 c0 -5 5 -13 10 -16 6 -3 10 -2 10 4 0 5 -4 13 -10 16 -5 3
-10 2 -10 -4z"/>
<path d="M504 2118 c3 -13 6 -26 6 -29 0 -4 7 -9 15 -13 12 -4 13 -2 6 13 -6
10 -7 21 -4 25 3 3 1 6 -6 6 -7 0 -9 5 -6 10 3 6 1 10 -6 10 -7 0 -9 -9 -5
-22z"/>
<path d="M433 2088 c-2 -23 -2 -23 14 -3 15 19 15 19 11 -7 -4 -19 -1 -25 9
-21 7 3 13 16 13 29 0 33 -45 35 -47 2z"/>
<path d="M514 2048 c-5 -7 -3 -8 5 -4 8 5 11 3 10 -5 -1 -8 3 -27 9 -42 7 -16
12 -34 12 -42 0 -10 5 -11 24 -2 26 12 26 30 0 20 -8 -3 -14 -2 -13 3 1 5 -3
22 -9 37 -7 16 -12 33 -12 38 0 13 -17 11 -26 -3z"/>
<path d="M200 2032 c0 -5 7 -15 15 -22 8 -7 15 -8 15 -2 0 5 -7 15 -15 22 -8
7 -15 8 -15 2z"/>
<path d="M459 2021 l-23 -18 35 3 c19 2 28 1 22 -2 -18 -8 -16 -25 2 -18 8 4
15 1 15 -5 0 -7 -7 -14 -15 -17 -16 -7 -21 -54 -5 -54 5 0 7 7 3 16 -5 13 -1
15 18 9 16 -4 20 -3 10 3 -9 7 -10 11 -2 13 8 3 6 17 -6 46 -10 24 -21 43 -24
43 -4 0 -17 -8 -30 -19z"/>
<path d="M290 2014 c0 -8 5 -12 10 -9 6 4 8 11 5 16 -9 14 -15 11 -15 -7z"/>
<path d="M337 1993 c3 -7 11 -13 19 -13 7 0 11 6 8 13 -3 8 -11 14 -18 14 -8
0 -12 -6 -9 -14z"/>
<path d="M416 1990 c-4 -14 -3 -36 2 -50 9 -24 9 -24 14 7 2 17 1 39 -3 49 -6
17 -7 16 -13 -6z"/>
<path d="M225 1960 c-3 -5 -1 -10 4 -10 6 0 11 5 11 10 0 6 -2 10 -4 10 -3 0
-8 -4 -11 -10z"/>
<path d="M438 1919 c-20 -21 -25 -40 -6 -21 16 16 31 15 25 -2 -3 -7 0 -19 6
-25 8 -8 7 -11 -5 -11 -21 0 -33 -66 -19 -100 9 -24 10 -24 12 10 1 19 2 45 2
58 0 13 6 22 14 22 10 0 13 6 9 16 -3 9 -6 29 -6 45 0 33 -8 35 -32 8z"/>
<path d="M355 1910 c-3 -5 -1 -10 4 -10 6 0 11 5 11 10 0 6 -2 10 -4 10 -3 0
-8 -4 -11 -10z"/>
<path d="M511 1887 c-1 -10 -5 -16 -10 -12 -6 3 -9 -4 -8 -15 1 -11 4 -20 8
-20 4 0 5 -9 2 -20 -3 -11 -9 -17 -14 -14 -5 3 -9 -2 -9 -10 0 -27 18 -17 35
19 13 26 15 41 7 62 -7 19 -11 22 -11 10z"/>
<path d="M400 1863 c0 -21 3 -24 9 -14 5 8 7 20 4 28 -8 21 -13 15 -13 -14z"/>
<path d="M361 1789 c4 -33 10 -63 13 -66 8 -8 8 56 0 96 -11 55 -21 33 -13
-30z"/>
<path d="M400 1810 c0 -5 5 -10 10 -10 6 0 10 5 10 10 0 6 -4 10 -10 10 -5 0
-10 -4 -10 -10z"/>
<path d="M305 1759 c-8 -12 14 -69 26 -69 13 0 11 10 -6 27 -9 9 -13 23 -10
34 7 21 0 26 -10 8z"/>
<path d="M496 1755 c-6 -18 2 -45 15 -45 12 0 12 47 0 54 -5 3 -11 -1 -15 -9z"/>
<path d="M436 1711 c-16 -18 -15 -19 9 -23 19 -4 25 -1 25 13 0 26 -15 31 -34
10z"/>
<path d="M505 1690 c3 -5 11 -10 16 -10 6 0 7 5 4 10 -3 6 -11 10 -16 10 -6 0
-7 -4 -4 -10z"/>
<path d="M521 1653 c7 -10 14 -20 16 -22 1 -2 1 6 0 18 -1 11 -8 21 -15 21
-12 0 -12 -3 -1 -17z"/>
<path d="M434 1639 c0 -10 4 -19 8 -19 4 0 8 6 8 14 0 8 -4 17 -8 20 -4 2 -8
-4 -8 -15z"/>
<path d="M480 1620 c0 -5 4 -10 9 -10 6 0 13 5 16 10 3 6 -1 10 -9 10 -9 0
-16 -4 -16 -10z"/>
<path d="M440 1594 c0 -8 5 -12 10 -9 6 3 10 10 10 16 0 5 -4 9 -10 9 -5 0
-10 -7 -10 -16z"/>
<path d="M350 1560 c0 -5 5 -10 11 -10 5 0 7 5 4 10 -3 6 -8 10 -11 10 -2 0
-4 -4 -4 -10z"/>
<path d="M390 1543 c0 -4 5 -15 10 -23 8 -13 10 -13 10 2 0 9 -4 20 -10 23 -5
3 -10 3 -10 -2z"/>
<path d="M611 1519 c-1 -9 -10 -20 -21 -25 -14 -7 -17 -13 -10 -24 8 -13 10
-12 10 3 0 10 4 16 8 13 16 -9 29 9 21 29 -5 15 -8 16 -8 4z"/>
<path d="M410 1491 c0 -6 4 -13 10 -16 6 -3 7 1 4 9 -7 18 -14 21 -14 7z"/>
<path d="M551 1484 c0 -11 3 -14 6 -6 3 7 2 16 -1 19 -3 4 -6 -2 -5 -13z"/>
<path d="M570 1419 c0 -11 4 -18 10 -14 5 3 7 12 3 20 -7 21 -13 19 -13 -6z"/>
<path d="M526 1421 c-4 -7 -5 -15 -2 -18 9 -9 19 4 14 18 -4 11 -6 11 -12 0z"/>
<path d="M665 1338 c4 -18 7 -39 8 -45 0 -7 5 -13 10 -13 5 0 6 7 3 16 -3 9
-6 29 -6 45 0 16 -5 29 -11 29 -8 0 -9 -11 -4 -32z"/>
<path d="M601 1324 c0 -11 3 -14 6 -6 3 7 2 16 -1 19 -3 4 -6 -2 -5 -13z"/>
<path d="M783 1283 c-7 -3 -13 -9 -13 -14 0 -6 4 -8 9 -4 5 3 13 0 16 -6 4 -6
-2 -13 -14 -16 -23 -6 -25 -11 -11 -33 8 -13 10 -12 10 3 0 9 4 17 9 17 13 0
22 30 14 44 -5 7 -14 11 -20 9z"/>
<path d="M840 1167 c0 -7 7 -20 14 -30 12 -16 14 -16 14 7 0 14 -7 27 -14 30
-8 3 -14 0 -14 -7z"/>
<path d="M785 1151 c-3 -5 -1 -12 5 -16 5 -3 10 1 10 9 0 18 -6 21 -15 7z"/>
<path d="M1011 1023 c0 -17 -5 -33 -11 -35 -6 -2 -6 -9 0 -18 15 -25 26 1 19
45 -6 37 -6 38 -8 8z"/>
<path d="M947 1026 c-4 -10 1 -12 14 -9 23 6 24 9 5 16 -8 3 -17 0 -19 -7z"/>
<path d="M1081 943 c-1 -12 4 -25 9 -28 12 -7 12 2 0 30 -8 19 -9 19 -9 -2z"/>
<path d="M1011 934 c0 -12 5 -26 12 -32 10 -9 13 -4 14 21 2 25 0 28 -6 12
l-8 -20 -5 20 c-5 19 -6 19 -7 -1z"/>
<path d="M1092 880 c0 -14 2 -19 5 -12 2 6 2 18 0 25 -3 6 -5 1 -5 -13z"/>
<path d="M980 825 c0 -8 5 -15 10 -15 6 0 10 7 10 15 0 8 -4 15 -10 15 -5 0
-10 -7 -10 -15z"/>
<path d="M1081 824 c0 -11 3 -14 6 -6 3 7 2 16 -1 19 -3 4 -6 -2 -5 -13z"/>
<path d="M1169 805 c-8 -8 1 -54 12 -61 5 -3 9 3 8 13 -1 25 -13 55 -20 48z"/>
<path d="M990 760 c0 -5 5 -10 11 -10 5 0 7 5 4 10 -3 6 -8 10 -11 10 -2 0 -4
-4 -4 -10z"/>
<path d="M1176 722 c-3 -5 1 -9 9 -9 8 0 15 4 15 9 0 4 -4 8 -9 8 -6 0 -12 -4
-15 -8z"/>
<path d="M1330 609 c0 -9 7 -22 15 -29 19 -16 19 0 0 26 -12 16 -14 16 -15 3z"/>
<path d="M1257 603 c-4 -3 -7 -11 -7 -17 0 -6 5 -5 12 2 6 6 9 14 7 17 -3 3
-9 2 -12 -2z"/>
<path d="M1070 555 c0 -5 5 -17 10 -25 5 -8 10 -10 10 -5 0 6 -5 17 -10 25 -5
8 -10 11 -10 5z"/>
<path d="M1226 535 c8 -37 14 -45 14 -19 0 10 -5 26 -10 34 -8 11 -9 7 -4 -15z"/>
<path d="M1356 545 c4 -8 8 -15 10 -15 2 0 4 7 4 15 0 8 -4 15 -10 15 -5 0 -7
-7 -4 -15z"/>
<path d="M1410 545 c-1 -5 -1 -23 0 -39 1 -16 -3 -32 -10 -36 -8 -5 -7 -9 3
-13 20 -7 24 9 16 58 -3 22 -7 36 -9 30z"/>
<path d="M1446 527 c3 -10 9 -15 12 -12 3 3 0 11 -7 18 -10 9 -11 8 -5 -6z"/>
<path d="M1310 501 c0 -6 4 -13 10 -16 6 -3 7 1 4 9 -7 18 -14 21 -14 7z"/>
<path d="M2930 394 c0 -3 5 -15 11 -26 6 -11 13 -35 16 -52 6 -40 13 -47 13
-12 0 27 -25 96 -34 96 -4 0 -6 -3 -6 -6z"/>
<path d="M2720 386 c0 -2 8 -10 18 -17 15 -13 16 -12 3 4 -13 16 -21 21 -21
13z"/>
<path d="M1531 344 c0 -11 3 -14 6 -6 3 7 2 16 -1 19 -3 4 -6 -2 -5 -13z"/>
<path d="M1780 350 c0 -5 5 -10 11 -10 5 0 7 5 4 10 -3 6 -8 10 -11 10 -2 0
-4 -4 -4 -10z"/>
<path d="M1651 334 c0 -11 3 -14 6 -6 3 7 2 16 -1 19 -3 4 -6 -2 -5 -13z"/>
<path d="M1831 278 c1 -7 5 -24 9 -38 8 -24 8 -24 9 7 1 17 -3 35 -9 38 -5 3
-10 0 -9 -7z"/>
<path d="M1692 241 c0 -17 1 -31 3 -31 7 0 12 39 5 49 -4 7 -7 -1 -8 -18z"/>
<path d="M2061 254 c0 -11 3 -14 6 -6 3 7 2 16 -1 19 -3 4 -6 -2 -5 -13z"/>
<path d="M3075 240 c3 -5 8 -10 11 -10 2 0 4 5 4 10 0 6 -5 10 -11 10 -5 0 -7
-4 -4 -10z"/>
<path d="M1755 230 c3 -5 8 -10 11 -10 2 0 4 5 4 10 0 6 -5 10 -11 10 -5 0 -7
-4 -4 -10z"/>
<path d="M1966 217 c3 -10 9 -15 12 -12 3 3 0 11 -7 18 -10 9 -11 8 -5 -6z"/>
<path d="M2090 215 c0 -5 5 -17 10 -25 5 -8 10 -10 10 -5 0 6 -5 17 -10 25 -5
8 -10 11 -10 5z"/>
<path d="M1762 190 c0 -14 2 -19 5 -12 2 6 2 18 0 25 -3 6 -5 1 -5 -13z"/>
</g>
</svg>
