<?xml version="1.0" encoding="iso-8859-1"?>
<!-- Generator: Adobe Illustrator 19.0.0, SVG Export Plug-In . SVG Version: 6.00 Build 0)  -->
<svg version="1.1" id="Layer_1" xmlns="http://www.w3.org/2000/svg" xmlns:xlink="http://www.w3.org/1999/xlink" x="0px" y="0px"
	 viewBox="0 0 512 512" style="enable-background:new 0 0 512 512;" xml:space="preserve">
<path style="fill:#D5DCED;" d="M495.432,427.023H16.568c-4.722,0-8.551-3.829-8.551-8.551V187.591h495.967v230.881
	C503.983,423.194,500.155,427.023,495.432,427.023z"/>
<path style="fill:#F1F4FB;" d="M503.983,324.409H8.017V93.528c0-4.722,3.829-8.551,8.551-8.551h478.864
	c4.722,0,8.551,3.829,8.551,8.551V324.409z"/>
<g>
	<path style="fill:#B4E66E;" d="M415.7,144.835c5.92,12.428,15.997,22.506,28.425,28.424v62.867
		c-12.428,5.918-22.506,15.996-28.425,28.424H96.3c-5.92-12.428-15.997-22.506-28.425-28.424v-62.867
		c12.428-5.918,22.506-15.996,28.425-28.424H415.7 M435.574,119.182H76.426c0,18.891-15.313,34.205-34.205,34.205V256
		c18.892,0,34.205,15.314,34.205,34.205h359.148c0-18.891,15.313-34.205,34.205-34.205V153.386
		C450.887,153.386,435.574,138.072,435.574,119.182L435.574,119.182z"/>
	<circle style="fill:#B4E66E;" cx="42.221" cy="119.182" r="8.551"/>
	<circle style="fill:#B4E66E;" cx="469.779" cy="119.182" r="8.551"/>
	<circle style="fill:#B4E66E;" cx="42.221" cy="290.205" r="8.551"/>
	<circle style="fill:#B4E66E;" cx="469.779" cy="290.205" r="8.551"/>
</g>
<g>
	<rect x="8.017" y="350.597" style="fill:#C7CFE2;" width="495.967" height="16.033"/>
	<rect x="8.017" y="384.802" style="fill:#C7CFE2;" width="495.967" height="16.033"/>
</g>
<circle style="fill:#A0D755;" cx="256" cy="204.693" r="85.511"/>
<path d="M495.432,76.96H16.568C7.432,76.96,0,84.392,0,93.528v324.944c0,9.136,7.432,16.568,16.568,16.568h478.864
	c9.136,0,16.568-7.432,16.568-16.568V93.528C512,84.392,504.568,76.96,495.432,76.96z M16.033,93.528
	c0-0.295,0.239-0.534,0.534-0.534h478.864c0.295,0,0.534,0.239,0.534,0.534v222.33c0,0.295-0.239,0.534-0.534,0.534H16.568
	c-0.295,0-0.534-0.239-0.534-0.534V93.528z M495.432,419.006H16.568c-0.295,0-0.534-0.239-0.534-0.534v-17.637H332.96
	c4.427,0,8.017-3.589,8.017-8.017c0-4.427-3.589-8.017-8.017-8.017H16.033V366.63h419.543c4.427,0,8.017-3.589,8.017-8.017
	c0-4.427-3.589-8.017-8.017-8.017H16.033v-18.198c0.179,0.005,0.354,0.027,0.534,0.027h478.864c0.181,0,0.356-0.021,0.534-0.027
	v18.198h-26.189c-4.427,0-8.017,3.589-8.017,8.017c0,4.427,3.589,8.017,8.017,8.017h26.189v18.171H367.166
	c-4.427,0-8.017,3.589-8.017,8.017c0,4.427,3.589,8.017,8.017,8.017h128.801v17.637
	C495.967,418.767,495.727,419.006,495.432,419.006z"/>
<path d="M341.508,127.198h86.813c3.254,16.866,16.575,30.187,33.441,33.441v88.107c-16.866,3.254-30.188,16.575-33.441,33.441
	h-86.813c-4.427,0-8.017,3.589-8.017,8.017c0,4.427,3.589,8.017,8.017,8.017h94.066c4.427,0,8.017-3.589,8.017-8.017
	c0-14.44,11.748-26.188,26.188-26.188c4.427,0,8.017-3.589,8.017-8.017V153.386c0-4.427-3.589-8.017-8.017-8.017
	c-14.44,0-26.188-11.748-26.188-26.188c0-4.427-3.589-8.017-8.017-8.017h-94.066c-4.427,0-8.017,3.589-8.017,8.017
	C333.492,123.609,337.08,127.198,341.508,127.198z"/>
<path d="M42.221,264.017c14.44,0,26.188,11.748,26.188,26.188c0,4.427,3.589,8.017,8.017,8.017h94.062
	c4.427,0,8.017-3.589,8.017-8.017c0-4.427-3.589-8.017-8.017-8.017H83.679c-3.254-16.864-16.577-30.186-33.441-33.441V160.64
	c16.864-3.256,30.188-16.576,33.441-33.441h86.808c4.427,0,8.017-3.589,8.017-8.017c0-4.427-3.589-8.017-8.017-8.017H76.426
	c-4.427,0-8.017,3.589-8.017,8.017c0,14.44-11.748,26.188-26.188,26.188c-4.427,0-8.017,3.589-8.017,8.017V256
	C34.205,260.427,37.794,264.017,42.221,264.017z"/>
<path d="M256,298.221c51.572,0,93.528-41.956,93.528-93.528S307.572,111.165,256,111.165s-93.528,41.957-93.528,93.528
	S204.428,298.221,256,298.221z M256,127.198c42.731,0,77.495,34.764,77.495,77.495S298.731,282.188,256,282.188
	s-77.495-34.764-77.495-77.495S213.269,127.198,256,127.198z"/>
<path d="M229.812,228.743c0-4.427-3.589-8.017-8.017-8.017s-8.017,3.589-8.017,8.017c0,13.489,14.236,24.034,34.205,26.274V256
	c0,4.427,3.589,8.017,8.017,8.017c4.427,0,8.017-3.589,8.017-8.017v-0.982c19.969-2.24,34.205-12.786,34.205-26.274
	c0-18.806-18.787-25.929-34.205-30.21v-27.974c11.431,1.758,18.171,6.984,18.171,10.084c0,4.427,3.589,8.017,8.017,8.017
	c4.427,0,8.017-3.589,8.017-8.017c0-13.489-14.236-24.034-34.205-26.274v-0.982c0-4.427-3.589-8.017-8.017-8.017
	c-4.427,0-8.017,3.589-8.017,8.017v0.982c-19.969,2.24-34.205,12.786-34.205,26.274c0,18.806,18.787,25.929,34.205,30.21v27.974
	C236.553,237.069,229.812,231.843,229.812,228.743z M282.188,228.743c0,3.1-6.74,8.326-18.171,10.084v-23.53
	C277.389,219.502,282.188,223.254,282.188,228.743z M229.812,180.643c0-3.1,6.74-8.326,18.171-10.084v23.53
	C234.611,189.885,229.812,186.132,229.812,180.643z"/>
<g>
</g>
<g>
</g>
<g>
</g>
<g>
</g>
<g>
</g>
<g>
</g>
<g>
</g>
<g>
</g>
<g>
</g>
<g>
</g>
<g>
</g>
<g>
</g>
<g>
</g>
<g>
</g>
<g>
</g>
</svg>
