<?xml version="1.0" encoding="iso-8859-1"?>
<!-- Generator: Adobe Illustrator 19.0.0, SVG Export Plug-In . SVG Version: 6.00 Build 0)  -->
<svg version="1.1" id="Layer_1" xmlns="http://www.w3.org/2000/svg" xmlns:xlink="http://www.w3.org/1999/xlink" x="0px" y="0px"
	 viewBox="0 0 306.415 306.415" style="enable-background:new 0 0 306.415 306.415;" xml:space="preserve">
<g>
	<g>
		<g>
			<path style="fill:#4EFFBB;" d="M298.67,66.245H21.106c-4.261,0-7.744,3.486-7.744,7.744v169.126c0,4.261,3.486,7.745,7.744,7.745
				H298.67c4.297,0,7.745-3.486,7.745-7.745V73.993C306.414,69.732,302.967,66.245,298.67,66.245z"/>
		</g>
		<g>
			<g id="XMLID_13_">
				<g>
					<g>
						<path style="fill:#302C58;" d="M224.78,71.045H15.492v99.416v54.221h209.249h52.823v-54.221V71.045H224.78z M261.531,178.671
							c-15.723,0.117-28.27,12.508-28.58,28.234c-0.078,4.493-3.717,8.054-8.21,8.054h-41.322H107.78H66.458
							c-4.493,0-8.132-3.564-8.21-8.054c-0.27-15.723-12.82-28.117-28.544-28.234c-4.532,0-8.171-3.678-8.171-8.21v-43.492
							c0-4.532,3.639-8.171,8.171-8.21c15.762-0.078,28.58-12.974,28.58-28.736l-0.039-0.814c-0.078-2.209,0.736-4.337,2.284-5.965
							c1.548-1.587,3.678-2.479,5.926-2.479h41.322h75.636h41.361c2.206,0,4.337,0.89,5.887,2.479
							c1.548,1.626,2.362,3.757,2.323,5.965l-0.078,0.814c0,15.762,12.856,28.658,28.619,28.736c4.493,0.039,8.171,3.678,8.171,8.21
							v43.492C269.702,174.993,266.024,178.671,261.531,178.671z"/>
					</g>
					<g>
						<path style="fill:#222051;" d="M293.056,63.299v169.126c0,4.261-3.447,7.745-7.745,7.745H7.744
							c-4.258,0-7.744-3.486-7.744-7.745V63.299c0-4.261,3.486-7.744,7.744-7.744h277.564
							C289.609,55.552,293.056,59.038,293.056,63.299z M277.564,224.678v-54.218V71.045H224.78H15.492v99.416v54.221h209.249h52.823
							V224.678z"/>
					</g>
					<g>
						<path style="fill:#222051;" d="M269.702,126.969v43.492c0,4.532-3.678,8.21-8.171,8.21
							c-15.723,0.117-28.27,12.508-28.58,28.234c-0.078,4.493-3.717,8.054-8.21,8.054h-41.322H107.78H66.458
							c-4.493,0-8.132-3.564-8.21-8.054c-0.27-15.723-12.82-28.117-28.544-28.234c-4.532,0-8.171-3.678-8.171-8.21v-43.492
							c0-4.532,3.639-8.171,8.171-8.21c15.762-0.078,28.58-12.974,28.58-28.736l-0.039-0.814c-0.078-2.209,0.736-4.337,2.284-5.965
							c1.548-1.587,3.678-2.479,5.926-2.479h41.322h75.636h41.361c2.206,0,4.337,0.89,5.887,2.479
							c1.548,1.626,2.362,3.757,2.323,5.965l-0.078,0.814c0,15.762,12.856,28.658,28.619,28.736
							C266.024,118.798,269.702,122.437,269.702,126.969z M253.242,163.025v-28.619c-18.551-3.525-33.151-18.473-36.171-37.217
							h-33.656H107.78H74.127c-3.02,18.744-17.623,33.695-36.171,37.217v28.619c18.164,3.369,32.336,17.388,35.862,35.513h33.965
							h75.636h33.965C220.945,180.413,235.118,166.395,253.242,163.025z"/>
					</g>
					<g>
						<path style="fill:#302C58;" d="M146.199,110.741c-21.145,0-38.38,17.235-38.38,38.419s17.235,38.419,38.38,38.419
							c21.184,0,38.419-17.235,38.419-38.419S167.383,110.741,146.199,110.741z"/>
					</g>
				</g>
			</g>
		</g>
	</g>
</g>
<g>
</g>
<g>
</g>
<g>
</g>
<g>
</g>
<g>
</g>
<g>
</g>
<g>
</g>
<g>
</g>
<g>
</g>
<g>
</g>
<g>
</g>
<g>
</g>
<g>
</g>
<g>
</g>
<g>
</g>
</svg>
