<?xml version="1.0" encoding="iso-8859-1"?>
<!-- Generator: Adobe Illustrator 18.0.0, SVG Export Plug-In . SVG Version: 6.00 Build 0)  -->
<!DOCTYPE svg PUBLIC "-//W3C//DTD SVG 1.1//EN" "http://www.w3.org/Graphics/SVG/1.1/DTD/svg11.dtd">
<svg version="1.1" id="Capa_1" xmlns="http://www.w3.org/2000/svg" xmlns:xlink="http://www.w3.org/1999/xlink" x="0px" y="0px"
	 viewBox="0 0 297.5 297.5" style="enable-background:new 0 0 297.5 297.5;" xml:space="preserve">
<g>
	<g id="XMLID_42_">
		<g>
			<path style="fill:#A5C63B;" d="M154.865,124.03c13.63,0,24.72,11.09,24.72,24.72s-11.09,24.72-24.72,24.72
				c-13.64,0-24.73-11.09-24.73-24.72S141.225,124.03,154.865,124.03z"/>
			<path style="fill:#2ECC71;" d="M271.285,89.38v118.74H56.665c-3.68-14.98-15.48-26.79-30.46-30.47v-57.8
				c14.98-3.68,26.78-15.49,30.46-30.47H271.285z M241.475,148.75c0-4.78-3.88-8.66-8.66-8.66c-4.79,0-8.66,3.88-8.66,8.66
				s3.87,8.66,8.66,8.66C237.595,157.41,241.475,153.53,241.475,148.75z M199.425,148.75c0-24.57-19.99-44.57-44.56-44.57
				c-24.58,0-44.57,20-44.57,44.57s19.99,44.57,44.57,44.57C179.435,193.32,199.425,173.32,199.425,148.75z M85.575,148.75
				c0-4.78-3.88-8.66-8.66-8.66c-4.79,0-8.66,3.88-8.66,8.66s3.87,8.66,8.66,8.66C81.695,157.41,85.575,153.53,85.575,148.75z"/>
			<path d="M291.135,10.17v277.16c0,5.48-4.44,9.92-9.92,9.92s-9.93-4.44-9.93-9.92v-59.37h-255c-5.48,0-9.92-4.44-9.92-9.92V79.46
				c0-5.48,4.44-9.92,9.92-9.92h255V10.17c0-5.48,4.45-9.92,9.93-9.92S291.135,4.69,291.135,10.17z M271.285,208.12V89.38H56.665
				c-3.68,14.98-15.48,26.79-30.46,30.47v57.8c14.98,3.68,26.78,15.49,30.46,30.47H271.285z M42.135,89.38h-15.93v15.94
				C33.505,102.5,39.325,96.69,42.135,89.38z M26.205,208.12h15.93c-2.81-7.31-8.63-13.12-15.93-15.94V208.12z"/>
			<path d="M232.815,140.09c4.78,0,8.66,3.88,8.66,8.66s-3.88,8.66-8.66,8.66c-4.79,0-8.66-3.88-8.66-8.66
				S228.025,140.09,232.815,140.09z"/>
			<path d="M154.865,104.18c24.57,0,44.56,20,44.56,44.57s-19.99,44.57-44.56,44.57c-24.58,0-44.57-20-44.57-44.57
				S130.285,104.18,154.865,104.18z M179.585,148.75c0-13.63-11.09-24.72-24.72-24.72c-13.64,0-24.73,11.09-24.73,24.72
				s11.09,24.72,24.73,24.72C168.495,173.47,179.585,162.38,179.585,148.75z"/>
			<path d="M76.915,140.09c4.78,0,8.66,3.88,8.66,8.66s-3.88,8.66-8.66,8.66c-4.79,0-8.66-3.88-8.66-8.66
				S72.125,140.09,76.915,140.09z"/>
		</g>
		<g>
		</g>
	</g>
</g>
<g>
</g>
<g>
</g>
<g>
</g>
<g>
</g>
<g>
</g>
<g>
</g>
<g>
</g>
<g>
</g>
<g>
</g>
<g>
</g>
<g>
</g>
<g>
</g>
<g>
</g>
<g>
</g>
<g>
</g>
</svg>
