<?xml version="1.0" encoding="iso-8859-1"?>
<!-- Generator: Adobe Illustrator 19.0.0, SVG Export Plug-In . SVG Version: 6.00 Build 0)  -->
<svg version="1.1" id="Layer_1" xmlns="http://www.w3.org/2000/svg" xmlns:xlink="http://www.w3.org/1999/xlink" x="0px" y="0px"
	 viewBox="0 0 512 512" style="enable-background:new 0 0 512 512;" xml:space="preserve">
<g transform="translate(1 1)">
	<path style="fill:#FFE100;" d="M348.867,178.2c0-93.867-76.8-170.667-170.667-170.667S7.533,84.333,7.533,178.2
		s76.8,170.667,170.667,170.667S348.867,272.067,348.867,178.2"/>
	<path style="fill:#FFFFFF;" d="M33.133,178.2C33.133,88.6,103.107,14.36,191,8.387c-4.267-0.853-8.533-0.853-12.8-0.853
		C84.333,7.533,7.533,84.333,7.533,178.2s76.8,170.667,170.667,170.667c4.267,0,8.533,0,12.8-0.853
		C103.107,342.04,33.133,267.8,33.133,178.2"/>
	<path style="fill:#FFE100;" d="M348.013,161.987c0.853,5.12,0.853,11.093,0.853,16.213c0,93.867-76.8,170.667-170.667,170.667
		c-5.12,0-11.093,0-16.213-0.853c8.533,87.04,81.067,154.453,169.813,154.453c93.867,0,170.667-76.8,170.667-170.667
		C502.467,243.053,435.053,170.52,348.013,161.987"/>
	<g>
		<path style="fill:#FFA800;" d="M165.4,347.16c-0.853,0-2.56,0-3.413,0l0,0C162.84,347.16,164.547,347.16,165.4,347.16"/>
		<path style="fill:#FFA800;" d="M348.013,161.133c0,1.707,0,3.413,0,4.267c74.24,18.773,128.853,85.333,128.853,165.547
			c0,90.453-69.973,163.84-157.867,169.813c4.267,0,8.533,0.853,12.8,0.853c93.867,0,170.667-76.8,170.667-170.667
			C502.467,242.2,435.053,169.667,348.013,161.133"/>
	</g>
	<path d="M178.2,357.4C79.213,357.4-1,277.187-1,178.2S79.213-1,178.2-1s179.2,80.213,179.2,179.2S277.187,357.4,178.2,357.4z
		 M178.2,16.067C88.6,16.067,16.067,88.6,16.067,178.2S88.6,340.333,178.2,340.333S340.333,267.8,340.333,178.2
		S267.8,16.067,178.2,16.067z"/>
	<path d="M178.2,289.133c-5.12,0-8.533-3.413-8.533-8.533V75.8c0-5.12,3.413-8.533,8.533-8.533c5.12,0,8.533,3.413,8.533,8.533
		v204.8C186.733,285.72,183.32,289.133,178.2,289.133z"/>
	<path d="M178.2,272.067c-21.333,0-39.253-7.68-49.493-20.48c-2.56-3.413-2.56-9.387,1.707-11.947
		c3.413-2.56,9.387-2.56,11.947,1.707C149.187,249.88,162.84,255,178.2,255c20.48,0,42.667-12.8,42.667-34.133
		c0-20.48-22.187-34.133-42.667-34.133c-29.013,0-59.733-19.627-59.733-51.2s30.72-51.2,59.733-51.2
		c21.333,0,39.253,6.827,49.493,20.48c2.56,3.413,2.56,9.387-1.707,11.947c-3.413,2.56-9.387,2.56-11.947-1.707
		c-6.827-8.533-19.627-13.653-35.84-13.653c-20.48,0-42.667,13.653-42.667,34.133c0,21.333,22.187,34.133,42.667,34.133
		c29.013,0,59.733,19.627,59.733,51.2S207.213,272.067,178.2,272.067z"/>
	<path d="M220.867,144.067c-5.12,0-8.533-3.413-8.533-8.533v-51.2c0-5.12,3.413-8.533,8.533-8.533c5.12,0,8.533,3.413,8.533,8.533
		v51.2C229.4,140.653,225.987,144.067,220.867,144.067z"/>
	<path d="M135.533,280.6c-5.12,0-8.533-3.413-8.533-8.533v-51.2c0-5.12,3.413-8.533,8.533-8.533s8.533,3.413,8.533,8.533v51.2
		C144.067,277.187,140.653,280.6,135.533,280.6z"/>
	<path d="M331.8,442.733c-5.12,0-8.533-3.413-8.533-8.533V255c0-5.12,3.413-8.533,8.533-8.533s8.533,3.413,8.533,8.533v179.2
		C340.333,439.32,336.92,442.733,331.8,442.733z"/>
	<path d="M374.467,297.667c-5.12,0-8.533-3.413-8.533-8.533v-51.2c0-5.12,3.413-8.533,8.533-8.533c5.12,0,8.533,3.413,8.533,8.533
		v51.2C383,294.253,379.587,297.667,374.467,297.667z"/>
	<path d="M289.133,434.2c-5.12,0-8.533-3.413-8.533-8.533v-51.2c0-5.12,3.413-8.533,8.533-8.533c5.12,0,8.533,3.413,8.533,8.533
		v51.2C297.667,430.787,294.253,434.2,289.133,434.2z"/>
	<path d="M331.8,511c-93.013,0-169.813-69.973-178.347-162.133c0-2.56,0.853-5.12,2.56-6.827c1.707-1.707,4.267-2.56,6.827-2.56
		c5.12,0.853,10.24,0.853,15.36,0.853c89.6,0,162.133-72.533,162.133-162.133c0-5.12,0-10.24-0.853-15.36
		c0-2.56,0.853-5.12,2.56-6.827c1.707-1.707,4.267-2.56,6.827-2.56C441.027,161.987,511,238.787,511,331.8
		C511,430.787,430.787,511,331.8,511z M171.373,357.4c11.947,78.507,79.36,136.533,160.427,136.533
		c89.6,0,162.133-72.533,162.133-162.133c0-81.067-58.027-147.627-136.533-160.427c0,2.56,0,4.267,0,6.827
		c0,98.987-80.213,179.2-179.2,179.2C176.493,357.4,173.933,357.4,171.373,357.4z"/>
	<path d="M331.8,425.667c-21.333,0-39.253-7.68-49.493-20.48c-2.56-3.413-2.56-9.387,1.707-11.947
		c3.413-2.56,9.387-2.56,11.947,1.707c6.827,8.533,20.48,13.653,35.84,13.653c20.48,0,42.667-12.8,42.667-34.133
		c0-20.48-22.187-34.133-42.667-34.133c-21.333,0-41.813-10.24-52.053-25.6c-2.56-3.413-1.707-8.533,1.707-11.093
		c19.627-16.213,34.987-36.693,45.227-59.733c1.707-3.413,4.267-5.12,7.68-5.12c19.627,0.853,36.693,7.68,46.08,20.48
		c2.56,3.413,2.56,9.387-1.707,11.947c-3.413,2.56-9.387,2.56-11.947-1.707c-5.973-7.68-15.36-11.947-28.16-13.653
		c-10.24,20.48-23.893,39.253-40.96,55.467c7.68,7.68,20.48,12.8,33.28,12.8c29.013,0,59.733,19.627,59.733,51.2
		S360.813,425.667,331.8,425.667z"/>
</g>
<g>
</g>
<g>
</g>
<g>
</g>
<g>
</g>
<g>
</g>
<g>
</g>
<g>
</g>
<g>
</g>
<g>
</g>
<g>
</g>
<g>
</g>
<g>
</g>
<g>
</g>
<g>
</g>
<g>
</g>
</svg>
