<?xml version="1.0" standalone="no"?>
<!DOCTYPE svg PUBLIC "-//W3C//DTD SVG 20010904//EN"
 "http://www.w3.org/TR/2001/REC-SVG-20010904/DTD/svg10.dtd">
<svg version="1.0" xmlns="http://www.w3.org/2000/svg"
 width="1800.000000pt" height="1013.000000pt" viewBox="0 0 1800.000000 1013.000000"
 preserveAspectRatio="xMidYMid meet">

<g transform="translate(0.000000,1013.000000) scale(0.100000,-0.100000)"
fill="#000000" stroke="none">
<path d="M0 9760 c0 -426 -14 -382 112 -354 92 21 153 14 248 -27 100 -44 171
-45 252 -6 32 15 73 27 95 27 67 0 176 -29 224 -59 26 -16 73 -36 104 -46 51
-15 63 -15 139 -1 78 15 84 15 135 -4 30 -11 64 -29 77 -41 18 -16 41 -24 95
-28 67 -7 77 -5 143 25 48 22 101 36 164 45 53 7 100 18 108 27 15 14 130 78
242 133 35 17 66 39 69 48 6 17 43 50 56 51 4 0 7 -7 7 -15 0 -9 7 -18 15 -21
8 -4 15 -17 15 -29 0 -13 4 -27 10 -30 6 -3 10 -14 10 -25 0 -17 25 -35 43
-31 4 0 22 -6 39 -15 28 -15 40 -15 102 -4 39 8 82 18 96 23 14 5 81 11 150
13 93 2 151 10 225 29 146 37 199 41 309 20 93 -18 97 -18 199 2 101 20 147
42 147 70 0 44 98 133 145 133 14 0 80 -86 109 -143 17 -34 23 -37 60 -37 66
1 102 43 92 108 -16 107 -17 321 -2 421 9 58 16 106 16 108 0 2 -911 3 -2025
3 l-2025 0 0 -370z"/>
<path d="M4545 10043 c12 -118 11 -151 -5 -338 -14 -179 -9 -222 36 -270 46
-50 134 -58 180 -17 60 51 64 71 64 284 0 106 4 209 9 228 5 19 17 62 26 95 9
33 19 70 22 83 l5 22 -172 0 -173 0 8 -87z"/>
<path d="M17524 9825 c3 -8 0 -15 -6 -15 -7 0 -8 -19 -4 -59 5 -48 4 -60 -9
-64 -8 -4 -15 -15 -15 -25 0 -16 -73 -82 -91 -82 -16 0 -59 -48 -59 -66 0 -12
12 -24 33 -33 17 -8 39 -20 48 -27 21 -19 103 -33 123 -22 9 5 16 17 16 27 0
10 7 31 15 48 8 16 16 53 17 81 2 29 7 52 11 52 5 0 5 5 2 10 -3 6 -2 10 4 10
13 0 6 40 -20 118 -18 54 -24 62 -46 62 -18 0 -24 -4 -19 -15z"/>
<path d="M9140 9710 c-58 -5 -217 -8 -355 -9 -174 0 -281 -5 -350 -15 -55 -9
-151 -16 -212 -16 -110 0 -113 -1 -129 -26 -15 -22 -16 -34 -6 -92 6 -37 16
-113 23 -170 11 -92 14 -102 31 -96 10 3 18 0 18 -7 0 -20 28 10 32 34 3 20
10 22 76 25 68 3 75 1 102 -25 20 -19 37 -51 51 -98 27 -93 38 -114 76 -148
18 -15 35 -38 39 -50 4 -12 15 -29 25 -38 11 -9 19 -23 19 -30 0 -8 8 -25 17
-38 13 -20 17 -52 19 -163 1 -76 6 -144 11 -151 23 -29 58 -177 68 -282 4 -47
1 -60 -20 -91 -16 -24 -25 -51 -25 -75 0 -28 -4 -39 -15 -39 -8 0 -15 -4 -15
-10 0 -5 5 -10 10 -10 6 0 10 -8 10 -19 0 -10 8 -29 18 -42 18 -23 37 -75 34
-91 -1 -4 14 2 33 13 38 23 40 29 54 131 9 66 36 138 51 138 5 0 11 13 15 28
7 32 57 75 77 67 8 -3 27 7 44 22 28 26 30 31 22 67 -5 22 -5 42 -1 45 5 3 17
23 28 43 10 20 21 36 24 36 3 -1 14 2 24 6 9 5 25 5 35 0 9 -4 20 -7 24 -6 15
3 78 -109 78 -138 0 -24 54 -80 76 -80 10 0 30 -11 44 -25 33 -32 61 -24 123
31 67 60 76 95 75 292 0 99 4 168 11 175 5 7 13 33 17 57 4 25 12 52 20 60 7
8 16 27 19 43 4 15 11 30 16 33 5 3 9 12 9 20 0 8 10 36 21 62 19 40 21 58 15
129 -6 77 -19 131 -34 143 -4 3 -12 14 -18 25 -12 23 -6 148 7 139 5 -3 14 6
21 20 10 23 17 26 59 26 26 0 50 4 53 9 3 5 38 17 78 26 40 10 78 22 85 27 6
5 33 13 60 16 37 6 50 13 60 32 17 34 -5 50 -71 50 -85 0 -402 8 -556 13 -80
3 -192 2 -250 -3z"/>
<path d="M15039 9459 c-26 -10 -59 -64 -59 -97 0 -10 -18 -72 -40 -137 -22
-65 -40 -129 -40 -141 0 -13 -4 -26 -10 -29 -5 -3 -10 -23 -10 -44 0 -43 15
-66 101 -153 55 -57 79 -71 79 -45 0 7 14 26 30 42 17 16 30 36 30 44 0 22 33
115 43 119 4 2 7 8 7 14 0 31 127 98 185 98 27 0 142 25 179 40 25 9 56 64 69
121 9 34 -7 87 -33 109 -45 39 -462 85 -531 59z"/>
<path d="M17935 9461 c-6 -11 9 -23 19 -14 9 9 7 23 -3 23 -6 0 -12 -4 -16 -9z"/>
<path d="M17992 9440 c0 -14 2 -19 5 -12 2 6 2 18 0 25 -3 6 -5 1 -5 -13z"/>
<path d="M1523 9068 c-18 -11 -33 -26 -33 -35 0 -8 4 -12 9 -8 6 3 14 -2 19
-11 6 -11 11 -13 16 -5 4 6 12 11 17 11 6 0 7 -5 4 -11 -4 -6 3 -13 14 -16 12
-3 28 -18 37 -34 8 -16 21 -29 28 -29 17 0 32 70 17 79 -5 4 -9 15 -8 25 1 10
-5 22 -13 26 -8 4 -25 12 -37 18 -29 15 -31 15 -70 -10z"/>
<path d="M7403 9021 c-110 -14 -125 -19 -152 -45 -17 -16 -40 -50 -53 -75 -22
-46 -22 -52 -34 -831 -7 -432 -17 -918 -22 -1080 -10 -328 -16 -360 -88 -461
-43 -59 -81 -85 -229 -153 -66 -31 -132 -63 -147 -71 -16 -8 -28 -10 -28 -4 0
5 69 43 153 83 84 41 167 86 185 101 47 40 88 103 112 175 25 74 24 53 40
1190 6 410 12 805 15 879 5 131 6 135 40 190 18 31 43 62 55 69 12 7 20 16 17
19 -7 7 -47 -15 -77 -42 -14 -12 -128 -62 -255 -110 -126 -48 -242 -93 -257
-101 -19 -10 -27 -11 -30 -2 -3 7 -9 8 -19 3 -24 -15 -52 -17 -46 -2 4 10 -45
12 -252 10 -320 -4 -321 -5 -321 -45 0 -25 -3 -29 -17 -23 -10 4 -31 11 -48
15 -16 4 -43 13 -58 19 -40 15 -46 14 -57 -11 -5 -13 -9 -17 -9 -9 -1 17 -41
53 -55 48 -17 -6 -36 -49 -36 -84 0 -62 -2 -62 -98 -37 -166 44 -295 75 -299
71 -2 -2 18 -10 44 -17 26 -7 100 -27 163 -45 63 -18 130 -36 148 -40 l32 -7
-1 -521 c-1 -287 -5 -549 -9 -582 -4 -36 -8 -47 -9 -27 -1 35 -14 41 -31 15
-9 -14 -10 -14 -7 -2 3 9 1 22 -4 30 -7 11 -9 10 -10 -6 -1 -17 -2 -16 -9 5
-7 23 -8 22 -9 -10 -1 -19 -5 -49 -10 -67 -8 -26 -6 -32 7 -35 14 -3 15 -4 2
-9 -8 -3 -91 16 -185 43 -93 26 -176 48 -182 48 -10 0 -13 -33 -13 -132 0 -73
4 -139 8 -146 5 -7 64 -28 133 -47 68 -19 138 -39 155 -45 65 -21 64 -24 64
125 0 83 4 135 10 135 6 0 10 -8 11 -17 0 -11 3 -13 6 -5 2 6 9 10 14 6 5 -3
9 10 10 28 0 18 3 27 6 21 2 -7 11 -13 18 -13 7 0 16 6 18 13 3 6 6 -234 6
-535 l1 -546 -29 11 c-17 6 -27 15 -24 21 3 5 1 6 -4 3 -10 -6 -201 57 -213
70 -11 11 67 -10 107 -30 24 -11 45 -18 48 -15 3 3 -15 15 -40 27 -25 12 -45
23 -45 26 0 6 63 -16 78 -28 11 -9 13 -6 10 9 -1 10 -7 22 -13 26 -6 4 -2 8 8
8 9 0 17 -4 17 -10 0 -5 14 -10 30 -10 26 0 31 5 37 30 3 17 9 30 14 30 12 0
10 49 -2 75 -7 15 -8 12 -4 -15 5 -34 5 -35 -10 -12 -9 12 -14 26 -11 30 2 4
1 14 -5 22 -6 11 -9 6 -9 -18 0 -20 -4 -31 -10 -27 -6 4 -10 -5 -10 -19 0 -14
-4 -26 -10 -26 -10 0 -12 92 -10 427 1 137 -1 152 -17 157 -10 3 -92 26 -182
51 -91 24 -168 51 -173 57 -6 10 -8 10 -8 0 0 -7 6 -15 13 -17 9 -4 12 -38 10
-132 -1 -70 3 -135 8 -145 10 -18 74 -40 238 -81 86 -22 123 -37 89 -37 -9 0
-78 18 -154 40 -76 22 -146 40 -155 40 -21 0 -39 41 -39 88 -1 32 -2 35 -12
17 -11 -19 -11 -19 -19 0 -7 18 -8 18 -8 2 -1 -10 -5 -16 -10 -12 -12 7 -25
107 -17 132 7 22 33 26 40 6 3 -7 11 -13 18 -13 7 0 2 11 -12 23 -23 20 -24
25 -13 47 l13 25 0 -27 c0 -15 5 -30 10 -33 13 -8 3 37 -16 74 -18 34 -18 46
1 31 18 -15 20 0 3 19 -11 11 -10 13 2 9 11 -4 16 3 17 23 1 16 -2 29 -7 29
-6 0 -10 12 -10 28 -1 26 -1 26 -13 6 -9 -17 -15 -19 -23 -10 -24 26 1 97 28
80 4 -3 8 2 8 11 0 9 -3 14 -7 12 -14 -9 -8 49 6 66 9 12 10 17 2 17 -8 0 -10
8 -6 20 4 12 2 27 -4 34 -6 8 -8 22 -4 32 6 17 8 16 14 -6 5 -17 7 -8 8 33 1
35 -3 57 -10 57 -7 0 -9 17 -4 51 5 39 4 50 -5 44 -6 -4 -9 -13 -6 -20 2 -7 1
-26 -4 -42 -7 -23 -8 -19 -9 29 -1 54 0 56 24 53 28 -3 33 10 9 23 -11 6 -13
11 -5 16 6 4 11 32 11 62 0 34 -4 53 -10 49 -5 -3 -10 -1 -10 4 0 6 5 11 10
11 6 0 8 20 4 53 -4 33 -2 62 5 74 8 16 7 24 -3 32 -15 13 -26 5 -25 -18 0
-12 2 -11 8 3 4 11 10 15 13 10 4 -5 0 -17 -7 -27 -13 -17 -14 -17 -20 3 -4
12 -4 32 -1 46 4 14 2 24 -4 24 -5 0 -10 7 -10 15 0 8 -4 15 -10 15 -11 0 -14
79 -4 105 5 13 8 14 15 3 7 -11 9 -11 9 1 0 11 3 11 14 1 13 -10 15 -4 14 39
-1 28 -5 51 -10 51 -5 0 -6 -4 -3 -10 3 -5 1 -10 -4 -10 -6 0 -11 15 -11 33 0
22 -3 28 -9 18 -13 -20 -19 6 -27 117 -6 89 -5 95 22 91 4 0 11 5 15 13 6 9 9
6 9 -10 0 -32 20 -17 21 16 1 15 5 -26 9 -91 5 -66 12 -123 17 -128 11 -11
278 -90 326 -96 l37 -5 1 118 c2 150 2 149 17 146 6 -1 12 2 12 7 0 4 -30 16
-67 25 -167 43 -282 80 -280 89 2 10 -26 20 -120 40 l-53 11 0 51 c0 27 4 45
8 39 8 -12 111 -46 190 -63 30 -6 62 -16 73 -21 10 -6 38 -14 61 -19 51 -10
202 -48 240 -60 24 -8 27 -6 33 20 4 17 2 36 -4 43 -10 12 -66 30 -83 27 -4 0
-28 6 -52 14 -25 9 -48 15 -53 14 -4 -1 -15 0 -23 3 -17 6 -46 15 -233 69 -76
22 -146 41 -155 42 -9 1 -23 7 -31 11 -8 5 -25 10 -38 12 -19 2 -23 -1 -19
-13 30 -76 35 -166 41 -672 3 -288 8 -528 12 -534 3 -6 1 -7 -5 -3 -14 9 -15
5 -2 -28 7 -19 6 -29 -5 -39 -11 -11 -11 -17 -2 -26 18 -18 23 -821 5 -832
-10 -7 -8 -9 5 -9 9 0 17 -6 17 -12 -1 -18 -29 -66 -30 -49 0 7 -6 11 -15 8
-11 -5 -13 0 -8 26 3 18 11 38 16 45 16 20 23 460 8 475 -8 8 -11 5 -11 -12 0
-14 -4 -20 -12 -16 -7 4 -4 -1 7 -10 14 -12 16 -19 8 -22 -7 -3 -13 -9 -13
-14 0 -6 5 -7 10 -4 6 3 10 -5 10 -18 0 -14 -7 -27 -15 -31 -10 -3 -15 1 -15
13 0 10 -7 22 -16 25 -12 5 -15 17 -12 54 3 26 8 55 12 65 6 12 4 17 -8 17 -9
0 -16 6 -16 14 0 8 -10 22 -21 30 -15 10 -23 29 -27 63 -3 26 -10 51 -16 55
-7 5 -4 8 7 8 9 0 17 7 17 15 0 8 -7 15 -15 15 -19 0 -19 19 0 26 25 10 17 23
-20 30 -31 6 -34 8 -19 19 11 8 14 17 9 26 -5 7 -9 23 -9 34 -1 27 -21 30 -21
3 0 -16 -9 -24 -34 -30 -24 -7 -31 -13 -27 -25 4 -9 -1 -21 -11 -29 -16 -11
-16 -16 -5 -35 10 -15 11 -24 3 -32 -6 -6 -11 -24 -11 -40 0 -16 -4 -26 -10
-22 -17 10 -11 -17 6 -30 13 -9 14 -16 5 -33 -6 -11 -11 -30 -11 -42 0 -12 -3
-19 -7 -17 -5 3 -7 -16 -6 -41 1 -45 1 -45 -6 -12 l-8 35 -2 -42 c0 -23 -10
-126 -21 -230 -24 -233 -53 -613 -54 -713 -1 -56 4 -83 16 -102 17 -25 17 -26
-7 -32 -32 -8 -33 -42 -2 -52 12 -4 117 -98 233 -210 211 -203 260 -240 307
-229 35 9 394 -51 562 -93 l150 -38 1 -485 c2 -526 -7 -983 -18 -994 -4 -4
-20 7 -35 25 -15 18 -41 39 -58 47 -16 7 -43 22 -60 32 -16 10 -33 17 -37 15
-10 -6 -17 81 -24 307 -3 113 -9 211 -13 216 -8 13 -198 49 -208 40 -9 -10 -4
-511 7 -625 15 -162 82 -240 225 -262 l50 -8 -45 -1 c-33 -1 -41 -4 -30 -11
13 -8 13 -10 -2 -10 -10 0 -22 -9 -28 -21 -7 -12 -18 -18 -26 -15 -7 3 -26 -1
-41 -9 -16 -8 -36 -16 -46 -19 -15 -5 -18 -15 -16 -52 2 -29 -2 -48 -10 -53
-16 -10 -7 -16 34 -25 18 -4 35 -16 40 -28 6 -13 21 -25 35 -28 15 -4 24 -13
24 -23 -1 -9 2 -17 7 -17 5 0 9 10 9 21 0 18 2 19 15 9 13 -11 15 -8 15 19 0
21 5 31 15 31 8 0 15 -6 15 -14 0 -7 6 -19 14 -25 7 -6 11 -22 8 -36 -4 -22
-10 -25 -43 -25 -22 0 -39 -4 -39 -10 0 -5 9 -10 21 -10 12 0 19 -5 16 -12 -2
-8 -18 -12 -42 -10 -47 4 -78 19 -72 35 20 48 20 50 6 45 -8 -3 -13 -13 -11
-23 3 -14 -1 -16 -22 -11 -55 14 -72 25 -85 59 -10 26 -22 37 -42 41 -16 3
-38 15 -49 26 -11 11 -24 20 -30 20 -6 0 -10 4 -10 8 0 8 -70 30 -112 35 -32
4 -128 72 -140 100 -7 15 -20 27 -28 27 -9 0 -20 4 -26 10 -14 14 -103 29
-110 18 -3 -5 -14 -6 -23 -3 -10 3 -29 -4 -44 -15 -14 -11 -30 -20 -35 -20 -5
0 -12 -14 -16 -31 -10 -53 -7 -69 13 -69 13 0 23 -11 30 -32 6 -18 29 -53 51
-77 22 -24 40 -46 40 -50 1 -3 14 -22 30 -41 17 -19 30 -42 30 -52 0 -10 5
-18 10 -18 6 0 10 -9 10 -20 0 -35 -38 -44 -131 -31 -46 6 -94 12 -106 14 -12
1 -25 5 -29 9 -13 13 -43 9 -84 -12 -22 -11 -44 -19 -49 -18 -4 2 -26 -13 -47
-33 -22 -19 -45 -34 -51 -32 -7 3 -20 0 -31 -6 -13 -7 -31 -5 -63 6 -24 8 -84
20 -134 24 -49 5 -103 11 -119 13 -48 7 -71 39 -95 134 -20 82 -21 108 -20
477 2 286 -1 407 -11 453 -7 37 -10 89 -7 125 8 85 45 262 67 317 10 25 20 68
23 97 5 50 4 53 -28 77 l-33 25 -243 -6 c-224 -5 -290 -3 -594 23 -33 3 -94 9
-135 14 -43 5 -136 6 -215 1 -79 -4 -151 -4 -164 1 -27 10 -519 12 -726 3
-234 -10 -508 -18 -600 -17 -49 0 -168 -3 -263 -8 -169 -9 -173 -10 -216 -40
-37 -24 -55 -30 -100 -30 -78 0 -149 17 -193 47 -35 24 -41 25 -137 19 -97 -6
-137 -15 -201 -41 -53 -23 -188 -64 -247 -75 l-58 -11 0 -864 0 -863 38 -5
c62 -8 573 0 582 9 5 5 -6 19 -28 34 -20 14 -41 30 -45 37 -4 7 -14 13 -22 13
-8 0 -22 13 -32 30 -9 17 -20 30 -24 30 -11 0 -22 63 -20 113 2 31 -1 47 -9
47 -8 0 -10 10 -6 33 3 17 15 97 25 176 15 110 24 147 36 154 12 6 15 16 10
34 -4 16 -1 32 8 42 17 19 47 107 43 124 -1 7 -1 8 2 4 7 -13 41 64 35 79 -3
8 1 14 10 14 9 0 21 2 29 5 20 8 62 -93 89 -212 19 -88 27 -107 61 -144 21
-23 38 -45 38 -50 0 -5 9 -10 20 -10 11 -1 23 -3 28 -4 4 -1 25 -5 47 -9 31
-6 47 -18 74 -52 30 -40 33 -48 25 -82 -4 -20 -7 -70 -6 -109 3 -83 -27 -173
-57 -173 -9 0 -22 -9 -28 -19 -7 -11 -28 -24 -47 -31 -20 -6 -36 -15 -36 -20
0 -5 -20 -12 -44 -15 -48 -8 -64 -26 -40 -46 15 -12 105 -13 269 -4 182 10
504 7 484 -5 -6 -4 18 -10 52 -12 35 -3 69 -2 74 3 14 10 125 -1 125 -13 0 -5
4 -7 9 -4 5 3 14 -1 21 -9 7 -8 19 -15 28 -15 8 0 24 -8 34 -17 20 -18 69 -20
478 -28 254 -5 322 -11 415 -35 44 -12 94 -25 110 -29 37 -9 373 6 395 17 17
10 92 4 86 -7 -2 -3 48 -7 112 -9 64 -1 119 -6 122 -11 6 -11 206 -7 231 3 10
4 20 2 24 -4 5 -7 11 -8 19 -1 27 23 144 51 211 51 62 0 218 -25 316 -51 20
-5 63 -9 95 -9 33 0 75 -5 94 -10 19 -6 58 -11 85 -11 76 1 271 -19 355 -36
41 -8 101 -16 132 -17 98 -4 290 -117 336 -198 21 -36 21 -41 7 -52 -13 -9
-14 -17 -5 -40 5 -15 19 -30 30 -33 11 -3 20 -9 20 -14 0 -5 6 -9 13 -9 8 0
19 -10 26 -23 16 -31 62 -57 98 -57 50 0 71 -11 97 -51 20 -30 24 -43 17 -61
-6 -13 -13 -40 -16 -61 -7 -45 -30 -57 -106 -57 -27 0 -49 -4 -49 -9 0 -16
-214 -42 -236 -28 -5 3 -43 7 -84 8 -41 1 -100 9 -130 17 -53 13 -128 12 -237
-4 -25 -3 -102 3 -185 15 -216 31 -399 49 -545 56 -72 3 -142 9 -155 14 -13 5
-63 11 -113 15 -220 15 -453 38 -490 46 -22 6 -120 17 -219 25 -98 8 -208 22
-245 31 -48 12 -109 16 -228 15 -191 -2 -428 21 -568 54 -55 13 -129 29 -165
34 -36 6 -108 19 -160 30 -52 11 -120 23 -150 26 -30 3 -72 10 -94 16 -82 22
-157 31 -321 39 -153 7 -393 36 -485 59 -30 8 -150 19 -270 26 -31 2 -308 13
-462 19 l-58 2 0 -297 0 -298 38 -3 c20 -2 80 1 132 5 69 6 129 4 220 -7 69
-9 172 -16 230 -16 58 0 121 -5 140 -10 19 -6 174 -13 345 -15 358 -6 439 -10
549 -34 66 -13 99 -15 181 -7 78 7 126 6 220 -7 129 -18 210 -24 403 -32 68
-3 129 -8 134 -11 6 -4 113 -10 237 -15 124 -4 269 -15 321 -23 52 -9 109 -17
125 -17 17 -1 48 -6 70 -11 24 -5 71 -6 115 0 41 5 113 5 160 1 47 -5 139 -11
205 -14 104 -5 225 -15 370 -30 22 -2 92 -7 155 -10 74 -4 149 -16 210 -32 52
-14 115 -28 140 -32 25 -4 50 -10 57 -14 6 -4 60 -9 120 -11 73 -3 118 -9 138
-20 17 -9 36 -16 43 -16 7 0 32 -10 55 -22 23 -12 50 -21 59 -19 10 1 27 -3
39 -9 16 -9 23 -9 29 -1 3 6 15 13 26 15 10 2 46 13 79 24 55 19 61 19 77 5
17 -15 18 -14 18 5 0 12 5 22 11 22 5 0 7 -4 4 -10 -3 -5 -1 -10 5 -10 6 0 9
-4 6 -9 -7 -11 38 -31 88 -38 40 -5 107 -29 172 -59 21 -10 40 -33 59 -70 34
-66 115 -127 152 -113 20 8 22 5 29 -79 7 -88 -4 -634 -13 -659 -4 -10 -9 -11
-19 -2 -8 7 -28 9 -49 5 -24 -5 -48 -1 -78 12 -23 10 -59 22 -78 26 -20 3 -46
16 -58 27 -14 14 -31 19 -47 16 -13 -2 -24 -1 -24 2 0 4 -18 5 -40 3 -22 -2
-40 0 -40 5 0 10 -230 9 -332 -2 -47 -5 -68 -4 -68 3 0 20 -83 35 -190 34
-174 0 -584 -18 -601 -26 -14 -6 -167 3 -324 19 -159 17 -222 18 -325 6 -41
-4 -113 -7 -160 -7 -78 2 -121 8 -254 38 -27 6 -70 12 -97 14 -76 5 -212 25
-239 35 -37 14 -104 20 -200 17 -175 -4 -206 -3 -250 11 -25 8 -50 18 -55 22
-10 7 -113 11 -170 7 -16 -2 -40 -12 -52 -23 -39 -35 -48 -41 -83 -54 -69 -26
-112 -30 -154 -14 -23 8 -81 18 -131 23 -130 14 -192 25 -207 37 -14 11 -53
20 -128 28 -25 3 -64 15 -87 26 -37 18 -58 20 -190 17 -140 -3 -150 -2 -188
20 -51 31 -135 41 -154 18 -7 -9 -11 -16 -7 -16 4 0 -1 -14 -9 -30 -15 -30
-12 -68 6 -80 4 -3 11 -28 14 -57 l7 -51 -42 8 c-24 4 -47 15 -52 24 -8 14
-60 41 -144 75 -23 9 -51 10 -105 3 -41 -5 -90 -8 -109 -7 -19 2 -45 3 -57 4
-12 0 -28 7 -35 14 -62 60 -202 95 -252 62 -14 -10 -26 -24 -26 -31 0 -8 -6
-14 -14 -14 -8 0 -16 -7 -20 -15 -3 -8 -12 -15 -21 -15 -13 0 -15 -61 -15
-530 l0 -530 2040 0 c1734 0 2040 2 2040 14 0 8 15 17 35 20 19 4 54 16 79 26
30 14 74 22 139 24 153 7 227 28 227 64 1 16 1 16 14 0 7 -10 22 -18 32 -18
16 0 19 8 19 45 0 25 -3 45 -7 45 -12 0 -9 38 3 46 6 3 15 1 19 -6 6 -10 12
-7 26 9 10 11 30 21 44 21 21 0 18 3 -18 22 -34 16 -46 18 -52 8 -5 -9 -9 -9
-14 -1 -8 12 -3 14 57 30 28 7 37 6 37 -3 0 -9 9 -12 24 -9 29 6 41 -10 26
-36 -11 -22 5 -45 39 -56 11 -3 22 -12 25 -20 3 -8 15 -15 26 -15 11 0 38 -18
60 -40 23 -23 50 -40 63 -40 13 0 29 -6 35 -12 10 -10 14 -10 21 0 5 9 36 14
94 15 l86 2 9 37 c8 31 7 38 -7 41 -10 2 -1 11 27 25 38 20 47 22 78 10 18 -6
34 -18 34 -25 0 -7 6 -13 13 -13 21 0 67 -24 67 -36 0 -5 9 -20 20 -32 11 -12
23 -36 27 -54 3 -18 13 -45 22 -60 l15 -28 1332 0 1332 0 5 21 c7 26 -1 49
-18 49 -17 0 -25 46 -25 136 0 40 -5 85 -12 100 -10 22 -10 28 5 39 9 7 17 17
17 23 0 6 7 15 17 20 14 9 14 11 -5 21 -12 7 -22 19 -22 27 0 8 5 12 10 9 17
-11 46 4 58 30 7 14 15 24 19 23 13 -3 82 25 78 32 -2 3 16 12 41 19 24 7 44
17 44 21 0 4 -20 14 -44 21 -29 8 -42 17 -39 26 6 16 -36 53 -53 46 -13 -5
-104 79 -104 96 0 12 -11 14 -34 5 -15 -6 -15 -8 1 -19 16 -12 14 -14 -17 -28
-19 -8 -46 -24 -59 -36 -19 -16 -37 -21 -80 -21 -56 0 -137 21 -125 33 9 9
-63 20 -90 13 -36 -9 -111 8 -135 31 -20 19 -33 20 -189 17 -92 -2 -192 1
-222 7 -30 5 -72 12 -92 13 -20 2 -40 6 -45 9 -5 3 -43 7 -85 8 l-76 2 -6 45
c-8 58 -8 482 0 549 7 51 7 51 33 41 14 -5 49 -12 76 -15 28 -2 70 -12 95 -21
39 -14 80 -16 290 -12 322 5 397 5 505 -3 122 -9 137 -13 235 -65 84 -45 87
-45 211 -53 120 -7 237 -25 344 -54 28 -8 82 -17 121 -20 77 -7 86 -3 98 48 5
22 12 27 39 27 30 0 104 -24 174 -55 17 -8 34 -15 38 -15 8 0 74 -28 95 -41
35 -20 84 -39 105 -39 12 0 33 -9 46 -20 13 -11 40 -33 59 -49 31 -25 141 -82
257 -132 53 -22 74 -56 47 -76 -23 -17 -128 -17 -146 0 -7 7 -57 30 -110 51
-54 22 -98 43 -98 48 0 14 -61 36 -124 46 -73 12 -73 -2 -3 -59 28 -24 66 -57
83 -74 18 -16 55 -52 83 -79 47 -46 50 -51 37 -70 -7 -12 -23 -22 -35 -24 -11
-2 -21 -10 -21 -19 0 -13 3 -13 26 2 16 10 35 14 52 10 17 -3 35 0 47 9 25 19
35 20 35 2 0 -8 11 -17 25 -20 15 -4 25 -14 25 -24 0 -19 -34 -62 -49 -62 -5
0 -7 -9 -4 -20 3 -11 13 -20 22 -20 9 0 26 -11 39 -25 15 -16 37 -25 65 -28
l42 -4 -42 -1 c-54 -2 -57 -22 -3 -22 33 0 40 -3 40 -20 0 -17 -7 -20 -40 -20
-33 0 -40 -3 -40 -19 0 -13 -8 -21 -22 -23 -22 -3 -22 -3 -2 -22 19 -20 19
-20 22 2 2 14 10 22 23 22 16 0 19 -7 19 -44 0 -29 -6 -51 -17 -62 -17 -17
-18 -17 -21 4 -3 19 -7 17 -43 -19 -25 -25 -39 -33 -39 -24 0 11 -8 7 -27 -12
-16 -16 -52 -40 -80 -54 -49 -24 -53 -24 -53 -7 0 23 -17 23 -58 -2 -50 -30
-102 -87 -102 -110 0 -11 -7 -20 -15 -20 -8 0 -15 -4 -15 -10 0 -7 1465 -10
4375 -10 l4375 0 0 1509 0 1509 -167 -4 c-93 -2 -328 -4 -523 -5 -195 0 -379
-5 -407 -10 -41 -8 -59 -7 -81 5 -38 20 -56 19 -187 -9 -242 -51 -320 -57
-405 -29 -41 13 -60 14 -113 5 -92 -16 -146 -13 -196 9 -45 21 -183 34 -211
20 -8 -4 -59 0 -113 9 -76 13 -106 23 -132 44 -19 15 -37 27 -41 27 -32 0
-124 -61 -177 -116 -69 -73 -94 -89 -163 -104 -88 -20 -132 22 -154 147 -6 40
-17 76 -23 80 -6 4 -27 8 -47 10 -36 3 -96 55 -85 73 3 4 -7 32 -21 61 -27 52
-27 54 -14 133 16 107 13 246 -6 267 -12 14 -13 18 -2 22 10 3 9 9 -5 25 -27
30 -43 102 -58 258 -8 83 -18 144 -26 152 -7 7 -44 15 -83 18 -38 3 -78 7 -87
9 -10 2 -21 4 -25 4 -5 1 -8 6 -8 12 0 6 -7 25 -15 43 -15 30 -18 32 -64 30
-29 -1 -64 -10 -83 -21 -131 -79 -150 -86 -207 -84 -89 3 -160 27 -172 58 -5
15 -16 31 -23 37 -27 23 -51 152 -36 192 6 14 12 59 15 100 5 69 4 76 -14 81
-21 5 -35 29 -26 43 3 5 -3 15 -13 22 -11 7 -18 23 -17 36 1 13 -5 30 -12 38
-8 8 -12 22 -8 33 3 11 -1 36 -10 57 -8 20 -18 62 -22 93 -3 31 -12 65 -19 76
-7 11 -16 38 -20 60 -3 22 -10 45 -14 50 -5 6 -12 43 -15 82 -4 41 -13 78 -21
84 -8 6 -14 18 -14 25 0 20 -14 17 -56 -11 -21 -14 -44 -23 -52 -20 -38 14
-97 -50 -112 -122 -11 -52 -9 -141 4 -162 3 -5 8 -45 10 -89 5 -80 15 -110 78
-212 12 -19 27 -57 35 -85 12 -47 12 -52 -13 -100 -14 -27 -33 -57 -40 -66 -8
-9 -23 -41 -34 -72 -17 -47 -21 -93 -26 -289 -3 -128 -7 -258 -9 -288 -12
-198 -18 -257 -33 -280 -10 -15 -14 -43 -13 -77 1 -31 -3 -59 -11 -69 -86
-108 -193 -143 -417 -135 -84 3 -84 3 -115 -31 -41 -44 -93 -63 -116 -43 -9 8
-22 15 -28 15 -10 0 -20 23 -72 160 -9 25 -25 89 -35 143 -10 53 -22 97 -26
97 -5 0 -11 17 -15 38 -4 20 -11 42 -16 48 -5 7 -11 35 -15 63 -3 28 -10 51
-14 51 -5 0 -9 -6 -9 -14 0 -9 -7 -12 -20 -9 -16 4 -20 -1 -26 -36 -4 -22 -15
-51 -26 -63 -43 -52 -82 -88 -94 -88 -7 0 -17 -7 -21 -15 -7 -11 -47 -19 -153
-30 -80 -9 -174 -20 -210 -25 -36 -5 -101 -14 -145 -19 -44 -6 -102 -15 -130
-20 -27 -5 -53 -7 -57 -5 -4 2 -28 0 -54 -6 -43 -10 -49 -9 -80 15 -19 14 -34
32 -34 39 0 7 -20 21 -45 31 -45 17 -75 15 -75 -5 0 -5 -8 -10 -18 -10 -10 0
-25 -8 -33 -17 -49 -55 -65 -62 -151 -64 -140 -2 -261 42 -360 130 -31 28 -61
51 -66 51 -14 0 -67 70 -78 102 -11 35 -74 116 -93 120 -26 6 -40 103 -32 223
9 117 1 252 -20 349 -12 55 -12 59 9 75 14 10 19 21 13 29 -7 11 -9 11 -14 -2
-8 -20 -47 -21 -47 -2 0 7 -7 20 -17 27 -9 8 -21 27 -28 43 l-12 28 -7 -26
c-6 -24 -9 -26 -46 -20 -40 7 -45 2 -41 -32 1 -6 -6 -17 -14 -24 -8 -7 -15
-24 -15 -38 0 -14 -8 -34 -17 -44 -14 -15 -16 -36 -14 -118 2 -88 1 -99 -13
-94 -11 4 -19 -2 -25 -17 -6 -18 -16 -24 -39 -24 -16 0 -28 3 -25 8 2 4 -3 7
-12 7 -9 0 -14 -4 -11 -8 2 -4 1 -14 -4 -22 -8 -13 -12 -12 -25 5 -15 20 -15
20 -30 1 -14 -19 -20 -12 -16 19 1 6 -8 -1 -20 -15 -19 -22 -20 -33 -15 -110
6 -95 -12 -165 -56 -213 -38 -42 -48 -56 -48 -68 0 -23 -42 -103 -77 -146 -18
-23 -33 -45 -33 -51 0 -15 -83 -82 -103 -82 -10 0 -21 9 -24 19 -8 30 -79 42
-126 20 -32 -14 -65 3 -133 69 -40 39 -54 60 -59 91 -4 22 -11 43 -16 47 -22
13 -47 90 -54 163 -6 67 -12 88 -41 131 -19 28 -34 58 -34 65 0 7 -7 15 -15
19 -21 8 -19 23 6 29 19 5 20 10 13 69 -8 76 -18 98 -44 98 -16 0 -20 -7 -20
-30 0 -28 -3 -30 -35 -30 -19 0 -35 -4 -35 -10 0 -5 5 -10 11 -10 7 0 10 -14
7 -35 -2 -19 -2 -32 1 -30 9 9 32 -35 24 -48 -10 -16 -16 -69 -16 -134 0 -29
-4 -54 -9 -54 -13 -2 -22 -5 -41 -14 -23 -10 -35 2 -39 40 -2 23 -9 31 -28 33
-14 2 -35 13 -47 25 -21 19 -22 22 -7 38 9 10 13 23 9 28 -3 6 1 11 9 11 19 0
20 5 6 31 -11 20 -45 26 -55 9 -3 -5 -1 -10 4 -10 6 0 11 -12 11 -26 0 -14 -4
-23 -10 -19 -6 4 -8 10 -5 15 7 11 -19 20 -44 13 -17 -4 -21 -13 -21 -49 0
-57 -16 -57 -86 -4 -29 22 -58 40 -64 40 -5 0 -10 13 -10 29 0 16 -7 34 -16
42 -8 7 -22 26 -31 43 -23 46 -64 86 -88 86 -14 0 -24 10 -32 30 -6 17 -18 30
-27 30 -8 0 -20 9 -26 20 -9 16 -6 31 14 70 14 28 21 50 17 50 -5 0 -12 12
-16 28 -3 15 -13 41 -20 57 -7 17 -16 41 -19 55 -2 14 -12 50 -21 80 -9 30
-18 62 -20 70 -2 8 -5 21 -7 29 -2 9 8 17 28 21 17 4 47 18 65 31 33 24 66 42
102 53 13 4 17 17 17 57 0 48 -1 51 -22 45 -13 -3 -69 -11 -125 -16 -56 -5
-110 -14 -120 -21 -15 -9 -31 -6 -81 15 -34 14 -68 26 -77 26 -8 0 -32 9 -52
20 -41 22 -93 25 -163 9 -77 -18 -114 -19 -137 -7 -13 6 -23 17 -23 24 0 6
-10 14 -22 18 -17 4 -28 -1 -40 -16 -14 -19 -19 -20 -32 -9 -12 10 -22 11 -43
3 -16 -6 -44 -13 -63 -14 -30 -3 -35 -7 -38 -30 -3 -23 -10 -30 -43 -38 -21
-6 -39 -15 -39 -20 0 -5 -21 -16 -47 -23 -29 -9 -49 -21 -51 -31 -2 -9 2 -16
8 -16 6 0 26 -15 45 -34 35 -36 92 -69 105 -61 7 5 87 -33 112 -52 7 -6 41
-13 76 -17 l63 -6 -27 23 c-27 23 -27 23 -9 53 34 54 54 64 130 64 46 0 91 -7
128 -20 74 -26 110 -30 131 -15 9 7 26 11 36 8 29 -8 119 -157 112 -185 -1 -4
4 -37 12 -72 7 -36 11 -67 9 -70 -2 -2 -4 -47 -4 -100 -1 -76 -3 -96 -15 -96
-8 0 -14 6 -14 14 0 8 -8 13 -17 12 -12 -1 -19 7 -21 22 -3 16 -8 22 -19 18
-8 -3 -16 -6 -18 -6 -2 0 -1 -9 2 -20 3 -11 9 -20 13 -20 13 0 20 -43 8 -57
-16 -19 -22 -16 -37 20 -8 17 -21 37 -29 43 -21 15 -11 48 16 52 29 4 28 15
-3 32 -14 7 -25 21 -25 31 0 10 -7 22 -16 27 -9 5 -15 12 -15 15 4 28 -6 45
-59 97 -34 33 -64 60 -67 60 -4 0 -14 6 -22 14 -9 7 -28 16 -44 20 -23 5 -29
2 -37 -16 -7 -18 -9 -19 -9 -5 -1 9 -9 17 -18 17 -9 0 -27 9 -39 21 l-21 20
-6 -26 c-3 -21 2 -33 26 -53 38 -34 54 -51 92 -97 17 -20 35 -43 42 -49 6 -7
17 -33 24 -57 6 -24 21 -52 33 -63 l21 -18 -24 -19 -23 -19 29 -11 c15 -6 48
-14 72 -17 31 -3 45 -10 48 -23 3 -12 14 -19 28 -19 20 0 22 -3 16 -27 -7 -28
-61 -54 -61 -30 -1 7 -7 -3 -15 -20 -8 -18 -19 -33 -25 -33 -5 0 -24 -13 -41
-30 -28 -26 -31 -34 -27 -73 5 -42 23 -72 62 -106 47 -40 66 -68 66 -94 0 -45
-44 -79 -128 -98 -38 -8 -47 -7 -73 12 -16 11 -36 18 -44 15 -9 -3 -15 0 -15
8 0 8 -17 18 -37 23 -28 6 -39 14 -41 31 -3 21 -32 32 -32 12 0 -5 -16 -16
-36 -25 -20 -8 -38 -23 -41 -34 -4 -18 -11 -19 -74 -12 -6 1 -99 126 -115 156
-6 11 -22 22 -35 23 -13 2 -33 12 -44 21 -35 31 -46 34 -68 14 -22 -18 -22
-18 -5 2 9 11 28 45 42 75 l26 55 0 347 0 346 -71 12 c-51 9 -78 9 -95 2 -19
-9 -22 -8 -17 3 3 8 1 15 -5 15 -17 0 -22 -86 -23 -389 -1 -228 -4 -284 -11
-241 -8 44 -12 51 -22 39 -10 -14 -13 -14 -30 2 -10 10 -23 16 -29 12 -5 -3
-3 -9 4 -14 12 -8 11 -11 -1 -19 -8 -5 -23 -10 -32 -10 -10 0 -18 -4 -18 -10
0 -5 -9 -10 -20 -10 -20 0 -24 -12 -20 -58 1 -21 -1 -22 -19 -12 -20 10 -21
18 -22 263 0 139 -1 474 -2 746 l-2 494 90 19 c49 10 164 36 255 57 158 38
348 70 418 70 19 0 46 8 60 17 41 27 203 175 334 307 65 64 125 117 133 117
18 0 20 19 3 24 -52 16 -50 12 -28 53 11 21 20 51 20 68 0 27 -5 32 -47 45
l-46 15 -28 140 c-32 158 -201 1027 -253 1300 -19 99 -80 411 -135 692 -56
282 -101 515 -101 518 0 9 -89 3 -217 -14z m-271 -193 c-6 -50 -9 -54 -27 -47
-17 6 -17 8 -2 8 9 1 17 5 17 10 0 20 -125 -29 -153 -60 -12 -13 -27 -19 -40
-15 -16 4 -93 -20 -239 -76 -16 -6 -28 -14 -28 -18 0 -5 39 8 88 27 115 45
165 63 170 59 3 -3 -47 -24 -160 -65 l-28 -11 0 -145 c0 -80 3 -145 6 -145 4
0 54 20 113 44 58 24 124 50 146 58 l40 14 3 134 c2 118 0 136 -15 147 -15 12
-15 13 4 13 12 0 25 5 28 10 3 6 11 10 16 10 6 0 7 -5 3 -11 -4 -8 0 -9 15 -4
24 7 26 0 6 -35 -18 -31 -19 -48 -3 -32 7 7 16 12 20 12 4 0 8 -140 8 -311 0
-204 -3 -308 -10 -304 -5 3 -10 -1 -10 -9 0 -9 5 -16 11 -16 7 0 8 -82 4 -262
-3 -145 -8 -378 -10 -518 -7 -437 -7 -448 -14 -410 -7 35 -7 35 -15 -18 -4
-29 -15 -59 -23 -68 -12 -11 -13 -18 -4 -27 6 -6 11 -20 11 -31 0 -12 5 -28
11 -36 7 -11 8 -5 3 21 -3 20 -2 39 3 42 4 3 8 -11 7 -31 -1 -72 -4 -83 -16
-76 -7 5 -8 3 -4 -5 5 -7 0 -21 -11 -33 -10 -12 -12 -18 -6 -14 9 5 11 2 7 -8
-3 -9 -10 -13 -15 -10 -5 3 -6 -1 -3 -9 10 -26 -80 -90 -229 -164 -80 -40
-149 -73 -154 -73 -4 0 -8 528 -8 1172 l0 1173 80 32 c44 17 151 60 238 94 87
34 160 66 163 71 12 18 14 0 6 -54z m-2028 -333 c3 -176 9 -500 12 -720 17
-1086 17 -1094 45 -1155 55 -118 112 -160 327 -239 86 -32 170 -63 186 -68 17
-5 32 -15 34 -23 3 -9 0 -11 -14 -5 -11 4 -93 34 -184 67 -210 75 -242 92
-296 154 -94 110 -102 164 -104 709 -1 187 -3 358 -5 380 -2 22 -6 281 -9 575
-4 294 -9 569 -11 610 -3 47 -2 68 4 55 4 -11 11 -164 15 -340z m703 128 c-3
-10 -5 -4 -5 12 0 17 2 24 5 18 2 -7 2 -21 0 -30z m62 -240 c0 -25 -1 -25 -8
-8 -5 11 -7 23 -4 28 8 14 13 7 12 -20z m-692 -720 c-3 -10 -5 -2 -5 17 0 19
2 27 5 18 2 -10 2 -26 0 -35z m6 -83 c3 -11 1 -20 -4 -20 -5 0 -9 9 -9 20 0
11 2 20 4 20 2 0 6 -9 9 -20z m24 -42 c-3 -8 -6 -5 -6 6 -1 11 2 17 5 13 3 -3
4 -12 1 -19z m-20 -40 c-3 -8 -6 -5 -6 6 -1 11 2 17 5 13 3 -3 4 -12 1 -19z
m-327 -98 c0 -5 -2 -10 -4 -10 -3 0 -8 5 -11 10 -3 6 -1 10 4 10 6 0 11 -4 11
-10z m-63 -172 c-3 -7 -5 -2 -5 12 0 14 2 19 5 13 2 -7 2 -19 0 -25z m400 -70
c-3 -7 -5 -2 -5 12 0 14 2 19 5 13 2 -7 2 -19 0 -25z m-131 -89 c1 -59 1 -61
-6 -19 -4 27 -8 35 -9 20 -1 -22 -3 -23 -12 -7 -13 22 -2 80 14 74 7 -2 13
-29 13 -68z m-20 -73 c3 -8 4 -23 2 -33 -3 -13 -7 -9 -15 15 -12 31 1 48 13
18z m-26 -82 c0 -8 -4 -12 -10 -9 -5 3 -10 10 -10 16 0 5 5 9 10 9 6 0 10 -7
10 -16z m242 -133 c5 -90 34 -152 93 -196 36 -28 196 -95 227 -95 10 0 18 -5
18 -11 0 -5 5 -7 10 -4 6 3 10 1 10 -5 0 -7 -10 -8 -27 -3 -16 4 -41 7 -56 7
-17 -1 -24 2 -17 6 9 5 5 10 -10 15 -14 4 -25 3 -30 -5 -5 -9 -16 -5 -36 14
-16 14 -50 39 -75 55 -56 35 -109 121 -117 190 -2 25 -12 54 -20 64 -15 16
-14 17 1 11 10 -3 17 -1 17 5 0 6 -6 11 -14 11 -9 0 -12 7 -9 20 11 43 30 0
35 -79z m-226 -8 c-10 -10 -19 5 -10 18 6 11 8 11 12 0 2 -7 1 -15 -2 -18z
m-20 -97 c-4 -27 -49 -73 -66 -69 -16 4 -16 7 -3 34 9 17 22 29 34 29 11 0 17
5 14 10 -3 6 0 10 9 10 8 0 13 -6 12 -14z m-78 -100 c-6 -11 -19 -28 -30 -37
-10 -9 -18 -21 -18 -27 0 -6 -4 -14 -10 -17 -5 -3 -3 13 6 37 9 28 11 44 4 46
-5 2 -10 9 -10 16 0 8 12 11 35 8 32 -4 34 -6 23 -26z m357 4 c-3 -5 -12 -10
-18 -10 -7 0 -6 4 3 10 19 12 23 12 15 0z m5 -45 c13 -16 45 -21 36 -6 -10 16
18 19 47 4 31 -16 35 -29 10 -36 -11 -3 -5 -5 12 -6 17 -1 40 -7 52 -14 21
-12 22 -13 4 -24 -11 -7 -23 -8 -32 -2 -8 5 -24 9 -37 9 -12 0 -25 7 -29 16
-4 11 -14 14 -32 10 -14 -3 -20 -3 -13 0 9 4 4 15 -17 35 -17 16 -27 29 -22
29 5 0 14 -7 21 -15z m-450 -75 c0 -5 -5 -10 -11 -10 -5 0 -7 5 -4 10 3 6 8
10 11 10 2 0 4 -4 4 -10z m-37 -29 c-3 -12 -11 -17 -19 -14 -17 6 -18 20 -1
26 22 9 25 7 20 -12z m-33 -40 c0 -6 -4 -13 -10 -16 -5 -3 -10 1 -10 9 0 9 5
16 10 16 6 0 10 -4 10 -9z m1077 -73 c-3 -8 -6 -5 -6 6 -1 11 2 17 5 13 3 -3
4 -12 1 -19z m-2673 -1983 c9 -13 16 -29 16 -36 0 -6 8 -18 19 -27 38 -35 66
-216 77 -507 5 -135 10 -178 25 -209 11 -22 19 -46 19 -53 0 -7 3 -13 8 -13 4
0 16 -13 26 -29 35 -52 63 -61 189 -61 99 0 118 -3 138 -19 21 -18 23 -22 11
-42 -11 -18 -11 -23 -1 -30 19 -11 -34 -23 -77 -16 -26 5 -34 2 -34 -10 0 -12
-6 -14 -27 -8 -16 4 -59 10 -98 14 -62 7 -76 5 -130 -18 -33 -14 -63 -30 -66
-35 -4 -5 -20 -4 -39 3 -18 6 -53 11 -76 11 -24 0 -44 4 -44 10 0 5 -12 13
-27 16 -26 6 -121 52 -133 64 -20 20 -69 31 -152 33 -74 2 -101 7 -116 20 -10
9 -28 17 -40 17 -12 0 -31 9 -42 20 -11 11 -33 20 -51 20 -16 0 -28 4 -25 8 3
5 -5 14 -17 21 -22 12 -47 53 -47 78 0 7 -7 13 -15 13 -8 0 -15 -9 -15 -20 0
-11 7 -20 15 -20 8 0 15 -9 15 -20 0 -11 -7 -20 -15 -20 -8 0 -15 9 -15 20 0
12 -7 20 -16 20 -12 0 -15 -7 -12 -25 3 -14 1 -25 -5 -25 -5 0 -7 18 -3 45 7
43 6 45 -18 45 -24 0 -26 -4 -26 -40 l0 -40 -51 0 c-31 0 -48 -4 -44 -10 3 -5
24 -10 46 -10 54 0 42 -14 -24 -29 -51 -11 -72 -24 -107 -67 -26 -31 -89 -78
-108 -80 -9 -1 -47 -5 -84 -9 -59 -7 -68 -6 -68 9 0 9 -7 16 -16 16 -8 0 -12
5 -9 10 3 6 -1 10 -9 10 -23 0 -27 30 -30 231 -2 111 -8 202 -15 229 -15 50
-15 57 -10 214 2 73 7 112 16 121 7 8 13 18 13 23 0 5 11 14 25 20 14 6 25 18
25 26 0 7 7 19 15 26 8 7 15 20 15 29 0 9 14 29 31 46 l30 29 36 -19 c19 -11
38 -26 41 -35 3 -8 10 -21 16 -28 5 -8 11 -23 13 -34 4 -25 35 -78 45 -78 4 0
8 -12 8 -26 0 -32 30 -124 40 -124 5 0 11 -17 15 -38 11 -69 32 -117 56 -129
24 -12 47 -60 48 -100 1 -17 7 -23 22 -23 19 0 21 -4 16 -30 -6 -27 -4 -30 18
-30 14 0 25 -4 25 -10 0 -5 18 -10 40 -10 33 0 40 -3 40 -20 0 -17 7 -13 40
20 22 22 40 46 40 54 0 15 30 26 70 26 38 0 48 15 42 68 -4 43 -2 49 22 61 14
8 26 20 26 28 0 7 7 13 15 13 24 0 65 22 65 35 0 7 17 15 38 19 50 8 62 18 67
53 2 16 16 56 30 89 48 106 55 124 55 139 0 8 4 15 9 15 5 0 11 8 15 18 35
103 132 164 170 107z m3975 -245 c0 -10 -3 -8 -9 5 -12 27 -12 43 0 25 5 -8 9
-22 9 -30z m-175 -62 c19 -32 38 -52 48 -52 30 3 7 -24 -26 -29 -67 -11 -117
8 -168 61 -68 72 -65 79 33 76 l81 -3 32 -53z m-1228 -7 c14 -28 33 -52 41
-55 25 -10 3 -26 -36 -26 -59 0 -98 10 -118 31 -10 11 -30 31 -45 46 -47 44
-38 53 51 53 l80 0 27 -49z m1252 4 c-3 -3 -9 2 -12 12 -6 14 -5 15 5 6 7 -7
10 -15 7 -18z m30 0 c-3 -3 -9 2 -12 12 -6 14 -5 15 5 6 7 -7 10 -15 7 -18z
m95 10 c-3 -9 -8 -14 -10 -11 -3 3 -2 9 2 15 9 16 15 13 8 -4z m-5 -162 c-10
-2 -26 -2 -35 0 -10 3 -2 5 17 5 19 0 27 -2 18 -5z m212 -168 c0 -14 5 -25 10
-25 6 0 10 -11 10 -25 0 -21 -5 -25 -27 -25 -16 0 -35 5 -43 10 -12 8 -10 10
8 10 22 0 23 3 17 40 -6 33 -4 40 9 40 10 0 16 -9 16 -25z m32 -146 c-7 -10
-12 -40 -12 -65 l0 -47 -24 26 c-20 22 -24 34 -19 62 4 25 11 35 24 35 11 0
19 5 19 10 0 6 -7 10 -15 10 -21 0 -19 18 3 22 24 5 39 -28 24 -53z m-1410
-884 c9 -12 10 -131 2 -161 -5 -21 -6 -21 -27 -3 -12 10 -32 27 -44 36 -12 11
-24 35 -27 58 -6 38 -5 41 31 62 40 22 53 24 65 8z m1563 -54 c17 -5 40 -5 52
0 30 11 64 -8 97 -54 16 -21 31 -36 34 -33 9 10 52 -36 52 -55 0 -10 5 -21 10
-24 16 -10 12 -40 -10 -68 -47 -60 -151 -77 -195 -32 -14 13 -25 29 -25 34 0
6 -17 15 -37 20 -39 11 -143 109 -143 135 0 8 -5 18 -10 21 -7 4 -7 13 0 26 8
14 7 19 -2 20 -7 0 0 6 16 13 28 13 104 11 161 -3z m-608 -38 c-3 -10 -5 -2
-5 17 0 19 2 27 5 18 2 -10 2 -26 0 -35z m182 -41 c7 -13 6 -23 -1 -30 -9 -9
-8 -12 5 -12 9 0 17 -3 17 -7 -1 -12 -50 -45 -50 -33 0 5 -7 10 -15 10 -8 0
-25 12 -39 27 -24 25 -24 28 -9 45 22 24 79 24 92 0z m1406 -42 c3 -5 17 -10
30 -10 21 0 25 -5 24 -27 -2 -35 -21 -94 -29 -91 -20 9 -80 89 -80 106 0 27
41 44 55 22z m135 -165 c10 -28 42 -40 67 -26 13 7 23 5 37 -7 11 -10 20 -13
23 -7 3 11 90 12 100 1 10 -10 63 35 63 54 0 23 39 33 65 16 11 -7 32 -26 47
-41 16 -16 34 -25 42 -22 9 4 18 2 21 -3 3 -4 -1 -11 -7 -13 -8 -3 -6 -6 5 -6
9 -1 17 3 17 9 0 10 65 -25 88 -47 16 -16 24 -16 56 -2 15 7 22 17 19 26 -5
12 21 42 38 43 4 0 15 -17 24 -37 10 -21 31 -53 46 -71 36 -41 38 -86 4 -124
-26 -30 -62 -37 -71 -13 -4 8 -14 15 -24 15 -10 0 -27 10 -37 23 -24 30 -58
45 -115 50 -37 4 -51 0 -64 -14 -21 -23 -38 -24 -94 -4 -27 9 -48 12 -59 6
-11 -6 -23 -4 -36 5 -10 8 -42 14 -72 14 -30 0 -67 7 -83 15 -16 8 -35 12 -43
10 -21 -9 -69 34 -62 55 4 12 -1 20 -17 25 l-23 7 25 8 c19 6 20 8 6 9 -10 1
-27 12 -38 26 -11 14 -24 23 -29 20 -5 -4 -9 3 -9 14 0 41 73 30 90 -14z
m1825 1 c11 -7 35 -17 54 -21 40 -8 48 -15 80 -67 12 -21 26 -38 31 -38 15 0
38 -75 33 -105 -6 -29 -33 -62 -77 -90 -28 -19 -111 -21 -201 -5 -38 6 -88 15
-110 18 -46 8 -66 38 -68 105 -1 41 29 127 45 127 4 0 23 15 41 34 21 23 47
37 77 44 64 14 73 14 95 -2z m-577 -118 c7 -7 12 -30 11 -52 l-1 -41 -13 30
c-29 69 -28 94 3 63z m1257 -9 c46 -11 125 -19 205 -22 37 -2 68 -10 92 -25
l36 -22 27 35 28 34 101 -3 c82 -2 118 -8 191 -33 50 -17 112 -34 139 -38 44
-6 62 -11 121 -36 11 -4 67 -24 125 -43 114 -38 182 -53 275 -60 35 -3 82 -16
112 -31 29 -14 59 -25 67 -25 33 0 76 -99 44 -100 -7 -1 -83 -5 -168 -10 -143
-8 -164 -7 -286 16 -104 19 -151 23 -225 18 -52 -3 -98 -5 -104 -5 -324 9
-391 15 -398 35 -8 21 -73 47 -120 48 -26 0 -60 -8 -85 -21 -48 -24 -82 -27
-120 -7 -15 7 -43 17 -62 21 -19 4 -43 14 -53 23 -9 8 -27 20 -39 26 -14 7
-27 28 -35 56 -23 80 -24 111 -1 152 24 42 24 42 133 17z m2365 -371 c0 -10 2
-10 8 -2 5 8 13 4 25 -12 17 -23 13 -30 -15 -25 -5 0 -8 -3 -8 -9 0 -13 -26
-13 -50 0 -17 9 -18 14 -8 35 12 26 48 35 48 13z m-2899 -391 c-13 -16 -51
-11 -51 6 0 5 8 16 18 23 14 11 19 10 31 -1 11 -11 12 -17 2 -28z m1134 -27
c4 -7 12 -7 25 0 10 5 21 10 23 10 9 0 47 -38 47 -47 0 -16 -93 -44 -101 -31
-4 6 -24 12 -46 12 -71 3 -46 60 29 65 9 1 20 -4 23 -9z m143 -38 c2 -7 -3
-12 -12 -12 -9 0 -16 7 -16 16 0 17 22 14 28 -4z m-783 -340 c28 -10 59 -23
69 -29 11 -6 36 -8 57 -6 29 4 42 1 60 -16 20 -18 22 -25 11 -41 -11 -18 -10
-20 13 -20 27 0 28 -1 19 -24 -3 -9 -15 -16 -25 -16 -23 0 -60 30 -52 43 11
18 -21 26 -38 9 -13 -14 -14 -20 -3 -37 7 -11 15 -33 17 -50 3 -16 8 -37 12
-46 3 -10 1 -20 -4 -24 -6 -3 -9 -10 -6 -15 3 -5 1 -11 -5 -15 -15 -9 -300
-12 -300 -3 0 5 -12 13 -26 18 -21 8 -33 6 -59 -10 -35 -22 -85 -19 -85 5 0 6
-9 20 -20 30 -28 25 -25 67 6 100 23 25 26 34 21 77 -4 29 -2 50 5 54 5 4 67
8 137 10 71 2 127 8 129 14 5 13 8 13 67 -8z m-412 -10 c25 -27 7 -45 -37 -37
-37 7 -45 22 -24 43 17 17 42 15 61 -6z m-619 -12 c17 -6 28 -21 36 -49 9 -35
16 -41 57 -55 26 -9 61 -16 78 -16 17 0 36 -5 42 -11 6 -6 21 -16 34 -23 37
-19 47 -43 24 -61 -16 -13 -38 -15 -120 -11 -136 8 -173 19 -190 59 -8 20 -10
39 -4 54 6 18 4 27 -13 43 -12 11 -25 20 -30 20 -10 0 -11 44 -1 53 9 10 58 8
87 -3z m1332 -45 c9 -25 21 -45 25 -45 5 0 9 -4 9 -10 0 -5 -7 -10 -15 -10 -8
0 -15 -4 -15 -10 0 -19 -29 2 -44 33 -13 28 -13 33 0 40 17 10 18 34 2 40 -8
4 -7 6 4 6 11 1 22 -15 34 -44z m284 -33 c9 -4 16 -24 18 -46 3 -41 27 -69 50
-61 8 3 12 0 10 -7 -3 -7 -17 -15 -33 -18 -27 -5 -48 -35 -37 -54 7 -13 -19
-26 -53 -26 -35 1 -65 21 -69 46 -5 30 -24 27 -31 -5 -7 -32 -25 -43 -25 -16
0 11 -11 15 -40 15 -38 0 -40 2 -40 30 0 35 29 47 75 30 33 -12 85 3 85 25 0
7 7 15 15 19 22 8 20 56 -2 57 -15 0 -15 2 2 9 24 10 55 11 75 2z m-330 -142
c0 -5 -4 -10 -10 -10 -5 0 -10 5 -10 10 0 6 5 10 10 10 6 0 10 -4 10 -10z
m-1825 -100 c3 -5 1 -10 -4 -10 -6 0 -11 5 -11 10 0 6 2 10 4 10 3 0 8 -4 11
-10z m170 -80 c3 -5 -1 -10 -9 -10 -9 0 -16 5 -16 10 0 6 4 10 9 10 6 0 13 -4
16 -10z m163 -24 c6 -3 28 -7 49 -8 21 -1 43 -7 48 -13 13 -15 149 -55 205
-61 100 -9 150 -18 150 -25 0 -5 18 -9 40 -9 29 0 40 -4 40 -15 0 -8 8 -15 18
-15 10 0 26 -10 37 -22 l20 -23 3 26 c2 21 7 25 26 22 15 -3 25 1 30 12 9 25
-3 38 -30 32 -18 -3 -24 0 -24 14 0 13 -7 19 -24 19 -36 0 -42 28 -8 41 34 13
176 -5 208 -26 13 -8 32 -15 44 -15 11 0 38 -18 60 -40 l40 -40 0 39 c0 33 -4
40 -22 43 -22 3 -22 3 -2 22 19 20 19 20 22 -2 4 -29 32 -28 57 0 l20 23 3
-22 c3 -21 9 -23 60 -23 45 0 61 4 75 20 21 25 34 25 75 0 26 -16 32 -17 32
-5 0 11 11 15 40 15 29 0 40 -4 40 -15 0 -8 -4 -15 -10 -15 -5 0 -13 -18 -16
-40 -6 -34 -10 -40 -30 -40 -21 0 -24 -5 -24 -40 l0 -40 -160 0 c-88 0 -160
-3 -160 -8 0 -4 -18 -7 -40 -7 -22 0 -40 3 -40 6 0 4 -18 9 -40 11 -36 3 -40
1 -40 -19 0 -21 -4 -23 -59 -23 -102 0 -181 -12 -181 -26 0 -10 -13 -14 -40
-14 -34 0 -40 3 -40 21 0 21 -3 22 -61 15 -34 -3 -88 -6 -120 -6 -46 0 -59 -3
-59 -15 0 -8 -9 -15 -20 -15 -17 0 -20 7 -20 38 l0 39 98 -2 c67 -1 73 -1 20
2 -103 5 -101 23 2 23 73 0 80 2 80 20 0 18 -7 20 -77 20 -74 -1 -79 -2 -103
-30 -13 -17 -32 -30 -42 -30 -14 0 -18 -8 -18 -40 l0 -40 -40 0 -40 0 0 40 c0
22 -5 40 -11 40 -28 0 23 29 57 33 l39 4 -45 1 c-56 3 -120 20 -120 32 0 6 -9
10 -20 10 -17 0 -20 7 -20 45 0 41 -2 45 -25 45 -17 0 -29 9 -40 30 -8 16 -15
31 -15 34 0 7 135 0 148 -8z m-5043 -296 c3 -5 -1 -10 -9 -10 -9 0 -16 5 -16
10 0 6 4 10 9 10 6 0 13 -4 16 -10z m358 -97 c-13 -2 -33 -2 -45 0 -13 2 -3 4
22 4 25 0 35 -2 23 -4z m2997 -163 c0 -5 -4 -10 -10 -10 -5 0 -10 5 -10 10 0
6 5 10 10 10 6 0 10 -4 10 -10z"/>
<path d="M6865 8385 l-130 -53 -1 -129 c0 -70 2 -134 4 -140 6 -18 22 -16 83
11 73 32 107 42 93 27 -6 -7 -48 -26 -94 -44 l-84 -33 -2 -138 c-3 -148 2
-161 49 -138 12 6 74 31 137 56 l115 45 0 138 0 138 -25 -1 c-14 0 -38 -4 -55
-8 -17 -3 -4 5 28 20 l57 27 0 138 c0 167 13 161 -175 84z"/>
<path d="M6865 7767 l-130 -52 1 -140 c1 -111 4 -140 15 -140 8 0 73 22 145
50 l131 50 6 128 c3 71 3 135 0 143 -8 22 -28 17 -168 -39z"/>
<path d="M6868 7459 c-83 -33 -127 -56 -130 -67 -1 -9 -2 -74 0 -144 l3 -126
82 28 c45 16 109 39 142 52 l60 24 3 142 c2 131 1 142 -15 142 -10 -1 -75 -24
-145 -51z"/>
<path d="M6867 7147 l-129 -52 1 -130 c0 -71 0 -135 0 -142 1 -10 225 61 269
86 14 8 17 30 18 133 2 133 -1 158 -19 157 -7 0 -70 -23 -140 -52z"/>
<path d="M7060 6989 c0 -11 4 -18 10 -14 5 3 7 12 3 20 -7 21 -13 19 -13 -6z"/>
<path d="M6868 6841 c-64 -25 -119 -49 -123 -52 -3 -3 -6 -67 -8 -142 -2 -162
-7 -159 115 -95 66 34 88 52 124 101 24 33 44 67 44 76 1 9 7 3 14 -14 7 -16
11 -37 9 -45 -4 -12 -3 -12 5 -1 10 13 3 54 -17 104 -6 16 -11 48 -11 73 0 55
-1 55 -152 -5z"/>
<path d="M5445 6510 c3 -5 11 -10 16 -10 6 0 7 5 4 10 -3 6 -11 10 -16 10 -6
0 -7 -4 -4 -10z"/>
<path d="M5350 6510 c-13 -8 -12 -10 3 -10 9 0 17 5 17 10 0 12 -1 12 -20 0z"/>
<path d="M2560 3635 c0 -8 2 -15 4 -15 2 0 6 7 10 15 3 8 1 15 -4 15 -6 0 -10
-7 -10 -15z"/>
<path d="M2538 3563 c7 -3 16 -2 19 1 4 3 -2 6 -13 5 -11 0 -14 -3 -6 -6z"/>
<path d="M5640 4000 c0 -5 5 -10 11 -10 5 0 7 5 4 10 -3 6 -8 10 -11 10 -2 0
-4 -4 -4 -10z"/>
<path d="M1632 8888 c-5 -7 -11 -21 -13 -31 -2 -10 -15 -24 -29 -32 -43 -22
-85 -39 -94 -36 -11 3 -47 -30 -41 -38 2 -4 0 -13 -5 -21 -10 -16 16 -60 36
-60 8 0 17 -7 20 -15 4 -8 11 -15 18 -15 6 0 27 -16 47 -34 33 -31 42 -35 100
-36 134 -3 232 29 257 85 9 20 9 31 0 48 -14 27 -38 46 -59 47 -50 1 -209 116
-193 141 8 14 -32 11 -44 -3z"/>
<path d="M5525 8842 c6 -5 57 -22 115 -37 58 -15 120 -33 139 -41 39 -16 70
-19 56 -5 -6 5 -64 25 -130 44 -143 42 -194 53 -180 39z"/>
<path d="M192 8770 c-29 -15 -84 -37 -122 -49 l-70 -23 0 -74 0 -74 38 20 c26
14 64 21 133 24 174 8 226 56 144 131 -12 11 -29 32 -38 48 -20 32 -17 32 -85
-3z"/>
<path d="M4917 8653 c-10 -10 -8 -81 2 -87 13 -9 41 4 41 19 0 11 -29 75 -34
75 -1 0 -6 -3 -9 -7z"/>
<path d="M7832 8568 c2 -13 5 -21 8 -18 3 2 16 -3 30 -13 28 -19 40 -22 40 -7
0 6 -7 10 -15 10 -8 0 -15 9 -15 20 0 11 -4 20 -10 20 -5 0 -10 -5 -10 -11 0
-5 -5 -7 -10 -4 -6 4 -8 11 -5 16 4 5 1 9 -5 9 -6 0 -10 -10 -8 -22z"/>
<path d="M535 8524 c-18 -18 -15 -33 22 -111 17 -37 24 -69 24 -117 1 -68 12
-86 53 -86 20 0 66 39 66 57 0 12 25 38 105 107 l40 35 -25 45 c-27 51 -46 61
-140 76 -91 14 -126 13 -145 -6z"/>
<path d="M5238 8287 c1 -73 5 -141 7 -152 3 -16 32 -28 162 -65 87 -25 168
-45 181 -46 22 -1 22 0 22 141 l0 141 -172 50 c-95 27 -177 49 -183 49 -5 0
-12 3 -15 7 -3 3 -4 -53 -2 -125z"/>
<path d="M0 8191 c0 -38 4 -61 11 -61 6 0 36 7 66 16 30 9 63 14 73 11 11 -3
18 0 17 6 -1 6 -27 19 -57 30 -30 10 -62 24 -70 31 -37 31 -40 29 -40 -33z"/>
<path d="M15546 8194 c-14 -37 -6 -110 14 -132 20 -21 41 -28 51 -17 7 6 -16
138 -25 154 -10 16 -33 14 -40 -5z"/>
<path d="M4822 8120 c0 -19 2 -27 5 -17 2 9 2 25 0 35 -3 9 -5 1 -5 -18z"/>
<path d="M5247 8093 c-13 -13 -8 -270 6 -280 18 -15 300 -93 333 -93 l29 0 -3
141 c-2 98 -7 141 -15 144 -26 8 -338 95 -341 95 -1 0 -6 -3 -9 -7z"/>
<path d="M9040 8080 c0 -13 5 -18 15 -14 8 4 15 12 15 20 0 8 -7 14 -15 14 -8
0 -15 -9 -15 -20z"/>
<path d="M7952 7985 c0 -16 2 -22 5 -12 2 9 2 23 0 30 -3 6 -5 -1 -5 -18z"/>
<path d="M9055 8000 c-3 -5 -14 -10 -24 -10 -10 0 -18 -7 -18 -15 0 -8 5 -15
10 -15 5 0 26 -14 46 -32 l36 -32 9 41 c5 23 6 49 3 57 -7 18 -52 22 -62 6z"/>
<path d="M7962 7920 c0 -19 2 -27 5 -17 2 9 2 25 0 35 -3 9 -5 1 -5 -18z"/>
<path d="M5057 7853 c8 -52 13 -54 13 -5 0 23 -4 42 -9 42 -6 0 -7 -17 -4 -37z"/>
<path d="M4862 7850 c0 -19 2 -27 5 -17 2 9 2 25 0 35 -3 9 -5 1 -5 -18z"/>
<path d="M7972 7835 c0 -16 2 -22 5 -12 2 9 2 23 0 30 -3 6 -5 -1 -5 -18z"/>
<path d="M4825 7800 c3 -5 8 -10 11 -10 2 0 4 5 4 10 0 6 -5 10 -11 10 -5 0
-7 -4 -4 -10z"/>
<path d="M5245 7767 c-4 -13 -5 -80 -3 -148 2 -102 6 -125 18 -125 8 -1 82
-20 164 -42 82 -23 158 -42 168 -42 17 0 18 11 18 140 0 163 12 145 -130 180
-47 12 -103 27 -125 34 -87 29 -104 30 -110 3z"/>
<path d="M7981 7774 c0 -11 3 -14 6 -6 3 7 2 16 -1 19 -3 4 -6 -2 -5 -13z"/>
<path d="M4840 7770 c0 -5 5 -10 10 -10 6 0 10 5 10 10 0 6 -4 10 -10 10 -5 0
-10 -4 -10 -10z"/>
<path d="M5626 7762 c-2 -4 -1 -14 5 -22 7 -12 9 -10 9 8 0 23 -5 28 -14 14z"/>
<path d="M9146 7745 c-3 -9 0 -15 9 -15 16 0 20 16 6 24 -5 3 -11 -1 -15 -9z"/>
<path d="M4825 7740 c-3 -5 -1 -10 4 -10 6 0 11 5 11 10 0 6 -2 10 -4 10 -3 0
-8 -4 -11 -10z"/>
<path d="M5063 7575 c0 -27 2 -38 4 -22 2 15 2 37 0 50 -2 12 -4 0 -4 -28z"/>
<path d="M16965 7572 c-12 -8 -64 -76 -86 -112 -28 -44 -32 -97 -11 -128 10
-15 22 -35 25 -45 6 -17 9 -17 29 -3 28 20 94 103 112 142 30 67 30 92 -2 124
-31 30 -48 36 -67 22z"/>
<path d="M4783 7530 c0 -25 2 -35 4 -22 2 12 2 32 0 45 -2 12 -4 2 -4 -23z"/>
<path d="M5062 7490 c0 -14 2 -19 5 -12 2 6 2 18 0 25 -3 6 -5 1 -5 -13z"/>
<path d="M5210 7470 c0 -5 5 -10 10 -10 6 0 10 5 10 10 0 6 -4 10 -10 10 -5 0
-10 -4 -10 -10z"/>
<path d="M4960 7460 c0 -5 5 -10 10 -10 6 0 10 5 10 10 0 6 -4 10 -10 10 -5 0
-10 -4 -10 -10z"/>
<path d="M5061 7408 c0 -18 4 -42 9 -53 6 -15 9 -8 9 27 1 26 -3 50 -9 53 -6
4 -10 -7 -9 -27z"/>
<path d="M8041 7364 c0 -11 3 -14 6 -6 3 7 2 16 -1 19 -3 4 -6 -2 -5 -13z"/>
<path d="M16365 7263 c-22 -3 -44 -9 -49 -14 -6 -5 -20 -9 -32 -9 -24 0 -54
-34 -54 -61 0 -9 -10 -24 -21 -35 -39 -34 -68 -91 -75 -146 -4 -29 -10 -55
-15 -58 -4 -3 -2 -30 3 -60 11 -55 35 -90 62 -90 13 0 102 -39 136 -60 8 -5
38 -21 67 -35 45 -22 56 -24 95 -16 23 6 58 11 76 11 42 0 68 27 77 81 4 24
11 50 15 59 15 27 41 157 44 216 3 61 -10 101 -35 109 -8 3 -33 22 -55 42 -71
65 -116 78 -239 66z"/>
<path d="M16994 6845 c-8 -31 19 -75 44 -75 26 0 50 21 57 51 5 21 1 27 -20
37 -44 20 -74 15 -81 -13z"/>
<path d="M5632 6700 c0 -14 2 -19 5 -12 2 6 2 18 0 25 -3 6 -5 1 -5 -13z"/>
<path d="M5631 6574 c0 -11 3 -14 6 -6 3 7 2 16 -1 19 -3 4 -6 -2 -5 -13z"/>
<path d="M1400 6493 c-41 -8 -43 -19 -8 -47 51 -41 51 -41 78 -43 14 -1 34 -3
45 -4 11 -1 61 3 110 9 50 6 125 14 168 17 42 4 83 13 90 20 8 7 22 15 33 17
10 2 20 11 22 21 3 16 -14 17 -255 16 -142 -1 -269 -4 -283 -6z"/>
<path d="M16981 5763 c-8 -3 -26 -19 -39 -34 -16 -19 -33 -29 -52 -29 -16 0
-30 -3 -32 -7 -6 -16 -70 -43 -99 -43 -17 0 -40 9 -52 21 -48 46 -128 76 -217
82 -77 5 -87 3 -111 -16 -32 -26 -89 -136 -89 -171 0 -29 56 -116 74 -116 24
0 77 -32 93 -56 22 -34 10 -99 -27 -146 -20 -24 -30 -48 -30 -71 0 -18 -5 -60
-11 -92 -16 -85 -4 -145 39 -200 34 -44 36 -51 38 -128 3 -101 13 -170 26
-178 5 -3 40 -4 77 -1 l68 4 29 -37 c31 -41 33 -62 23 -266 -2 -47 3 -66 27
-110 17 -30 39 -74 49 -99 19 -45 57 -90 76 -90 26 0 70 -38 92 -79 19 -35 25
-62 25 -111 1 -35 -3 -69 -7 -75 -8 -10 -17 -45 -41 -147 -11 -49 3 -106 29
-122 6 -4 15 -24 21 -46 10 -35 15 -40 70 -58 52 -18 75 -20 202 -14 191 8
209 7 247 -13 39 -20 91 -21 221 -7 143 16 196 27 217 43 30 23 32 32 15 46
-9 7 -12 13 -6 13 7 0 21 20 33 45 12 25 26 45 31 45 6 0 10 53 10 138 l0 139
-26 11 c-14 7 -23 16 -20 21 4 5 -3 7 -14 4 -11 -3 -20 0 -20 6 0 6 5 11 11
11 5 0 7 5 3 11 -5 8 -13 4 -24 -11 l-18 -23 -11 21 c-6 12 -18 22 -26 22 -8
0 -15 7 -15 15 0 8 -4 15 -9 15 -20 0 10 66 44 97 19 18 35 37 35 42 0 6 8 11
18 11 10 0 30 6 45 13 l27 12 0 568 c0 349 -4 566 -9 562 -5 -3 -15 -30 -22
-60 -15 -66 -26 -77 -109 -104 -60 -20 -66 -20 -98 -5 -30 14 -35 14 -58 0
-14 -10 -24 -26 -24 -40 0 -17 -10 -28 -35 -40 -33 -16 -36 -16 -74 4 -32 16
-42 28 -50 57 -5 21 -19 74 -31 118 -12 44 -25 111 -28 149 -4 59 -2 71 13 83
25 18 80 17 99 -2 8 -8 20 -15 27 -15 7 0 27 -11 45 -25 18 -14 37 -25 43 -25
5 0 14 -6 18 -14 13 -21 53 -31 53 -12 0 9 10 18 23 21 13 4 31 19 41 36 9 16
23 29 30 29 8 0 20 9 27 20 13 18 17 19 57 7 24 -7 48 -20 53 -28 5 -9 9 68 9
204 0 142 -4 217 -10 217 -6 0 -13 -7 -17 -16 -4 -12 -15 -15 -47 -10 -164 23
-356 27 -378 8 -7 -6 -47 -14 -88 -17 -41 -4 -82 -11 -92 -16 -10 -6 -30 -3
-53 7 -22 9 -55 14 -81 11 -27 -2 -57 3 -81 14 -27 12 -43 15 -56 7 -13 -7
-25 -5 -42 6 -25 16 -48 19 -74 9z m809 -1847 c0 -24 -36 -60 -50 -51 -13 8
-13 41 0 65 13 25 50 15 50 -14z"/>
<path d="M12800 5185 c-30 -7 -80 -14 -110 -14 -53 -1 -187 -38 -240 -66 -73
-39 -125 -50 -235 -48 -764 10 -1109 11 -1133 1 -31 -12 -319 -28 -587 -33
-99 -1 -201 -6 -228 -10 -36 -6 -51 -4 -65 7 -24 22 -61 32 -102 29 -38 -3
-114 -35 -144 -60 -13 -12 -40 -16 -104 -16 -80 0 -87 -2 -87 -20 0 -17 -7
-20 -43 -20 -23 0 -42 -4 -42 -9 0 -5 -8 -15 -17 -22 -17 -12 -17 -14 3 -31
50 -44 86 -53 114 -28 15 14 19 13 40 -5 27 -24 58 -26 66 -5 5 12 27 15 109
15 91 0 111 -3 176 -30 84 -34 133 -38 148 -13 12 22 103 20 160 -3 30 -12 44
-13 59 -5 15 8 21 8 24 -1 3 -7 27 0 68 19 41 19 91 34 135 39 81 9 89 8 133
-12 35 -16 69 -15 186 5 33 5 65 7 70 3 6 -4 38 -16 72 -27 56 -20 64 -20 93
-6 29 14 37 14 77 -1 24 -8 44 -13 44 -9 0 3 69 7 153 9 83 1 186 4 227 7 439
24 591 24 659 1 52 -18 122 -74 134 -108 4 -12 21 -17 74 -20 85 -4 99 5 141
91 39 82 52 102 76 120 52 39 74 183 39 256 -15 31 -21 35 -52 34 -20 -1 -61
-7 -91 -14z"/>
<path d="M4531 5110 c-18 -4 -37 -14 -42 -22 -19 -29 -9 -106 22 -175 17 -37
48 -129 69 -203 56 -200 71 -241 89 -247 9 -3 28 -18 42 -32 56 -55 82 -72 92
-62 6 6 25 11 42 11 21 0 26 -3 16 -9 -19 -12 0 -17 55 -12 43 3 44 4 22 15
-29 15 -30 41 -1 88 13 21 23 42 23 47 0 5 25 21 56 37 30 15 57 32 60 36 3 4
12 8 20 8 18 0 44 24 44 39 0 6 9 11 19 11 12 0 31 17 48 43 16 23 33 42 38
42 6 1 40 11 76 23 37 13 91 27 120 33 30 5 68 13 84 16 l30 7 -30 7 -30 7 32
1 c58 2 152 62 153 96 0 21 -62 47 -123 50 -94 6 -241 26 -252 35 -5 4 -26 10
-45 14 -19 3 -69 21 -111 39 -75 33 -77 34 -130 20 -92 -24 -183 -21 -279 9
-100 31 -162 39 -209 28z"/>
<path d="M9236 4986 c-21 -17 -47 -25 -100 -30 -102 -10 -122 -9 -151 10 -23
15 -33 15 -81 5 -30 -7 -58 -19 -60 -26 -3 -7 -16 -16 -30 -19 -49 -13 -18
-47 66 -72 14 -4 81 -8 150 -10 184 -4 340 -13 373 -20 17 -3 36 0 51 9 12 8
33 17 46 19 32 4 49 33 32 56 -7 9 -17 28 -24 42 -24 51 -46 60 -148 59 -85 0
-98 -2 -124 -23z"/>
<path d="M10495 4750 c-3 -6 1 -13 10 -16 19 -8 30 0 20 15 -8 14 -22 14 -30
1z"/>
<path d="M10508 4693 c7 -3 16 -2 19 1 4 3 -2 6 -13 5 -11 0 -14 -3 -6 -6z"/>
<path d="M9823 4683 c14 -4 17 -11 13 -36 -5 -25 -4 -27 3 -12 17 36 13 55
-11 54 -18 -1 -19 -2 -5 -6z"/>
<path d="M10480 4380 c0 -6 7 -10 15 -10 8 0 15 2 15 4 0 2 -7 6 -15 10 -8 3
-15 1 -15 -4z"/>
<path d="M7638 4014 c-3 -56 5 -84 23 -84 5 0 14 10 19 23 5 12 9 16 9 10 1
-18 28 -16 34 1 3 8 3 31 0 50 -4 26 -11 36 -24 36 -11 0 -19 5 -19 10 0 6 -9
10 -19 10 -16 0 -20 -9 -23 -56z"/>
<path d="M7345 3970 c3 -5 8 -10 11 -10 2 0 4 5 4 10 0 6 -5 10 -11 10 -5 0
-7 -4 -4 -10z"/>
<path d="M15436 3591 c-58 -31 -66 -39 -64 -61 3 -23 6 -25 53 -23 83 4 89 8
103 59 19 72 3 77 -92 25z"/>
<path d="M8710 650 c-18 -12 -2 -12 25 0 13 6 15 9 5 9 -8 0 -22 -4 -30 -9z"/>
<path d="M9520 410 c0 -17 7 -20 40 -20 33 0 40 3 40 20 0 17 -7 20 -40 20
-33 0 -40 -3 -40 -20z"/>
<path d="M9538 373 c12 -2 32 -2 45 0 12 2 2 4 -23 4 -25 0 -35 -2 -22 -4z"/>
<path d="M5360 175 c0 -9 5 -15 11 -13 6 2 11 8 11 13 0 5 -5 11 -11 13 -6 2
-11 -4 -11 -13z"/>
<path d="M5120 115 c0 -11 11 -15 40 -15 29 0 40 4 40 15 0 11 -11 15 -40 15
-29 0 -40 -4 -40 -15z"/>
</g>
</svg>
