<?xml version="1.0" encoding="iso-8859-1"?>
<!-- Generator: Adobe Illustrator 19.0.0, SVG Export Plug-In . SVG Version: 6.00 Build 0)  -->
<svg version="1.1" id="Layer_1" xmlns="http://www.w3.org/2000/svg" xmlns:xlink="http://www.w3.org/1999/xlink" x="0px" y="0px"
	 viewBox="0 0 512 512" style="enable-background:new 0 0 512 512;" xml:space="preserve">
<g transform="translate(1 1)">
	<g>
		<polygon style="fill:#FDCC00;" points="16.067,365.933 493.933,365.933 493.933,331.8 16.067,331.8 		"/>
		<polygon style="fill:#FDCC00;" points="16.067,400.067 493.933,400.067 493.933,365.933 16.067,365.933 		"/>
		<path style="fill:#FDCC00;" d="M340.333,451.267c0-5.973,0.853-11.947,2.56-17.067H16.067v34.133h326.827
			C341.187,463.213,340.333,457.24,340.333,451.267"/>
		<path style="fill:#FDCC00;" d="M440.173,434.2c1.707,5.12,2.56,11.093,2.56,17.067c0,5.973-0.853,11.947-2.56,17.067h53.76V434.2
			H440.173z"/>
		<path style="fill:#FDCC00;" d="M16.067,434.2h326.827c6.827-19.627,25.6-34.133,48.64-34.133H16.067V434.2z"/>
		<path style="fill:#FDCC00;" d="M391.533,400.067c22.187,0,40.96,14.507,48.64,34.133h53.76v-34.133H391.533z"/>
	</g>
	<path style="fill:#FFE100;" d="M427.373,33.133c4.267,7.68,6.827,16.213,6.827,25.6c0,28.16-23.04,51.2-51.2,51.2
		c-28.16,0-51.2-23.04-51.2-51.2c0-9.387,2.56-17.92,6.827-25.6H16.067V331.8h477.867V33.133H427.373z"/>
	<polygon style="fill:#FFA800;" points="468.333,331.8 493.933,331.8 493.933,33.133 468.333,33.133 	"/>
	<polygon style="fill:#FFFFFF;" points="16.067,331.8 41.667,331.8 41.667,33.133 16.067,33.133 	"/>
	<path style="fill:#00DA6C;" d="M447,118.467c-14.507,0-27.307-6.827-35.84-17.067c-7.68,5.12-17.92,8.533-28.16,8.533
		c-25.6,0-46.08-18.773-50.347-42.667H255H109.933c0,1.707,0,2.56,0,4.267c0,25.6-21.333,46.933-46.933,46.933
		c-1.707,0-2.56,0-4.267,0v99.84c9.387-13.653,24.747-23.04,42.667-23.04c28.16,0,51.2,23.04,51.2,51.2
		c0,17.92-9.387,33.28-23.04,42.667H255h145.067c0-1.707,0-2.56,0-4.267c0-25.6,21.333-46.933,46.933-46.933c1.707,0,2.56,0,4.267,0
		V118.467C449.56,118.467,448.707,118.467,447,118.467"/>
	<g>
		<path style="fill:#63D3FD;" d="M442.733,451.267c0,28.16-23.04,51.2-51.2,51.2s-51.2-23.04-51.2-51.2s23.04-51.2,51.2-51.2
			S442.733,423.107,442.733,451.267"/>
		<path style="fill:#63D3FD;" d="M434.2,58.733c0,28.16-23.04,51.2-51.2,51.2c-28.16,0-51.2-23.04-51.2-51.2s23.04-51.2,51.2-51.2
			C411.16,7.533,434.2,30.573,434.2,58.733"/>
		<path style="fill:#63D3FD;" d="M152.6,246.467c0,28.16-23.04,51.2-51.2,51.2s-51.2-23.04-51.2-51.2s23.04-51.2,51.2-51.2
			S152.6,218.307,152.6,246.467"/>
	</g>
	<path d="M263.533,247.32c-23.893,0-42.667-18.773-42.667-42.667c0-5.12,3.413-8.533,8.533-8.533c5.12,0,8.533,3.413,8.533,8.533
		c0,14.507,11.093,25.6,25.6,25.6c7.68,0,14.507-3.413,19.627-9.387c2.56-2.56,3.413-5.973,2.56-9.387
		c0-3.413-2.56-6.827-5.12-9.387l-44.373-34.987c-6.827-5.12-11.093-12.8-11.947-21.333c-0.853-8.533,1.707-16.213,6.827-22.187
		c8.533-9.387,19.627-15.36,32.427-15.36c23.893,0,42.667,18.773,42.667,42.667c0,5.12-3.413,8.533-8.533,8.533
		s-8.533-3.413-8.533-8.533c0-14.507-11.093-25.6-25.6-25.6c-7.68,0-14.507,3.413-19.627,9.387c-2.56,2.56-3.413,5.973-2.56,9.387
		c0,3.413,2.56,6.827,5.12,9.387l44.373,34.987c6.827,5.12,11.093,12.8,11.947,21.333c0.853,8.533-1.707,16.213-6.827,22.187
		C288.28,242.2,276.333,247.32,263.533,247.32z"/>
	<path d="M263.533,262.68c-5.12,0-8.533-3.413-8.533-8.533V101.4c0-5.12,3.413-8.533,8.533-8.533c5.12,0,8.533,3.413,8.533,8.533
		v152.747C272.067,258.413,268.653,262.68,263.533,262.68z"/>
	<path d="M493.933,374.467H16.067c-5.12,0-8.533-3.413-8.533-8.533V331.8c0-5.12,3.413-8.533,8.533-8.533h477.867
		c5.12,0,8.533,3.413,8.533,8.533v34.133C502.467,371.053,499.053,374.467,493.933,374.467z M24.6,357.4h460.8v-17.067H24.6V357.4z"
		/>
	<path d="M493.933,408.6H16.067c-5.12,0-8.533-3.413-8.533-8.533v-34.133c0-5.12,3.413-8.533,8.533-8.533h477.867
		c5.12,0,8.533,3.413,8.533,8.533v34.133C502.467,405.187,499.053,408.6,493.933,408.6z M24.6,391.533h460.8v-17.067H24.6V391.533z"
		/>
	<path d="M391.533,511c-33.28,0-59.733-26.453-59.733-59.733s26.453-59.733,59.733-59.733s59.733,26.453,59.733,59.733
		S424.813,511,391.533,511z M391.533,408.6c-23.893,0-42.667,18.773-42.667,42.667c0,23.893,18.773,42.667,42.667,42.667
		S434.2,475.16,434.2,451.267C434.2,427.373,415.427,408.6,391.533,408.6z"/>
	<path d="M383,118.467c-33.28,0-59.733-26.453-59.733-59.733S349.72-1,383-1s59.733,26.453,59.733,59.733
		S416.28,118.467,383,118.467z M383,16.067c-23.893,0-42.667,18.773-42.667,42.667S359.107,101.4,383,101.4
		c23.893,0,42.667-18.773,42.667-42.667S406.893,16.067,383,16.067z"/>
	<path d="M101.4,306.2c-33.28,0-59.733-26.453-59.733-59.733s26.453-59.733,59.733-59.733s59.733,26.453,59.733,59.733
		S134.68,306.2,101.4,306.2z M101.4,203.8c-23.893,0-42.667,18.773-42.667,42.667s18.773,42.667,42.667,42.667
		s42.667-18.773,42.667-42.667S125.293,203.8,101.4,203.8z"/>
	<path d="M493.933,340.333H16.067c-5.12,0-8.533-3.413-8.533-8.533V33.133c0-5.12,3.413-8.533,8.533-8.533h322.56
		c3.413,0,5.973,1.707,7.68,4.267c1.707,2.56,1.707,5.973,0,8.533c-4.267,6.827-5.973,13.653-5.973,21.333
		c0,23.893,18.773,42.667,42.667,42.667c23.893,0,42.667-18.773,42.667-42.667c0-7.68-1.707-14.507-5.973-21.333
		c-1.707-2.56-1.707-5.973,0-8.533c1.707-2.56,4.267-4.267,7.68-4.267h66.56c5.12,0,8.533,3.413,8.533,8.533V331.8
		C502.467,336.92,499.053,340.333,493.933,340.333z M24.6,323.267h460.8v-281.6h-45.227c1.707,5.12,2.56,11.093,2.56,17.067
		c0,33.28-26.453,59.733-59.733,59.733s-59.733-26.453-59.733-59.733c0-5.973,0.853-11.947,2.56-17.067H24.6V323.267z"/>
	<path d="M400.067,297.667L400.067,297.667H129.56c-3.413,0-6.827-2.56-8.533-5.973c-1.707-3.413,0-7.68,3.413-9.387
		c11.947-7.68,18.773-21.333,18.773-35.84c0-23.893-18.773-42.667-42.667-42.667c-14.507,0-27.307,6.827-35.84,18.773
		c-1.707,3.413-5.973,4.267-9.387,3.413s-5.973-4.267-5.973-8.533v-98.987c0-2.56,0.853-4.267,2.56-5.973
		c2.56-2.56,5.12-2.56,7.68-2.56c0.853,0,2.56,0,3.413,0c21.333,0,38.4-17.067,38.4-38.4c0-0.853,0-2.56,0-3.413
		c0-2.56,0.853-5.12,2.56-6.827c0.853-1.707,3.413-2.56,5.973-2.56h222.72c4.267,0,7.68,3.413,8.533,6.827
		C344.6,86.04,362.52,101.4,383,101.4c8.533,0,16.213-2.56,23.04-6.827c3.413-2.56,8.533-1.707,11.093,1.707
		c7.68,9.387,20.48,14.507,33.28,13.653c2.56,0,5.12,0.853,6.827,2.56c1.707,1.707,2.56,4.267,2.56,5.973v119.467
		c0,2.56-0.853,4.267-2.56,5.973c-1.707,2.56-4.267,2.56-6.827,2.56c-0.853,0-2.56,0-3.413,0c-21.333,0-38.4,17.067-38.4,38.4
		c0,0.853,0,1.707,0,1.707c0,0.853,0,1.707,0,2.56C408.6,294.253,405.187,297.667,400.067,297.667z M150.04,280.6h241.493
		c1.707-27.307,23.893-48.64,51.2-51.2V127c-12.8-0.853-23.893-5.973-33.28-14.507c-8.533,4.267-17.067,5.973-26.453,5.973
		c-26.453,0-49.493-17.92-57.173-42.667h-207.36c-1.707,27.307-23.893,48.64-51.2,51.2v70.827
		C77.507,191,88.6,186.733,101.4,186.733c33.28,0,59.733,26.453,59.733,59.733C161.133,259.267,157.72,270.36,150.04,280.6z"/>
	<path d="M342.893,476.867H16.067c-5.12,0-8.533-3.413-8.533-8.533V434.2c0-5.12,3.413-8.533,8.533-8.533h326.827
		c2.56,0,5.12,1.707,6.827,3.413c1.707,1.707,1.707,5.12,0.853,7.68c-0.853,5.12-1.707,9.387-1.707,14.507s0.853,9.387,2.56,14.507
		c0.853,2.56,0.853,5.12-0.853,7.68S346.307,476.867,342.893,476.867z M24.6,459.8h308.053c0-2.56-0.853-5.973-0.853-8.533
		s0-5.973,0.853-8.533H24.6V459.8z"/>
	<path d="M493.933,476.867h-53.76c-2.56,0-5.12-1.707-6.827-3.413c-1.707-1.707-1.707-5.12-0.853-7.68
		c1.707-4.267,2.56-9.387,2.56-14.507s-0.853-9.387-2.56-14.507c-0.853-2.56-0.853-5.12,0.853-7.68
		c1.707-2.56,4.267-3.413,6.827-3.413h53.76c5.12,0,8.533,3.413,8.533,8.533v34.133
		C502.467,473.453,499.053,476.867,493.933,476.867z M450.413,459.8H485.4v-17.067h-34.987c0,2.56,0.853,5.973,0.853,8.533
		S451.267,457.24,450.413,459.8z"/>
	<path d="M342.893,442.733H16.067c-5.12,0-8.533-3.413-8.533-8.533v-34.133c0-5.12,3.413-8.533,8.533-8.533h375.467
		c5.12,0,8.533,3.413,8.533,8.533s-3.413,8.533-8.533,8.533c-17.92,0-34.133,11.093-40.107,28.16
		C350.573,440.173,347.16,442.733,342.893,442.733z M24.6,425.667h313.173c3.413-6.827,6.827-11.947,11.947-17.067H24.6V425.667z"/>
	<path d="M493.933,442.733h-53.76c-3.413,0-6.827-2.56-7.68-5.973c-6.827-17.067-23.04-28.16-40.96-28.16
		c-5.12,0-8.533-3.413-8.533-8.533s3.413-8.533,8.533-8.533h102.4c5.12,0,8.533,3.413,8.533,8.533V434.2
		C502.467,439.32,499.053,442.733,493.933,442.733z M445.293,425.667H485.4V408.6h-52.053
		C438.467,413.72,442.733,418.84,445.293,425.667z"/>
</g>
<g>
</g>
<g>
</g>
<g>
</g>
<g>
</g>
<g>
</g>
<g>
</g>
<g>
</g>
<g>
</g>
<g>
</g>
<g>
</g>
<g>
</g>
<g>
</g>
<g>
</g>
<g>
</g>
<g>
</g>
</svg>
