<?xml version="1.0" encoding="iso-8859-1"?>
<!-- Generator: Adobe Illustrator 18.0.0, SVG Export Plug-In . SVG Version: 6.00 Build 0)  -->
<!DOCTYPE svg PUBLIC "-//W3C//DTD SVG 1.1//EN" "http://www.w3.org/Graphics/SVG/1.1/DTD/svg11.dtd">
<svg version="1.1" id="Capa_1" xmlns="http://www.w3.org/2000/svg" xmlns:xlink="http://www.w3.org/1999/xlink" x="0px" y="0px"
	 viewBox="0 0 135.001 135.001" style="enable-background:new 0 0 135.001 135.001;" xml:space="preserve">
<g>
	<circle style="fill:#FF6F00;" cx="67.501" cy="67.501" r="67.5"/>
	<g>
		<g>
			<polygon style="fill:#91E56A;" points="101.209,42.887 44.664,42.887 39.429,42.887 39.429,48.125 39.429,75.871 39.429,81.106 
				44.664,81.106 101.209,81.106 106.443,81.106 106.443,75.871 106.443,48.125 106.443,42.887 			"/>
			<path style="fill:#349346;" d="M42.571,51.659v20.677c3.142,0,5.588,2.487,5.588,5.629h49.554c0-3.142,2.448-5.629,5.589-5.629
				V51.659c-3.141,0-5.589-2.489-5.589-5.629H48.159C48.159,49.17,45.712,51.659,42.571,51.659z"/>
			<circle style="fill:#91E56A;" cx="72.937" cy="61.998" r="8.813"/>
		</g>
		<g>
			<rect x="39.429" y="42.887" style="fill:#7FDF56;" width="33.53" height="38.22"/>
			<path style="fill:#248134;" d="M72.96,46.03H48.159c0,3.14-2.446,5.629-5.588,5.629v20.677c3.142,0,5.588,2.487,5.588,5.629
				H72.96V46.03z"/>
			<path style="fill:#7FDF56;" d="M72.96,53.187c-0.008,0-0.016-0.001-0.024-0.001c-4.867,0-8.812,3.945-8.812,8.813
				c0,4.866,3.945,8.812,8.812,8.812c0.008,0,0.016-0.001,0.024-0.001V53.187z"/>
		</g>
		<g>
			<polygon style="fill:#91E56A;" points="91.258,52.837 34.717,52.837 29.481,52.837 29.481,58.071 29.481,85.818 29.481,91.053 
				34.717,91.053 91.258,91.053 96.497,91.053 96.497,85.818 96.497,58.071 96.497,52.837 			"/>
			<path style="fill:#349346;" d="M32.625,61.607v20.675c3.141,0,5.586,2.491,5.586,5.631h49.556c0-3.14,2.447-5.631,5.589-5.631
				V61.607c-3.142,0-5.589-2.491-5.589-5.631H38.211C38.211,59.116,35.765,61.607,32.625,61.607z"/>
			<circle style="fill:#91E56A;" cx="62.988" cy="71.945" r="8.811"/>
		</g>
		<g>
			<rect x="29.481" y="52.837" style="fill:#7FDF56;" width="33.479" height="38.216"/>
			<path style="fill:#248134;" d="M62.96,55.977H38.211c0,3.14-2.445,5.631-5.586,5.631v20.675c3.141,0,5.586,2.491,5.586,5.631
				H62.96V55.977z"/>
			<path style="fill:#7FDF56;" d="M62.96,63.136c-4.854,0.016-8.783,3.952-8.783,8.81s3.93,8.793,8.783,8.809V63.136z"/>
		</g>
		<g>
			<path style="fill:#088222;" d="M66.024,73.675c0,0.621-0.225,1.12-0.674,1.497s-1.078,0.603-1.887,0.677v1.201h-0.803v-1.178
				c-0.953-0.02-1.789-0.188-2.508-0.504v-1.547c0.34,0.168,0.749,0.316,1.228,0.445s0.905,0.205,1.28,0.229v-1.816l-0.393-0.152
				c-0.773-0.305-1.321-0.636-1.644-0.993s-0.483-0.8-0.483-1.327c0-0.566,0.222-1.032,0.665-1.397s1.062-0.587,1.854-0.665v-0.896
				h0.803v0.873c0.895,0.039,1.703,0.219,2.426,0.539l-0.551,1.371c-0.609-0.25-1.234-0.402-1.875-0.457v1.729
				c0.762,0.293,1.304,0.547,1.626,0.762s0.559,0.451,0.709,0.709S66.024,73.331,66.024,73.675z M61.905,70.206
				c0,0.172,0.06,0.313,0.179,0.425s0.312,0.226,0.577,0.343v-1.377C62.157,69.671,61.905,69.874,61.905,70.206z M64.261,73.763
				c0-0.164-0.066-0.303-0.199-0.416c-0.133-0.113-0.332-0.23-0.598-0.352v1.459C63.995,74.364,64.261,74.134,64.261,73.763z"/>
		</g>
	</g>
</g>
<g>
</g>
<g>
</g>
<g>
</g>
<g>
</g>
<g>
</g>
<g>
</g>
<g>
</g>
<g>
</g>
<g>
</g>
<g>
</g>
<g>
</g>
<g>
</g>
<g>
</g>
<g>
</g>
<g>
</g>
</svg>
