<?xml version="1.0" encoding="iso-8859-1"?>
<!-- Generator: Adobe Illustrator 19.0.0, SVG Export Plug-In . SVG Version: 6.00 Build 0)  -->
<svg version="1.1" id="Layer_1" xmlns="http://www.w3.org/2000/svg" xmlns:xlink="http://www.w3.org/1999/xlink" x="0px" y="0px"
	 viewBox="0 0 512.015 512.015" style="enable-background:new 0 0 512.015 512.015;" xml:space="preserve">
<polygon style="fill:#75925E;" points="426.719,14.039 98.448,14.039 98.448,170.08 95.122,171.659 98.448,175.603 430.045,175.603 
	430.045,19.565 "/>
<rect x="95.111" y="14.039" style="fill:#83A569;" width="331.575" height="157.635"/>
<polygon style="fill:#75925E;" points="420.008,6.936 91.738,6.936 91.738,162.977 88.411,164.556 91.738,168.5 423.334,168.5 
	423.334,12.463 "/>
<rect x="88.411" y="6.936" style="fill:#83A569;" width="331.611" height="157.635"/>
<polygon style="fill:#75925E;" points="413.57,0 85.296,0 85.296,156.041 81.97,157.621 85.296,161.564 416.896,161.564 
	416.896,5.527 "/>
<rect x="81.97" style="fill:#91B874;" width="331.575" height="157.635"/>
<path style="fill:#B2D797;" d="M388.601,119.365V38.259c-10.062,0-18.218-8.156-18.218-18.218h-245.23
	c0,10.062-8.156,18.218-18.218,18.218v81.102c10.062,0,18.218,8.156,18.218,18.218h245.23
	C370.383,127.521,378.538,119.365,388.601,119.365z"/>
<ellipse style="fill:#91B874;" cx="247.771" cy="78.81" rx="55.338" ry="65.545"/>
<path style="fill:#B2D797;" d="M241.213,129.285v-11.755c-8.287-0.37-16.33-2.596-21.029-5.316l3.708-14.474
	c5.196,2.847,12.495,5.447,20.535,5.447c7.052,0,11.878-2.723,11.878-7.669c0-4.699-3.958-7.669-13.113-10.763
	c-13.24-4.452-22.267-10.64-22.267-22.638c0-10.887,7.669-19.42,20.905-22.017V28.339h12.129v10.887
	c8.287,0.37,13.85,2.106,17.931,4.085l-3.584,13.981c-3.221-1.362-8.908-4.209-17.815-4.209c-8.04,0-10.64,3.468-10.64,6.929
	c0,4.085,4.329,6.682,14.848,10.64c14.718,5.196,20.655,12.001,20.655,23.131c0,11.014-7.793,20.415-22.017,22.888v12.619h-12.125
	V129.285z"/>
<g>
	<circle style="fill:#91B874;" cx="143.244" cy="78.81" r="20.114"/>
	<circle style="fill:#91B874;" cx="352.281" cy="78.81" r="20.114"/>
</g>
<circle style="fill:#C7A63D;" cx="264.221" cy="365.854" r="146.16"/>
<g style="opacity:0.4;">
	<path style="fill:#8F7A2E;" d="M144.595,449.774c1.166,1.663,2.36,3.305,3.599,4.917h232.037c1.238-1.609,2.433-3.254,3.602-4.917
		H144.595z"/>
	<path style="fill:#8F7A2E;" d="M136.712,437.264c0.926,1.656,1.87,3.301,2.861,4.917h249.289c0.988-1.616,1.932-3.261,2.861-4.917
		H136.712z"/>
	<path style="fill:#8F7A2E;" d="M154.443,462.287c1.471,1.67,2.981,3.312,4.528,4.917H369.46c1.547-1.605,3.054-3.243,4.525-4.917
		L154.443,462.287L154.443,462.287z"/>
	<path style="fill:#8F7A2E;" d="M130.458,424.754c0.726,1.649,1.463,3.297,2.248,4.917h263.019c0.788-1.62,1.522-3.265,2.248-4.917
		H130.458z"/>
	<path style="fill:#8F7A2E;" d="M125.625,412.241c0.548,1.649,1.115,3.294,1.721,4.917h273.743c0.61-1.623,1.169-3.265,1.725-4.917
		H125.625z"/>
	<path style="fill:#8F7A2E;" d="M156.553,267.017h215.322c-1.536-1.674-3.108-3.315-4.724-4.917H161.277
		C159.665,263.702,158.093,265.343,156.553,267.017z"/>
	<path style="fill:#8F7A2E;" d="M166.83,474.797c1.888,1.689,3.827,3.326,5.803,4.917h183.163c1.975-1.591,3.915-3.225,5.806-4.917
		H166.83z"/>
	<path style="fill:#8F7A2E;" d="M182.924,487.311c2.575,1.729,5.225,3.352,7.916,4.917h146.756c2.687-1.565,5.338-3.185,7.916-4.917
		H182.924z"/>
	<path style="fill:#8F7A2E;" d="M118.061,365.843c0,0.425,0.029,0.842,0.033,1.267h292.248c0.004-0.425,0.033-0.842,0.033-1.267
		c0-1.224-0.065-2.429-0.091-3.646H118.152C118.119,363.41,118.061,364.62,118.061,365.843z"/>
	<path style="fill:#8F7A2E;" d="M309.722,504.737c4.401-1.442,8.708-3.079,12.917-4.917H205.794
		c4.205,1.834,8.519,3.475,12.92,4.917H309.722z"/>
	<path style="fill:#8F7A2E;" d="M122.048,399.731c0.392,1.649,0.81,3.286,1.256,4.917h281.819c0.447-1.627,0.864-3.265,1.256-4.917
		H122.048z"/>
	<path style="fill:#8F7A2E;" d="M150.064,274.614c-1.289,1.612-2.553,3.246-3.777,4.917h235.853
		c-1.224-1.667-2.487-3.305-3.777-4.917H150.064z"/>
	<path style="fill:#8F7A2E;" d="M141.098,287.124c-1.035,1.62-2.044,3.254-3.021,4.917h252.282
		c-0.977-1.663-1.983-3.297-3.021-4.917H141.098z"/>
	<path style="fill:#8F7A2E;" d="M119.63,387.217c0.24,1.652,0.534,3.283,0.832,4.917H407.97c0.294-1.634,0.588-3.265,0.832-4.917
		H119.63z"/>
	<path style="fill:#8F7A2E;" d="M133.926,299.637c-0.828,1.623-1.627,3.257-2.393,4.917h265.365
		c-0.766-1.656-1.569-3.294-2.393-4.917H133.926z"/>
	<path style="fill:#8F7A2E;" d="M195.03,237.077c-2.861,1.543-5.654,3.196-8.396,4.917h155.159c-2.742-1.721-5.53-3.373-8.396-4.917
		H195.03z"/>
	<path style="fill:#8F7A2E;" d="M226.703,224.567c-5.153,1.365-10.182,3.021-15.092,4.917h105.217
		c-4.917-1.896-9.943-3.551-15.095-4.917H226.703z"/>
	<path style="fill:#8F7A2E;" d="M175.661,249.591c-2.073,1.583-4.096,3.225-6.082,4.917h189.275
		c-1.986-1.689-4.009-3.33-6.086-4.917H175.661z"/>
	<path style="fill:#8F7A2E;" d="M118.352,374.707c0.098,1.645,0.222,3.286,0.374,4.917H409.71c0.153-1.63,0.276-3.268,0.374-4.917
		H118.352z"/>
	<path style="fill:#8F7A2E;" d="M118.969,349.684c-0.182,1.627-0.312,3.268-0.436,4.917h291.365
		c-0.123-1.645-0.254-3.286-0.436-4.917H118.969z"/>
	<path style="fill:#8F7A2E;" d="M128.283,312.147c-0.643,1.627-1.271,3.261-1.856,4.917h275.576
		c-0.588-1.656-1.213-3.29-1.859-4.917H128.283z"/>
	<path style="fill:#8F7A2E;" d="M123.984,324.661c-0.479,1.63-0.962,3.261-1.384,4.917h283.231
		c-0.421-1.656-0.904-3.283-1.384-4.917H123.984z"/>
	<path style="fill:#8F7A2E;" d="M120.886,337.171c-0.323,1.627-0.606,3.268-0.875,4.917h288.409
		c-0.265-1.645-0.552-3.286-0.875-4.917H120.886z"/>
</g>
<circle style="fill:#F1CB49;" cx="247.808" cy="365.854" r="146.16"/>
<circle style="fill:#D9BA55;" cx="247.808" cy="365.854" r="118.043"/>
<circle style="fill:#F8E7A9;" cx="247.808" cy="365.854" r="109.52"/>
<path style="fill:#F6E296;" d="M252.492,500.322c-1.946,0-3.555-1.543-3.624-3.504c-0.073-2.004,1.496-3.686,3.501-3.755
	c1.191-0.04,2.371-0.098,3.555-0.174c1.983-0.142,3.722,1.391,3.853,3.399c0.123,2.001-1.394,3.726-3.399,3.853
	c-1.246,0.076-2.498,0.142-3.751,0.185C252.579,500.322,252.536,500.322,252.492,500.322z M223.409,498.136
	c-0.225,0-0.447-0.018-0.675-0.062c-1.235-0.232-2.462-0.483-3.686-0.748c-1.961-0.428-3.203-2.36-2.778-4.321
	c0.428-1.957,2.371-3.196,4.321-2.774c1.151,0.251,2.317,0.487,3.479,0.704c1.972,0.37,3.268,2.27,2.898,4.238
	C226.648,496.919,225.123,498.136,223.409,498.136z M284.88,495.082c-1.572,0-3.018-1.028-3.482-2.607
	c-0.566-1.925,0.534-3.944,2.458-4.51c1.137-0.334,2.27-0.686,3.392-1.053c1.917-0.621,3.954,0.425,4.579,2.331
	c0.621,1.906-0.425,3.954-2.331,4.575c-1.191,0.385-2.386,0.755-3.588,1.111C285.562,495.035,285.217,495.082,284.88,495.082z
	 M192.187,488.041c-0.516,0-1.042-0.109-1.54-0.345c-1.137-0.534-2.266-1.082-3.384-1.649c-1.794-0.901-2.513-3.083-1.612-4.877
	s3.09-2.516,4.877-1.609c1.06,0.53,2.132,1.053,3.206,1.558c1.816,0.853,2.596,3.018,1.743,4.83
	C194.86,487.271,193.552,488.041,192.187,488.041z M314.929,481.911c-1.235,0-2.437-0.628-3.116-1.761
	c-1.031-1.721-0.476-3.951,1.246-4.982c1.013-0.61,2.026-1.231,3.021-1.867c1.685-1.078,3.936-0.581,5.015,1.115
	c1.078,1.692,0.577,3.936-1.115,5.015c-1.053,0.668-2.113,1.325-3.185,1.968C316.207,481.748,315.561,481.911,314.929,481.911z
	 M164.469,470.472c-0.813,0-1.63-0.272-2.31-0.832c-0.966-0.799-1.917-1.609-2.861-2.429c-1.511-1.318-1.667-3.613-0.352-5.124
	c1.322-1.514,3.617-1.663,5.124-0.349c0.893,0.781,1.798,1.547,2.713,2.302c1.547,1.278,1.765,3.566,0.487,5.113
	C166.554,470.022,165.515,470.472,164.469,470.472z M340.747,461.695c-0.922,0-1.845-0.349-2.553-1.049
	c-1.427-1.409-1.438-3.708-0.033-5.135c0.832-0.842,1.66-1.696,2.473-2.564c1.373-1.467,3.668-1.536,5.135-0.163
	c1.46,1.373,1.536,3.671,0.163,5.135c-0.853,0.911-1.725,1.812-2.6,2.698C342.621,461.332,341.684,461.695,340.747,461.695z
	 M141.984,446.593c-1.122,0-2.226-0.516-2.938-1.492c-0.734-1.006-1.453-2.023-2.168-3.05c-1.14-1.649-0.73-3.911,0.919-5.055
	c1.652-1.144,3.911-0.734,5.055,0.919c0.679,0.98,1.362,1.95,2.059,2.905c1.184,1.62,0.828,3.893-0.795,5.073
	C143.473,446.364,142.725,446.593,141.984,446.593z M360.767,435.71c-0.625,0-1.256-0.16-1.834-0.497
	c-1.732-1.013-2.31-3.239-1.296-4.968c0.603-1.028,1.187-2.059,1.761-3.101c0.97-1.754,3.17-2.4,4.931-1.431
	c1.754,0.966,2.397,3.177,1.431,4.931c-0.603,1.097-1.224,2.186-1.856,3.265C363.225,435.067,362.012,435.71,360.767,435.71z
	 M126.115,417.902c-1.442,0-2.803-0.868-3.373-2.288c-0.465-1.162-0.911-2.335-1.344-3.511c-0.686-1.885,0.28-3.969,2.168-4.659
	c1.877-0.683,3.965,0.283,4.655,2.164c0.403,1.115,0.832,2.219,1.267,3.315c0.744,1.863-0.163,3.976-2.03,4.717
	C127.02,417.818,126.566,417.902,126.115,417.902z M373.698,405.548c-0.33,0-0.672-0.047-1.006-0.145
	c-1.925-0.556-3.039-2.571-2.484-4.496c0.327-1.133,0.635-2.27,0.93-3.417c0.497-1.946,2.466-3.116,4.416-2.622
	c1.943,0.497,3.116,2.473,2.622,4.416c-0.309,1.216-0.639,2.429-0.984,3.635C376.73,404.513,375.278,405.548,373.698,405.548z
	 M117.916,386.139c-1.805,0-3.366-1.34-3.599-3.177c-0.156-1.238-0.298-2.48-0.421-3.729c-0.2-1.994,1.26-3.773,3.254-3.973
	c1.975-0.203,3.777,1.26,3.973,3.254c0.116,1.18,0.251,2.36,0.399,3.533c0.251,1.99-1.155,3.806-3.148,4.06
	C118.221,386.128,118.068,386.139,117.916,386.139z M378.68,373.124c-0.033,0-0.065,0-0.094,0c-2.004-0.051-3.588-1.721-3.537-3.726
	c0.033-1.18,0.051-2.368,0.051-3.555v-0.53c0-2.004,1.623-3.631,3.631-3.631s3.631,1.627,3.631,3.631v0.53
	c0,1.253-0.018,2.502-0.051,3.747C382.261,371.563,380.645,373.124,378.68,373.124z M117.858,353.337
	c-0.145,0-0.294-0.007-0.447-0.025c-1.99-0.243-3.406-2.055-3.159-4.049c0.153-1.246,0.323-2.487,0.508-3.718
	c0.301-1.979,2.121-3.348,4.136-3.05c1.983,0.298,3.348,2.15,3.05,4.132c-0.178,1.169-0.341,2.342-0.487,3.522
	C121.235,351.99,119.666,353.337,117.858,353.337z M375.39,339.967c-1.649,0-3.141-1.133-3.533-2.807
	c-0.269-1.162-0.552-2.313-0.85-3.461c-0.505-1.943,0.665-3.925,2.604-4.427c1.939-0.49,3.925,0.665,4.427,2.604
	c0.312,1.209,0.61,2.422,0.893,3.639c0.454,1.954-0.759,3.907-2.713,4.361C375.938,339.934,375.662,339.967,375.39,339.967z
	 M125.927,321.534c-0.443,0-0.89-0.08-1.325-0.254c-1.87-0.734-2.789-2.84-2.052-4.706c0.458-1.169,0.937-2.335,1.431-3.486
	c0.788-1.848,2.92-2.709,4.764-1.917c1.848,0.784,2.705,2.92,1.917,4.764c-0.465,1.093-0.915,2.19-1.351,3.297
	C128.744,320.659,127.375,321.534,125.927,321.534z M364.06,309.184c-1.307,0-2.575-0.708-3.221-1.95
	c-0.552-1.053-1.115-2.099-1.689-3.134c-0.973-1.754-0.338-3.965,1.42-4.935c1.747-0.973,3.965-0.338,4.935,1.416
	c0.603,1.089,1.191,2.186,1.765,3.29c0.93,1.776,0.243,3.973-1.532,4.902C365.201,309.05,364.627,309.184,364.06,309.184z
	 M141.686,292.752c-0.737,0-1.485-0.225-2.128-0.69c-1.623-1.177-1.986-3.45-0.81-5.069c0.734-1.013,1.482-2.012,2.237-3.003
	c1.216-1.591,3.497-1.903,5.087-0.683c1.594,1.216,1.899,3.497,0.683,5.091c-0.719,0.941-1.434,1.896-2.132,2.858
	C143.92,292.233,142.808,292.752,141.686,292.752z M345.414,282.211c-0.995,0-1.986-0.407-2.702-1.209
	c-0.795-0.886-1.594-1.758-2.411-2.618c-1.38-1.456-1.315-3.755,0.142-5.135c1.453-1.373,3.758-1.315,5.135,0.145
	c0.857,0.908,1.703,1.827,2.538,2.76c1.34,1.492,1.216,3.787-0.276,5.127C347.146,281.902,346.278,282.211,345.414,282.211z
	 M164.099,268.789c-1.042,0-2.077-0.447-2.796-1.311c-1.285-1.54-1.075-3.831,0.468-5.113c0.962-0.799,1.932-1.583,2.912-2.357
	c1.583-1.235,3.86-0.966,5.098,0.606c1.242,1.576,0.973,3.86-0.603,5.102c-0.93,0.73-1.852,1.478-2.763,2.237
	C165.74,268.513,164.916,268.789,164.099,268.789z M320.666,260.673c-0.694,0-1.402-0.2-2.023-0.617
	c-0.984-0.661-1.975-1.307-2.978-1.939c-1.699-1.068-2.204-3.312-1.137-5.008c1.075-1.699,3.319-2.201,5.008-1.137
	c1.06,0.668,2.113,1.354,3.156,2.052c1.663,1.118,2.106,3.373,0.988,5.04C322.983,260.111,321.836,260.673,320.666,260.673z
	 M191.729,251.123c-1.362,0-2.662-0.766-3.283-2.077c-0.861-1.812-0.087-3.976,1.725-4.837c1.129-0.534,2.259-1.053,3.406-1.558
	c1.837-0.806,3.98,0.022,4.786,1.856c0.81,1.834-0.022,3.98-1.859,4.79c-1.082,0.476-2.157,0.97-3.221,1.474
	C192.779,251.011,192.249,251.123,191.729,251.123z M291.34,245.956c-0.399,0-0.81-0.069-1.209-0.211
	c-1.118-0.392-2.241-0.773-3.377-1.137c-1.906-0.61-2.96-2.654-2.346-4.565c0.61-1.906,2.647-2.967,4.568-2.349
	c1.198,0.385,2.393,0.784,3.573,1.206c1.892,0.668,2.883,2.742,2.211,4.634C294.234,245.026,292.836,245.956,291.34,245.956z
	 M222.882,240.908c-1.707,0-3.228-1.206-3.559-2.945c-0.381-1.968,0.908-3.875,2.876-4.252c1.231-0.236,2.462-0.458,3.704-0.661
	c1.986-0.316,3.849,1.017,4.169,2.999c0.323,1.979-1.02,3.846-2.999,4.169c-1.169,0.192-2.339,0.399-3.497,0.625
	C223.34,240.886,223.108,240.908,222.882,240.908z M259.268,239.038c-0.102,0-0.211-0.004-0.316-0.015
	c-1.177-0.102-2.357-0.189-3.544-0.254c-2.004-0.116-3.533-1.834-3.413-3.838c0.113-2.005,1.848-3.501,3.835-3.413
	c1.256,0.076,2.506,0.163,3.748,0.272c2.001,0.171,3.479,1.932,3.305,3.933C262.718,237.611,261.131,239.038,259.268,239.038z"/>
<path style="fill:#C7A63D;" d="M241.736,466.696v-22.035c-15.535-0.694-30.616-4.866-39.425-9.972l6.954-27.137
	c9.743,5.334,23.426,10.211,38.506,10.211c13.222,0,22.264-5.102,22.264-14.384c0-8.81-7.419-14.373-24.584-20.179
	c-24.82-8.345-41.749-19.943-41.749-42.443c0-20.408,14.384-36.408,39.196-41.281v-22.031h22.732v20.408
	c15.538,0.694,25.967,3.944,33.626,7.655l-6.729,26.207c-6.032-2.553-16.697-7.887-33.397-7.887c-15.066,0-19.943,6.5-19.943,12.993
	c0,7.655,8.116,12.521,27.834,19.943c27.594,9.743,38.728,22.5,38.728,43.365c0,20.648-14.609,38.27-41.281,42.911v23.654
	L241.736,466.696L241.736,466.696z"/>
<path style="fill:#F1CB49;" d="M235.291,460.247v-22.035c-15.538-0.697-30.616-4.87-39.425-9.972l6.954-27.14
	c9.743,5.334,23.426,10.211,38.506,10.211c13.218,0,22.264-5.102,22.264-14.38c0-8.813-7.422-14.373-24.584-20.179
	c-24.82-8.345-41.749-19.947-41.749-42.443c0-20.408,14.384-36.408,39.193-41.281v-22.031h22.736v20.408
	c15.538,0.694,25.967,3.944,33.626,7.655l-6.729,26.211c-6.032-2.553-16.697-7.887-33.397-7.887c-15.07,0-19.943,6.5-19.943,12.989
	c0,7.655,8.116,12.524,27.834,19.947c27.594,9.743,38.724,22.496,38.724,43.365c0,20.648-14.605,38.27-41.277,42.911v23.654h-22.732
	V460.247z"/>
<g>
	<polygon style="fill:#FFFFFF;" points="209.69,263.767 215.899,301.558 253.69,307.772 215.899,313.981 209.69,351.776 
		203.477,313.981 165.686,307.772 203.477,301.558 	"/>
	<polygon style="fill:#FFFFFF;" points="136.214,310.611 140.129,334.414 163.932,338.325 140.129,342.24 136.214,366.043 
		132.303,342.24 108.5,338.325 132.303,334.414 	"/>
</g>
<g>
</g>
<g>
</g>
<g>
</g>
<g>
</g>
<g>
</g>
<g>
</g>
<g>
</g>
<g>
</g>
<g>
</g>
<g>
</g>
<g>
</g>
<g>
</g>
<g>
</g>
<g>
</g>
<g>
</g>
</svg>
