<?xml version="1.0" encoding="iso-8859-1"?>
<!-- Generator: Adobe Illustrator 19.0.0, SVG Export Plug-In . SVG Version: 6.00 Build 0)  -->
<svg version="1.1" id="Layer_1" xmlns="http://www.w3.org/2000/svg" xmlns:xlink="http://www.w3.org/1999/xlink" x="0px" y="0px"
	 viewBox="0 0 512.001 512.001" style="enable-background:new 0 0 512.001 512.001;" xml:space="preserve">
<g>
	<path style="fill:#A6673A;" d="M203.139,114.645h105.724c18.677-15.321,30.616-38.568,30.616-64.556V16.698
		c0-5.788-3-11.163-7.924-14.201c-4.913-3.049-11.065-3.32-16.239-0.733c-37.13,18.571-81.478,18.576-118.63,0
		c-5.173-2.581-11.315-2.315-16.25,0.733c-4.913,3.043-7.913,8.413-7.913,14.201v33.391
		C172.523,76.078,184.461,99.324,203.139,114.645z"/>
	<path style="fill:#A6673A;" d="M439.652,414.686V317.22c0-84.262-57.049-155.441-134.542-176.973h-98.219
		C129.397,161.778,72.349,232.958,72.349,317.22v97.467c-19.435,6.891-33.391,25.462-33.391,47.228
		c0,27.619,22.468,50.087,50.087,50.087h333.912c27.619,0,50.087-22.468,50.087-50.087
		C473.043,440.148,459.087,421.577,439.652,414.686z"/>
</g>
<g>
	<path style="fill:#99522E;" d="M439.652,414.686V317.22c0-84.262-57.049-155.441-134.542-176.973h-49.109v371.755h166.956
		c27.619,0,50.087-22.468,50.087-50.087C473.043,440.148,459.087,421.577,439.652,414.686z"/>
	<path style="fill:#99522E;" d="M308.863,114.645c18.677-15.321,30.616-38.568,30.616-64.556V16.698c0-5.788-3-11.163-7.924-14.201
		c-4.913-3.049-11.065-3.32-16.239-0.733c-18.569,9.287-38.941,13.931-59.316,13.93v98.952H308.863z"/>
</g>
<path style="fill:#FFE14D;" d="M317.218,384.001c0,27.937-18.922,51.534-44.522,58.88v7.903c0,9.238-7.456,16.696-16.696,16.696
	c-9.239,0-16.696-7.457-16.696-16.696v-7.903c-25.6-7.346-44.522-30.942-44.522-58.88c0-9.238,7.456-16.696,16.696-16.696
	c9.239,0,16.696,7.457,16.696,16.696c0,15.36,12.466,27.826,27.826,27.826c15.36,0,27.826-12.466,27.826-27.826
	c0-0.334,0-0.668-0.111-0.89c-0.78-8.904-13.468-16.918-27.603-24.598c0-0.11-0.111-0.11-0.111-0.11
	c-2.56-1.337-5.231-2.783-7.791-4.119c-23.82-12.576-53.426-28.271-53.426-59.325c0-27.937,18.922-51.534,44.522-58.88v-7.903
	c0-9.238,7.456-16.696,16.696-16.696s16.696,7.457,16.696,16.696v7.903c25.6,7.346,44.522,30.942,44.522,58.88
	c0,9.238-7.456,16.696-16.696,16.696c-9.239,0-16.696-7.457-16.696-16.696c0-15.36-12.466-27.826-27.826-27.826
	c-15.36,0-27.826,12.466-27.826,27.826c0,9.238,13.133,17.586,27.826,25.6c2.56,1.336,5.231,2.783,7.791,4.118
	C287.612,337.253,317.218,352.947,317.218,384.001z"/>
<g>
	<path style="fill:#FFCC33;" d="M283.827,294.958c0,9.223,7.478,16.696,16.696,16.696c9.217,0,16.696-7.473,16.696-16.696
		c0-27.961-18.869-51.55-44.522-58.843v-7.939c0-9.223-7.478-16.696-16.696-16.696v55.652
		C271.348,267.132,283.827,279.616,283.827,294.958z"/>
	<path style="fill:#FFCC33;" d="M317.218,384.001c0,27.937-18.922,51.534-44.522,58.88v7.903c0,9.238-7.456,16.696-16.696,16.696
		v-55.652c15.36,0,27.826-12.466,27.826-27.826c0-0.334,0-0.668-0.111-0.89c-0.78-8.904-13.468-16.918-27.603-24.598
		c0-0.11-0.111-0.11-0.111-0.11v-37.843c2.56,1.336,5.231,2.783,7.791,4.118C287.612,337.253,317.218,352.947,317.218,384.001z"/>
</g>
<path style="fill:#C9D2D9;" d="M306.087,144.697H205.914c-9.22,0-16.696-7.475-16.696-16.696l0,0c0-9.22,7.475-16.696,16.696-16.696
	h100.173c9.22,0,16.696,7.475,16.696,16.696l0,0C322.783,137.223,315.308,144.697,306.087,144.697z"/>
<path style="fill:#B7C4CC;" d="M306.087,111.306h-50.087v33.391h50.087c9.22,0,16.696-7.475,16.696-16.696
	S315.308,111.306,306.087,111.306z"/>
<g>
</g>
<g>
</g>
<g>
</g>
<g>
</g>
<g>
</g>
<g>
</g>
<g>
</g>
<g>
</g>
<g>
</g>
<g>
</g>
<g>
</g>
<g>
</g>
<g>
</g>
<g>
</g>
<g>
</g>
</svg>
