<?xml version="1.0" encoding="iso-8859-1"?>
<!-- Generator: Adobe Illustrator 19.0.0, SVG Export Plug-In . SVG Version: 6.00 Build 0)  -->
<svg version="1.1" id="Layer_1" xmlns="http://www.w3.org/2000/svg" xmlns:xlink="http://www.w3.org/1999/xlink" x="0px" y="0px"
	 viewBox="0 0 512 512" style="enable-background:new 0 0 512 512;" xml:space="preserve">
<circle style="fill:#F2CF61;" cx="256" cy="256" r="256"/>
<path style="fill:#F5F5F5;" d="M334.452,130.192l-10.468,49.152c-10.056-10.052-24.728-15.084-44.008-15.084
	s-34.896,6.92-46.84,20.76c-6.744,7.808-11.536,17.572-14.372,29.276h97.596l-5.676,27.504h-95.468
	c-0.12,2.724-0.176,6.212-0.176,10.472c0,4.14,0.116,8.452,0.356,12.948h90.32l-5.68,27.504H219.12
	c2.956,12.66,7.512,22.596,13.664,29.808c11.828,13.96,27.208,20.94,46.14,20.94c22.712,0,40.808-6.98,54.296-20.94v54.3
	c-15.38,7.688-33.304,11.536-53.764,11.536c-34.548,0-62.936-11.828-85.172-35.492c-15.144-16.084-25.14-36.132-29.988-60.152
	h-26.26l5.676-27.504h17.392c-0.12-2.84-0.176-5.856-0.176-9.052c0-5.44,0.116-10.232,0.352-14.376h-23.244l5.676-27.504h21.116
	c4.968-23.54,14.844-43.24,29.636-59.088c22.356-23.896,51.752-35.844,88.188-35.844
	C302.516,119.368,319.788,122.976,334.452,130.192z"/>
<g>
</g>
<g>
</g>
<g>
</g>
<g>
</g>
<g>
</g>
<g>
</g>
<g>
</g>
<g>
</g>
<g>
</g>
<g>
</g>
<g>
</g>
<g>
</g>
<g>
</g>
<g>
</g>
<g>
</g>
</svg>
