<?xml version="1.0" encoding="iso-8859-1"?>
<!-- Generator: Adobe Illustrator 19.0.0, SVG Export Plug-In . SVG Version: 6.00 Build 0)  -->
<svg version="1.1" id="Layer_1" xmlns="http://www.w3.org/2000/svg" xmlns:xlink="http://www.w3.org/1999/xlink" x="0px" y="0px"
	 viewBox="0 0 496.2 496.2" style="enable-background:new 0 0 496.2 496.2;" xml:space="preserve">
<path style="fill:#334D5C;" d="M496.2,248.1C496.2,111.1,385.1,0,248.1,0S0,111.1,0,248.1s111.1,248.1,248.1,248.1
	S496.2,385.1,496.2,248.1z"/>
<polygon style="fill:#EFF4EF;" points="356.2,174.7 60.9,227.4 60.9,278.7 140,321.5 435.3,268.8 435.3,217.5 "/>
<g>
	<polygon style="fill:#C8CCC8;" points="139.9,287.8 435.3,235.2 435.3,234.2 140,286.7 60.9,243.7 60.9,244.9 139.7,287.7 	"/>
	<polygon style="fill:#C8CCC8;" points="139.9,279 435.3,226.4 435.3,225.4 140,278 60.9,235 60.9,236.1 139.7,279 	"/>
	<polygon style="fill:#C8CCC8;" points="60.9,270 60.9,271.1 139.7,314 139.9,314 435.3,261.4 435.3,260.4 140,313 	"/>
	<polygon style="fill:#C8CCC8;" points="60.9,261 60.9,262.1 139.7,305 139.9,305 435.3,252.4 435.3,251.4 140,304 	"/>
	<polygon style="fill:#C8CCC8;" points="60.9,252.3 60.9,253.5 139.7,296.3 139.9,296.4 435.3,243.8 435.3,242.7 140,295.3 	"/>
</g>
<polygon style="fill:#B9EFBD;" points="356.2,174.7 60.9,227.4 140,270.3 435.3,217.5 "/>
<g>
	<path style="fill:#71AD71;" d="M426.7,216.5l-285.4,50.9l-71.9-38.9l285.4-50.9L426.7,216.5z M354.2,179L73.9,229l68.2,36.9
		l280.3-50L354.2,179z"/>
	<path style="fill:#71AD71;" d="M298.5,213.5c-17.2-9.3-53.8-12.9-81.6-7.9s-36.4,16.6-19.2,25.9c17.2,9.3,53.8,12.9,81.6,7.9
		C307.1,234.4,315.7,222.8,298.5,213.5z"/>
</g>
<g>
	<polygon style="fill:#F5FCF5;" points="233.3,196.6 193.3,203.8 272.4,246.6 312.4,239.5 	"/>
	<polygon style="fill:#F5FCF5;" points="312.4,290.8 272.4,297.9 272.4,246.6 312.4,239.5 	"/>
</g>
<g>
	<polygon style="fill:#DDB01F;" points="198.3,202.8 193.3,203.8 272.4,246.6 272.4,297.9 277.4,297 277.4,245.7 	"/>
	<polygon style="fill:#DDB01F;" points="233.5,196.5 228.5,197.4 307.6,240.3 307.6,291.6 312.6,290.6 312.6,239.4 	"/>
</g>
<g>
</g>
<g>
</g>
<g>
</g>
<g>
</g>
<g>
</g>
<g>
</g>
<g>
</g>
<g>
</g>
<g>
</g>
<g>
</g>
<g>
</g>
<g>
</g>
<g>
</g>
<g>
</g>
<g>
</g>
</svg>
