<?xml version="1.0" standalone="no"?>
<!DOCTYPE svg PUBLIC "-//W3C//DTD SVG 20010904//EN"
 "http://www.w3.org/TR/2001/REC-SVG-20010904/DTD/svg10.dtd">
<svg version="1.0" xmlns="http://www.w3.org/2000/svg"
 width="435.000000pt" height="1800.000000pt" viewBox="0 0 435.000000 1800.000000"
 preserveAspectRatio="xMidYMid meet">

<g transform="translate(0.000000,1800.000000) scale(0.100000,-0.100000)"
fill="#000000" stroke="none">
<path d="M1728 17936 c-120 -31 -176 -50 -201 -69 -51 -38 -78 -102 -84 -197
-3 -44 -8 -80 -11 -80 -5 0 -130 54 -382 165 -159 70 -168 73 -265 79 -55 4
-119 9 -142 12 -34 4 -42 2 -47 -13 -3 -10 -30 -148 -61 -308 -66 -342 -231
-1190 -245 -1255 -5 -25 -43 -220 -85 -435 -42 -214 -78 -402 -81 -417 -4 -22
-13 -29 -40 -34 -24 -4 -36 -13 -40 -29 -8 -33 -1 -70 14 -67 6 1 12 -2 12 -8
0 -5 -3 -10 -7 -10 -5 0 -14 -4 -21 -9 -11 -6 -1 -24 39 -77 79 -103 288 -305
344 -333 63 -31 752 -173 778 -159 19 10 77 118 77 145 1 50 16 47 114 -26 53
-39 96 -73 96 -76 0 -2 -13 -2 -29 1 -41 9 -71 -14 -60 -44 10 -27 65 -53 162
-78 l67 -16 2 -252 c1 -138 3 -280 3 -316 1 -36 3 -338 4 -672 2 -439 6 -608
14 -608 8 0 7 -4 -1 -12 -16 -16 -16 -105 1 -111 7 -3 8 -6 1 -6 -7 -1 -9 -12
-6 -28 l6 -28 7 25 c6 23 7 23 8 3 1 -12 -5 -28 -13 -36 -12 -12 -14 -218 -15
-1372 -1 -747 -3 -1361 -6 -1364 -10 -17 -12 -91 -3 -91 6 0 7 -5 2 -12 -9
-13 -9 -1675 -3 -6800 2 -1307 0 -2380 -3 -2384 -4 -4 -157 -15 -340 -25 -519
-28 -508 -26 -508 -88 0 -38 3 -43 62 -82 35 -24 143 -98 242 -166 98 -69 190
-129 205 -135 74 -29 162 -27 1096 27 959 56 1034 61 1073 76 20 8 23 15 20
51 -3 42 -3 43 -103 102 -146 86 -434 246 -475 264 -22 9 -85 17 -170 21
l-135 6 0 7114 c0 5596 3 7115 12 7118 7 3 45 31 85 63 l73 59 20 -23 c11 -13
29 -28 40 -34 19 -9 86 -131 114 -204 23 -60 23 -60 393 -8 298 42 342 51 387
76 62 33 223 175 316 277 38 42 79 78 92 82 23 5 33 42 16 59 -4 4 -6 42 -5
84 2 42 -22 473 -52 957 -30 484 -63 1012 -73 1174 l-17 293 -79 -4 c-65 -4
-82 -9 -96 -25 -10 -13 -46 -29 -94 -42 -103 -28 -105 -28 -112 17 -10 60 -34
125 -55 150 -10 13 -65 48 -122 79 l-103 56 -675 38 c-371 21 -695 38 -720 38
-25 -1 -120 -20 -212 -43z m973 -1396 c3 -57 0 -97 -6 -100 -6 -3 -11 37 -12
110 -2 70 1 109 6 100 5 -8 11 -58 12 -110z m-867 -2995 c-4 -8 -8 -15 -10
-15 -2 0 -4 7 -4 15 0 8 4 15 10 15 5 0 7 -7 4 -15z m-7 -82 c-3 -10 -5 -4 -5
12 0 17 2 24 5 18 2 -7 2 -21 0 -30z m7 -120 c-2 -48 -6 -89 -11 -90 -4 -2 -7
37 -5 87 2 49 7 90 11 90 4 0 6 -39 5 -87z m-29 -52 c3 -5 1 -12 -5 -16 -5 -3
-10 1 -10 9 0 18 6 21 15 7z m-29 -23 c4 -6 3 -8 -4 -4 -5 3 -13 0 -15 -6 -3
-8 -6 -6 -6 5 -1 19 14 23 25 5z m-56 -42 c-7 -7 -13 -7 -20 0 -6 6 -3 10 10
10 13 0 16 -4 10 -10z m82 -37 c15 -8 19 -8 14 0 -4 6 -2 11 3 11 6 0 11 -7
11 -15 0 -8 -7 -15 -16 -15 -8 0 -22 7 -30 15 -18 18 -11 19 18 4z m34 -46
c-2 -9 -8 -19 -14 -21 -8 -2 -10 13 -3 36 1 1 5 2 10 2 5 0 8 -8 7 -17z m-122
-38 c-4 -8 -10 -15 -15 -15 -4 0 -6 7 -3 15 4 8 10 15 15 15 4 0 6 -7 3 -15z
m125 -37 c1 -5 -3 -8 -9 -8 -5 0 -10 12 -9 28 0 24 1 25 9 7 5 -11 9 -23 9
-27z m-95 17 c-4 -8 -11 -12 -16 -9 -6 4 -5 10 3 15 19 12 19 11 13 -6z m-27
-57 c-3 -8 -6 -5 -6 6 -1 11 2 17 5 13 3 -3 4 -12 1 -19z m120 -31 c0 -21 -4
-40 -10 -44 -5 -3 -7 -2 -4 4 3 5 2 26 -3 47 -6 27 -5 36 3 33 7 -2 13 -20 14
-40z m-7 -111 c-7 -7 -10 1 -9 25 0 32 1 33 10 10 6 -16 6 -28 -1 -35z m-38
22 c-7 -7 -12 -8 -12 -2 0 14 12 26 19 19 2 -3 -1 -11 -7 -17z m42 -86 c-7
-38 -17 -43 -13 -7 2 17 -1 37 -6 45 -7 13 -6 13 7 2 11 -9 15 -23 12 -40z
m-128 -89 c-10 -10 -19 5 -10 18 6 11 8 11 12 0 2 -7 1 -15 -2 -18z m134 2 c0
-8 -4 -15 -8 -15 -5 0 -9 7 -9 15 0 8 4 15 9 15 4 0 8 -7 8 -15z m-156 -33 c2
-4 -4 -9 -15 -9 -11 -1 -17 2 -14 8 7 11 22 12 29 1z m76 4 c0 -2 -7 -7 -16
-10 -8 -3 -12 -2 -9 4 6 10 25 14 25 6z m72 -71 c-2 -46 -7 -73 -13 -69 -6 3
-8 12 -5 20 3 8 1 14 -4 14 -6 0 -10 -6 -10 -12 0 -9 -3 -8 -10 2 -7 12 -11
10 -19 -10 l-10 -25 2 28 c1 20 6 27 17 24 21 -5 41 18 39 45 -3 35 0 58 9 58
4 0 6 -34 4 -75z m-146 26 c0 -9 4 -15 11 -14 7 2 10 -4 7 -11 -7 -17 -34 -10
-31 7 1 7 -3 11 -10 10 -7 -2 -10 3 -7 10 7 19 31 17 30 -2z m18 -77 c3 -8 2
-12 -4 -9 -6 3 -10 10 -10 16 0 14 7 11 14 -7z m127 -46 c6 -62 4 -208 -3
-208 -4 0 -8 7 -8 15 0 9 -8 28 -17 42 -17 25 -17 27 -1 20 15 -5 16 -2 12 22
-3 16 -1 38 5 50 7 12 8 21 2 21 -5 0 -12 -6 -14 -12 -3 -8 -6 -6 -6 5 -1 9 4
17 10 17 6 0 9 9 6 20 -3 11 -1 20 4 20 5 0 10 -6 10 -12z m-101 -28 c0 -14
-28 -1 -34 16 -4 12 -2 12 14 4 11 -6 20 -15 20 -20z m54 13 c3 -7 2 -13 -3
-13 -5 0 -14 6 -20 13 -8 10 -7 14 4 14 8 0 16 -6 19 -14z m-24 -31 c0 -15 -2
-15 -10 -2 -13 20 -13 33 0 25 6 -3 10 -14 10 -23z m-46 -54 c-11 -17 9 -7 27
15 l20 22 -13 -25 c-7 -14 -11 -29 -10 -34 2 -5 -4 -6 -13 -2 -9 3 -20 6 -25
6 -4 0 -7 8 -5 18 2 9 4 22 4 27 1 6 5 3 10 -5 6 -8 7 -18 5 -22z m79 19 c3
-8 -1 -14 -8 -14 -7 0 -11 6 -8 14 3 7 6 13 8 13 2 0 5 -6 8 -13z m47 -173 c0
-13 -5 -24 -10 -24 -6 0 -9 13 -8 29 3 35 18 31 18 -5z m-49 -43 c-7 -5 -11
-13 -7 -19 3 -6 2 -13 -3 -16 -5 -3 -11 3 -14 14 -5 18 5 28 28 29 6 0 4 -3
-4 -8z m44 -38 c-2 -27 -4 -66 -5 -88 -2 -38 -3 -39 -9 -10 -4 17 -4 37 0 45
4 9 3 24 -3 33 -7 13 -6 22 2 33 10 11 10 14 1 14 -7 0 -9 5 -6 10 14 23 22 7
20 -37z m-167 -28 c-3 -3 -9 2 -12 12 -6 14 -5 15 5 6 7 -7 10 -15 7 -18z m60
-30 c-3 -3 -9 2 -12 12 -6 14 -5 15 5 6 7 -7 10 -15 7 -18z m25 0 c-7 -21 -12
-19 -10 4 0 11 5 18 9 15 4 -3 5 -11 1 -19z m52 7 c-3 -3 -11 0 -18 7 -9 10
-8 11 6 5 10 -3 15 -9 12 -12z m-95 -22 c0 -5 -2 -10 -4 -10 -3 0 -8 5 -11 10
-3 6 -1 10 4 10 6 0 11 -4 11 -10z m-10 -25 c0 -1 -6 -8 -14 -15 -12 -9 -15
-8 -13 8 0 12 6 18 14 15 7 -3 13 -6 13 -8z m30 -43 c0 -15 -2 -15 -10 -2 -13
20 -13 33 0 25 6 -3 10 -14 10 -23z m-33 -4 c-3 -8 -6 -5 -6 6 -1 11 2 17 5
13 3 -3 4 -12 1 -19z m133 2 c0 -5 -8 -10 -17 -10 -15 0 -16 2 -3 10 19 12 20
12 20 0z m0 -57 c-1 -32 -2 -35 -11 -20 -6 10 -8 25 -5 33 3 9 1 12 -4 9 -6
-3 -10 -1 -10 4 0 6 7 11 15 11 11 0 15 -11 15 -37z m-120 -49 c0 -8 -4 -14
-9 -14 -6 0 -9 9 -8 19 1 22 17 18 17 -5z m50 -9 c0 -2 -6 -5 -13 -8 -8 -3
-14 1 -14 8 0 7 6 11 14 8 7 -3 13 -6 13 -8z m70 3 c0 -4 -6 -8 -12 -8 -9 0
-8 -4 2 -10 12 -8 11 -10 -7 -10 -15 0 -21 6 -20 19 1 18 37 27 37 9z m-110
-52 c0 -2 -8 -10 -17 -17 -16 -13 -17 -12 -4 4 13 16 21 21 21 13z m50 -10
c-10 -13 -40 -12 -40 1 0 3 7 3 15 0 8 -4 17 -2 20 3 4 6 9 10 12 10 3 0 0 -6
-7 -14z m25 -26 c-3 -5 -12 -10 -18 -10 -7 0 -6 4 3 10 19 12 23 12 15 0z m40
-19 c3 -5 1 -12 -5 -16 -5 -3 -10 -1 -10 5 0 6 -5 8 -12 4 -7 -4 -8 -3 -4 4 9
14 23 15 31 3z m-35 -31 c0 -5 -2 -10 -4 -10 -3 0 -8 5 -11 10 -3 6 -1 10 4
10 6 0 11 -4 11 -10z m37 -20 c-5 -31 -17 -37 -15 -7 1 15 6 27 10 27 4 0 7
-9 5 -20z m-117 -4 c0 -2 -7 -7 -16 -10 -8 -3 -12 -2 -9 4 6 10 25 14 25 6z
m80 -6 c12 -8 11 -10 -7 -10 -13 0 -23 5 -23 10 0 13 11 13 30 0z m32 -87 c4
-66 -1 -76 -26 -57 -19 13 -19 14 -2 14 16 0 17 2 5 17 -10 11 -10 14 -1 9 9
-5 12 2 12 26 0 19 -6 40 -12 47 -11 10 -10 11 4 6 12 -5 17 -22 20 -62z
m-114 23 c-7 -8 -15 -12 -17 -11 -5 6 10 25 20 25 5 0 4 -6 -3 -14z m32 -14
c0 -5 -7 -17 -15 -28 -14 -18 -14 -17 -4 9 12 27 19 34 19 19z m53 -133 c-4
-4 -14 -4 -22 0 -12 8 -12 11 0 24 12 13 15 13 23 0 4 -8 4 -19 -1 -24z m20
-90 c-5 -5 -17 -3 -29 6 -19 15 -19 16 1 13 15 -2 21 4 25 27 l4 30 4 -34 c2
-18 0 -37 -5 -42z m-126 22 c1 -14 -3 -18 -13 -14 -11 4 -12 9 -3 19 15 18 14
18 16 -5z m28 -51 c1 -10 -2 -17 -6 -14 -4 2 -7 13 -6 24 2 23 10 17 12 -10z
m105 -11 c0 -5 -4 -7 -10 -4 -5 3 -10 2 -10 -4 0 -5 6 -11 13 -14 6 -3 2 -4
-10 -4 -17 1 -20 4 -12 19 11 20 29 24 29 7z m-123 -31 c-3 -8 -6 -5 -6 6 -1
11 2 17 5 13 3 -3 4 -12 1 -19z m123 -45 c-1 -38 -1 -38 -15 -13 -7 14 -9 27
-4 28 5 2 7 8 3 13 -3 5 0 9 5 9 6 0 11 -17 11 -37z m-3 -65 c-3 -8 -6 -5 -6
6 -1 11 2 17 5 13 3 -3 4 -12 1 -19z m2 -70 c0 -33 -3 -46 -8 -35 -7 18 -3 87
5 87 2 0 4 -24 3 -52z m-101 -73 c-3 -3 -9 2 -12 12 -6 14 -5 15 5 6 7 -7 10
-15 7 -18z m63 -12 c-8 -15 -10 -15 -11 -2 0 17 10 32 18 25 2 -3 -1 -13 -7
-23z m35 -42 c-4 -5 0 -11 6 -14 10 -3 9 -9 -4 -22 -16 -17 -17 -17 -11 5 5
20 3 22 -13 17 -18 -7 -18 -7 0 8 23 17 30 19 22 6z m9 -71 c3 -6 -1 -7 -9 -4
-18 7 -21 14 -7 14 6 0 13 -4 16 -10z m-5 -100 c0 -11 -4 -20 -9 -20 -5 0 -7
9 -4 20 3 11 7 20 9 20 2 0 4 -9 4 -20z m3 -75 c-7 -21 -13 -19 -13 6 0 11 4
18 10 14 5 -3 7 -12 3 -20z m-3 -35 c0 -5 -5 -10 -11 -10 -5 0 -7 5 -4 10 3 6
8 10 11 10 2 0 4 -4 4 -10z m0 -142 c0 -16 -3 -19 -11 -11 -6 6 -8 16 -5 22
11 17 16 13 16 -11z m10 -112 c0 -3 -4 -8 -10 -11 -5 -3 -10 -1 -10 4 0 6 5
11 10 11 6 0 10 -2 10 -4z m-13 -98 c-3 -8 -6 -5 -6 6 -1 11 2 17 5 13 3 -3 4
-12 1 -19z m3 -103 c0 -8 -2 -15 -4 -15 -2 0 -6 7 -10 15 -3 8 -1 15 4 15 6 0
10 -7 10 -15z m-3 -47 c-3 -8 -6 -5 -6 6 -1 11 2 17 5 13 3 -3 4 -12 1 -19z
m3 -378 c0 -5 -2 -10 -4 -10 -3 0 -8 5 -11 10 -3 6 -1 10 4 10 6 0 11 -4 11
-10z m-10 -175 c0 -5 -5 -3 -10 5 -5 8 -10 20 -10 25 0 6 5 3 10 -5 5 -8 10
-19 10 -25z m-120 -34 c0 -12 -20 -25 -27 -18 -7 7 6 27 18 27 5 0 9 -4 9 -9z
m117 -93 c-3 -8 -6 -5 -6 6 -1 11 2 17 5 13 3 -3 4 -12 1 -19z m0 -65 c-3 -10
-5 -4 -5 12 0 17 2 24 5 18 2 -7 2 -21 0 -30z m3 -333 c0 -5 -5 -10 -11 -10
-5 0 -7 5 -4 10 3 6 8 10 11 10 2 0 4 -4 4 -10z m-2 -176 c-3 -14 -5 -12 -10
9 -3 19 -2 25 4 19 6 -6 8 -18 6 -28z m0 -299 c-3 -3 -9 2 -12 12 -6 14 -5 15
5 6 7 -7 10 -15 7 -18z m0 -400 c-3 -3 -9 2 -12 12 -6 14 -5 15 5 6 7 -7 10
-15 7 -18z m-123 -2925 c-5 -8 -11 -8 -17 -2 -6 6 -7 16 -3 22 5 8 11 8 17 2
6 -6 7 -16 3 -22z m-168 -4986 c-3 -3 -12 -4 -19 -1 -8 3 -5 6 6 6 11 1 17 -2
13 -5z"/>
<path d="M357 17397 c-35 -20 -58 -59 -43 -75 9 -8 77 28 83 44 2 7 3 22 1 33
-3 20 -3 20 -41 -2z"/>
<path d="M280 16890 c0 -8 -16 -118 -34 -245 -19 -126 -32 -232 -30 -234 13
-14 25 38 53 243 22 159 29 232 21 240 -7 7 -10 6 -10 -4z"/>
<path d="M158 16014 c-5 -4 -8 -19 -8 -33 0 -18 3 -22 11 -14 6 6 9 21 7 33
-1 12 -6 18 -10 14z"/>
<path d="M145 15941 c-3 -5 -1 -12 5 -16 5 -3 10 1 10 9 0 18 -6 21 -15 7z"/>
</g>
</svg>
