<?xml version="1.0" ?>
<svg width="80px" height="80px" viewBox="0 0 80 80" data-name="Layer 1" id="Layer_1" xmlns="http://www.w3.org/2000/svg">
    <defs>
        <style>
            .cls-1,.cls-6{fill:none;stroke:#000;stroke-linejoin:round;stroke-width:4px;}.cls-1{stroke-linecap:round;}.cls-2{fill:#9ECA84;}.cls-3{fill:#9ECA84;}.cls-4{fill:#76d1ff;}.cls-5{fill:#5ac0e0;}
        </style>
    </defs>
    <title/>
    <path class="cls-1" d="M46,40h9a4,4,0,0,1,4,4v8.5A3.5,3.5,0,0,0,62.5,56h0A3.5,3.5,0,0,0,66,52.5V34"/>
    <path class="cls-2" d="M47,65H46V13a4,4,0,0,0-4-4H18a4,4,0,0,0-4,4V65H13a4,4,0,0,0,0,8H47a4,4,0,0,0,0-8Z"/>
    <path class="cls-3"
          d="M47,65H46V13a3.9989,3.9989,0,0,0-4-4l-7.99.0048A6,6,0,0,1,40,15.0041V65h1a4,4,0,0,1,0,8h6a4,4,0,0,0,0-8Z"/>
    <rect class="cls-4" height="18" rx="4" width="20" x="20" y="15"/>
    <path class="cls-5"
          d="M37,15l-7.99.0048A6,6,0,0,1,35,21.0041V27a6,6,0,0,1-6,6h8a3.9989,3.9989,0,0,0,4-4V19A3.9989,3.9989,0,0,0,37,15Z"/>
    <path class="cls-1" d="M42,73h5a4,4,0,0,0,0-8H13a4,4,0,0,0,0,8H36"/>
    <path class="cls-6" d="M14,65V13a4,4,0,0,1,4-4H42a4,4,0,0,1,4,4V65"/>
    <rect class="cls-1" height="18" rx="4" width="20" x="20" y="15"/>
    <line class="cls-1" x1="63" x2="63" y1="24" y2="27.1711"/>
    <line class="cls-1" x1="69" x2="69" y1="24" y2="27.1712"/>
    <rect class="cls-2" height="7" rx="3" width="10" x="61" y="27"/>
    <path class="cls-3" d="M68,27H64a3,3,0,0,1,3,3v1a3,3,0,0,1-3,3h4a3,3,0,0,0,3-3V30A3,3,0,0,0,68,27Z"/>
    <rect class="cls-1" height="7" rx="3" width="10" x="61" y="27"/>
</svg>